<svg xmlns="http://www.w3.org/2000/svg" xmlns:xlink="http://www.w3.org/1999/xlink" version="1.1" id="Layer_1" x="0px" y="0px" width="80.751px" height="100px" viewBox="0 0 80.751 100" enable-background="new 0 0 80.751 100" xml:space="preserve">
<g>
	<path d="M78.69,64.413c-0.797-1.649-1.62-3.355-1.777-4.295c-0.17-1.019-0.94-2.727-4.198-2.727c-1.042,0-2.044,0.176-2.612,0.298   C64.444,53.63,54.131,47.426,47.257,43.29c-3.715-2.235-6.649-4-7.284-4.481c-0.176-0.133-0.416-0.381-0.47-0.992   c-0.457-5.104,11.541-19.519,16.873-25.403c0.298,0.106,0.624,0.161,0.97,0.161h0.001c3.698-0.001,10.629-7.018,10.952-10.294   c0.112-1.133-0.486-1.97-1.562-2.186C66.422,0.031,66.071,0,65.691,0c-4.438,0-13.133,4.442-13.5,4.632   c-0.042,0.021-0.081,0.044-0.119,0.071C36.658,15.539,32.535,22.089,26.827,31.156c-0.947,1.504-1.941,3.084-3.042,4.773   c-3.565,5.467-6.929,13.726-9.149,19.463c-0.651,1.684-3.615,4.635-6.481,7.488c-3.849,3.833-7.485,7.454-8.006,10.072   c-0.854,4.285,2.222,12.337,2.949,14.153c-0.336,1.109-0.932,4.178,1.741,6.607c1.544,1.404,3,2.115,4.327,2.115   c1.476,0,2.653-0.879,3.313-2.475c1.192-2.878-0.914-6.188-2.773-9.107l-0.073-0.115c-1.63-2.562-2.642-6.787-1.421-9.904   c0.843-2.151,7.955-8.419,10.025-8.419c0,0,0.001,0,0.001,0c0.908,0.092,1.836,0.382,2.751,0.762   c-3.158,0.484-5.843,3.669-6.398,7.796c-0.645,4.813,1.872,9.137,5.61,9.64c0.243,0.032,0.485,0.049,0.726,0.049   c3.518,0,6.625-3.382,7.228-7.867c0.306-2.279-0.077-4.523-1.079-6.32c-0.066-0.119-0.141-0.226-0.211-0.34   c3.479,1.79,10.399,8.82,10.884,9.924c0.531,1.633-1.671,5.744-3.279,8.746c-1.495,2.792-2.786,5.204-2.786,6.737   c0,3.856,2.082,4.146,6.643,4.781l0.24,0.033C39.76,99.916,40.81,100,41.689,100c2.104,0,3.359-0.483,3.836-1.477   c0.21-0.438,0.424-1.341-0.501-2.494c-0.935-1.167-3.442-2.391-4.899-3.034c1.652-3.048,6.137-11.628,6.221-15.131   c0.046-1.919-2.146-4.194-5.728-7.745c-2.413-2.394-4.907-4.867-5.777-6.741c-1.577-3.394-0.519-10.775,1.918-13.387   c0.017-0.017,0.179-0.171,0.814-0.171c5.615,0,24.708,11.266,31.75,15.703c0.733,0.79,5.253,5.513,9.182,6.233   c1.248,0.227,1.762-0.37,1.969-0.7C81.241,69.835,80.342,67.838,78.69,64.413z M26.163,75.921   c-0.489,3.643-3.039,6.452-5.692,6.092c-2.641-0.355-4.383-3.665-3.885-7.38c0.461-3.434,2.762-6.123,5.237-6.123   c0.152,0,0.304,0.01,0.458,0.03c1.223,0.164,2.303,0.983,3.041,2.308C26.112,72.267,26.412,74.069,26.163,75.921z M70.72,64.07   c-0.062-0.068-0.132-0.127-0.209-0.176c-1.04-0.657-25.559-16.086-32.938-16.086c-1.014,0-1.783,0.272-2.285,0.811   c-2.971,3.184-4.182,11.498-2.272,15.608c1.022,2.199,3.647,4.803,6.185,7.32c2.178,2.16,5.161,5.118,5.132,6.269   c-0.071,3.011-4.721,11.98-6.506,15.183c-0.141,0.254-0.166,0.556-0.069,0.828s0.307,0.49,0.576,0.598   c1.602,0.635,4.407,1.975,5.119,2.863c0.177,0.222,0.244,0.358,0.262,0.352c-0.068,0.055-0.498,0.35-2.027,0.35   c-0.787,0-1.743-0.078-2.843-0.231l-0.241-0.033c-4.908-0.684-4.908-0.842-4.908-2.789c0-1.028,1.354-3.557,2.548-5.787   c2.072-3.869,4.214-7.87,3.419-10.318c-0.568-1.745-8.711-9.713-12.317-11.312c-0.699-0.311-1.461-0.724-2.268-1.161   c-1.996-1.082-4.257-2.309-6.639-2.549c-0.076-0.008-0.155-0.012-0.236-0.012c-3.118,0-10.792,6.96-11.865,9.697   c-1.534,3.917-0.248,8.821,1.597,11.72l0.074,0.115c1.595,2.507,3.403,5.348,2.611,7.258c-0.511,1.232-1.222,1.232-1.456,1.232   c-0.788,0-1.844-0.564-2.973-1.592c-2.188-1.989-1.138-4.653-1.094-4.76c0.105-0.249,0.105-0.528,0.001-0.777   c-1.061-2.544-3.664-9.9-2.978-13.342c0.402-2.019,4.147-5.749,7.453-9.04c3.153-3.141,6.132-6.106,6.938-8.188   c2.188-5.654,5.496-13.783,8.958-19.091c1.108-1.699,2.108-3.289,3.06-4.801c5.783-9.188,9.606-15.26,24.64-25.838   c0.775-0.392,8.74-4.378,12.521-4.378c0.215,0,0.408,0.014,0.611,0.051c-0.023,0.346-0.344,1.334-1.695,3.043   c-2.337,2.958-5.663,5.456-7.261,5.457c-0.312,0-0.424-0.107-0.465-0.147c-0.195-0.19-0.453-0.295-0.729-0.284   c-0.271,0.007-0.527,0.125-0.712,0.324c-1.902,2.069-18.578,20.415-17.941,27.541c0.092,1.025,0.527,1.861,1.259,2.415   c0.72,0.545,3.548,2.248,7.461,4.602c7.001,4.212,17.579,10.577,23.075,14.573c0.247,0.181,0.561,0.239,0.854,0.157   c0.013-0.003,1.28-0.342,2.565-0.342c2.041,0,2.171,0.787,2.215,1.046c0.204,1.225,1.052,2.98,1.948,4.84   c0.655,1.356,1.697,3.516,1.849,4.462C75.219,68.997,70.765,64.119,70.72,64.07z"/>
	<path d="M64.567,10.402c-0.19,0.505,0.077,1.081,0.575,1.291c0.09,0.038,9.172,5.046,11.035,24.797   c0.049,0.521,0.487,0.912,1,0.912c0.031,0,0.062-0.001,0.095-0.004c0.554-0.052,0.96-0.543,0.907-1.096   C76.388,17.304,67.828,10.467,65.804,9.793C65.289,9.622,64.758,9.896,64.567,10.402z"/>
	<path d="M67.375,36.475c0.042,0.526,0.482,0.926,1.002,0.926c0.026,0,0.054-0.001,0.081-0.003c0.554-0.044,0.967-0.529,0.923-1.083   c-1.164-14.563-9.263-18.753-9.607-18.925c-0.494-0.245-1.095-0.045-1.345,0.449c-0.248,0.495-0.049,1.099,0.445,1.35   C58.947,19.227,66.308,23.123,67.375,36.475z"/>
	<path d="M52.619,25.542c-0.537,0-0.938,0.424-0.964,0.96c-0.024,0.537,0.418,1,0.952,1.051c0.672,0.063,4.307,2.626,5.736,9.06   c0.104,0.469,0.521,0.788,0.981,0.788c0.072,0,0.145-0.008,0.219-0.024c0.542-0.12,0.884-0.657,0.764-1.2   C58.733,29.096,54.53,25.542,52.619,25.542z"/>
	<path d="M67.121,68.833c-0.557,0-1.006,0.45-1.006,1.006c0,0.079-0.036,7.963-3.102,12.58c-0.307,0.463-0.182,1.086,0.282,1.394   c0.171,0.114,0.363,0.168,0.555,0.168c0.326,0,0.646-0.158,0.839-0.45c3.397-5.116,3.437-13.344,3.437-13.691   C68.125,69.283,67.676,68.833,67.121,68.833z"/>
	<path d="M72.938,74.699C72.937,74.699,72.937,74.699,72.938,74.699c-0.556,0-1.006,0.45-1.007,1.005   c0,0.051-0.028,5.001-1.928,8.582c-0.261,0.491-0.073,1.1,0.417,1.36c0.15,0.079,0.312,0.117,0.471,0.117   c0.36,0,0.709-0.194,0.89-0.534c2.138-4.03,2.162-9.302,2.162-9.524C73.943,75.15,73.493,74.7,72.938,74.699z"/>
</g>
</svg>