<svg xmlns="http://www.w3.org/2000/svg" xmlns:xlink="http://www.w3.org/1999/xlink" version="1.1" id="Layer_1" x="0px" y="0px" width="80.753px" height="100px" viewBox="0 0 80.753 100" enable-background="new 0 0 80.753 100" xml:space="preserve">
<g>
	<path d="M68.924,54.644c-0.449-1.735-1.697-3.806-5.082-3.806c-2.185,0-4.705,0.844-6.929,1.588   c-1.619,0.541-3.149,1.053-4.033,1.053c-0.001,0-0.001,0-0.001,0c-0.182,0-0.276-0.022-0.317-0.036   c-0.001,0-0.139-0.072-0.296-0.49c-1.214-3.23,0.789-14.57,3.402-19.26c1.113-1.999,4.339-3.474,7.457-4.901   c3.994-1.826,8.122-3.714,8.938-7.133c0.887-3.722-8.583-13.996-11.733-17.285C59.022,1.37,56.35,0,54.381,0   c-1.986,0-3.389,1.244-3.57,3.169c-0.362,3.802,4.287,6.045,5.442,6.542c3.427,4.038,7.201,8.898,7.425,9.764   c0.012,2.359-8.662,3.259-12.366,3.644c-1.101,0.114-2.057,0.214-2.758,0.319c-0.165,0.025-0.341,0.048-0.509,0.073   c0.466-0.518,0.88-1.116,1.219-1.804c0.966-1.962,1.25-4.368,0.801-6.774c-0.864-4.618-4.143-7.97-7.797-7.97   c-0.354,0-0.711,0.034-1.059,0.099c-3.934,0.734-6.364,5.462-5.417,10.539c0.564,3.011,2.159,5.475,4.21,6.831   c-13.441,1.24-30.238,1.676-32.186,1.723c-1.243-0.432-2.479-0.66-3.585-0.66c-1.767,0-3.108,0.587-3.777,1.652   c-0.456,0.726-0.799,2.003,0.15,3.969c0.508,1.054,1.677,2.31,4.356,2.31c1.59,0,3.096-0.452,3.537-0.596   c0.684-0.064,4.417-0.393,8.83-0.393c8.835,0,14.614,1.286,16.272,3.619c2.571,3.619-0.441,33.595-6.134,52.612   c-0.452,1.508-2.784,3.237-4.659,4.626c-2.346,1.739-4.041,2.995-3.779,4.538c0.213,1.262,1.649,1.712,2.121,1.858   c0.657,0.205,1.345,0.31,2.047,0.31c2.265,0,4.319-1.047,6.133-1.97c1.071-0.546,2.084-1.062,2.877-1.204   c2.592-0.471,2.726-2.07,2.866-3.764c0.089-1.078,0.2-2.417,0.843-4.16c0.204-0.552,0.461-1.666,0.851-3.352   c1.271-5.497,4.245-18.368,8.623-20.67c3.654-1.92,10.282-4.777,13.564-4.777c0.448,0,1.22,0.057,1.355,0.438   c0.519,1.457-1.43,9.608-3.622,16.683c-0.243,0.477-1.032,2.271-0.32,4.366c0.691,2.033,2.536,3.671,5.483,4.867   c1.951,0.79,3.456,1.175,4.603,1.175c1.837,0,2.408-1.006,2.586-1.604c0.657-2.225-2.211-5.774-4.475-7.241   c-0.911-0.59,0.926-6.691,1.913-9.969C68.094,63.447,69.766,57.893,68.924,54.644z M37.777,17.229   c-0.744-3.982,0.962-7.653,3.802-8.183c0.228-0.042,0.459-0.064,0.688-0.064c2.64,0,5.138,2.718,5.812,6.321   c0.37,1.98,0.147,3.938-0.626,5.512c-0.727,1.475-1.854,2.423-3.175,2.669c-0.226,0.042-0.457,0.063-0.688,0.063   C40.951,23.548,38.452,20.831,37.777,17.229z M63.465,80.48c2.167,1.406,3.875,4.168,3.636,4.976   c-0.027,0.092-0.3,0.157-0.65,0.157c-0.597,0-1.748-0.178-3.842-1.026c-2.364-0.96-3.818-2.176-4.322-3.618   c-0.528-1.514,0.18-2.797,0.205-2.843c0.04-0.067,0.071-0.138,0.094-0.211c0.782-2.518,4.632-15.223,3.625-18.052   c-0.29-0.811-1.09-1.779-3.258-1.779c-4.915,0-14.114,4.806-14.503,5.011c-5.198,2.731-8.095,15.267-9.652,22.002   c-0.332,1.435-0.618,2.674-0.777,3.106c-0.738,2.001-0.867,3.556-0.961,4.691c-0.135,1.619-0.146,1.751-1.214,1.944   c-1.085,0.197-2.226,0.777-3.433,1.393c-1.611,0.82-3.437,1.75-5.217,1.75c-0.504,0-0.976-0.071-1.444-0.217   c-0.396-0.125-0.598-0.236-0.693-0.302c0.283-0.569,1.875-1.75,2.951-2.547c2.226-1.648,4.748-3.519,5.391-5.669   c5.325-17.787,9.318-49.473,5.847-54.36c-2.107-2.966-8.136-4.469-17.918-4.469c-4.964,0-9.102,0.409-9.144,0.414   c-0.08,0.008-0.161,0.026-0.237,0.053c-0.015,0.005-1.492,0.522-2.986,0.522c-1.975,0-2.399-0.88-2.539-1.169   c-0.428-0.886-0.52-1.602-0.258-2.018c0.533-0.847,2.872-0.93,5.146-0.104c0.118,0.042,0.24,0.053,0.367,0.061   c0.269-0.006,26.987-0.62,41.177-2.743c0.677-0.101,1.602-0.196,2.667-0.307c5.991-0.621,14.196-1.473,14.176-5.661   c-0.007-1.474-4.389-6.93-8.063-11.248c-0.109-0.128-0.248-0.227-0.406-0.288c-0.046-0.019-4.664-1.875-4.407-4.57   c0.105-1.109,0.908-1.341,1.562-1.341c1.354,0,3.232,1.032,4.156,3.299c0.048,0.118,0.118,0.226,0.207,0.318   c5.804,6.04,11.795,13.704,11.354,15.553c-0.586,2.461-4.261,4.141-7.813,5.766c-3.414,1.562-6.945,3.177-8.382,5.754   c-2.708,4.861-5.063,16.966-3.514,20.989c0.335,0.87,0.848,1.427,1.523,1.656c0.285,0.097,0.601,0.144,0.966,0.144   c1.213,0,2.816-0.537,4.674-1.158c2.078-0.694,4.434-1.483,6.289-1.483c1.775,0,2.711,0.687,3.128,2.294   c0.7,2.701-0.961,8.219-2.427,13.086C62.46,75.152,61.383,79.131,63.465,80.48z"/>
	<path d="M65.332,45.314c-0.558,0.016-0.994,0.478-0.98,1.034s0.48,1.004,1.032,0.984c0.052,0.003,3.212-0.037,5.015,2.103   c1.271,1.511,1.62,3.795,1.036,6.79c-0.106,0.547,0.25,1.077,0.798,1.184c0.064,0.013,0.13,0.019,0.193,0.019   c0.474,0,0.896-0.334,0.99-0.816c0.709-3.634,0.209-6.49-1.487-8.492C69.48,45.23,65.484,45.305,65.332,45.314z"/>
	<path d="M71.393,41.818c-0.537-0.151-1.09,0.162-1.241,0.697c-0.152,0.535,0.159,1.093,0.694,1.246   c0.232,0.067,5.692,1.699,4.627,7.191c-0.107,0.547,0.251,1.077,0.798,1.183c0.065,0.014,0.129,0.02,0.193,0.02   c0.475,0,0.896-0.336,0.989-0.817C78.592,45.47,73.987,42.545,71.393,41.818z"/>
	<path d="M65.359,4.937h7.358c0.558,0,1.01-0.452,1.01-1.009s-0.452-1.009-1.01-1.009h-7.358c-0.559,0-1.01,0.452-1.01,1.009   S64.801,4.937,65.359,4.937z"/>
	<path d="M68.028,7.973c0,0.558,0.452,1.01,1.01,1.01h7.586c0.558,0,1.009-0.452,1.009-1.01c0-0.557-0.451-1.009-1.009-1.009h-7.586   C68.48,6.963,68.028,7.416,68.028,7.973z"/>
	<path d="M79.743,12.002h-7.025c-0.558,0-1.009,0.452-1.009,1.01c0,0.557,0.451,1.009,1.009,1.009h7.025   c0.559,0,1.01-0.452,1.01-1.009C80.753,12.455,80.302,12.002,79.743,12.002z"/>
</g>
</svg>