<svg xmlns="http://www.w3.org/2000/svg" xmlns:xlink="http://www.w3.org/1999/xlink" version="1.1" id="Layer_1" x="0px" y="0px" width="54.396px" height="100px" viewBox="0 0 54.396 100" enable-background="new 0 0 54.396 100" xml:space="preserve">
<g>
	<path d="M45.673,15.212c0.336-0.937,1.023-3.354-0.076-5.012c-0.448-0.677-1.379-1.483-3.26-1.483l-0.159,0.002   c-1.686,0.039-3,1.221-3.433,3.088c-0.35,1.513-0.068,3.448,1.069,4.417c0.366,3.108,1.021,10.29,0.352,12.522   c-0.985,3.286-5.799,3.64-7.823,3.64c-0.242,0-0.483-0.004-0.722-0.014c-0.901-0.033-2.004-0.109-3.208-0.26   c2.073-1.357,3.642-3.922,4.056-7.002c0.313-2.333-0.078-4.629-1.103-6.466c-1.077-1.931-2.719-3.135-4.623-3.391   c-3.877-0.519-7.465,3.097-8.125,7.997c-0.301,2.244,0.075,4.379,0.928,6.092c-0.591-0.36-1.154-0.758-1.671-1.207   c-2.768-2.398-4.987-7.013-3.909-10.583c0.98-3.244,4.322-7.615,5.248-8.787c2.625-0.451,5.098-2.629,5.414-4.851   c0.218-1.53-0.586-2.779-2.206-3.426C21.612,0.164,20.829,0,20.095,0c-2.727,0-3.943,2.147-4.294,2.927   c-1.464,1.269-10.513,9.365-10.455,15.57c0.062,6.454,2.25,10.146,4.009,13.113c1.265,2.134,2.178,3.676,1.943,5.571   c-0.149,1.199-0.261,3.002-0.389,5.091c-0.231,3.739-0.519,8.393-1.16,11.596c-1.201,6,0.292,9.958,3.266,17.842l0.316,0.842   c3.019,8.013-2.666,17.691-2.738,17.812c-0.051,0.09-1.225,2.229-0.334,4.549c0.674,1.756,2.302,3.081,4.837,3.938   c2.288,0.773,3.979,1.149,5.17,1.149c1.561,0,2.162-0.681,2.393-1.252c0.718-1.78-1.742-4.654-3.281-6.217   c6.573-13.75,5.584-17.069,3.006-25.722l-0.247-0.829c-0.296-0.999-0.453-1.727-0.532-2.245c0.076,0.105,0.158,0.222,0.245,0.353   c3.595,5.393,7.496,11.462,8.269,15.243c1.334,6.523,0.009,14.157-0.007,14.243c-0.236,1.411,0.229,4.335,3.684,5.293   c1.499,0.416,3.167,0.635,4.821,0.635c1.058,0,4.574-0.116,5.498-1.627c0.288-0.471,0.308-1.026,0.055-1.521   c-0.723-1.413-4.021-3.046-5.765-3.832c0.747-4.789,1.816-17.021-0.482-21.665c-2.729-5.517-4.641-10.054-5.383-12.776   c-1.229-4.512-1.978-11.439-0.04-16.109c0.683-1.645,2.853-2.227,5.365-2.902c1.898-0.509,4.051-1.087,5.82-2.264   C48.624,33.519,49.292,26.254,45.673,15.212z M20.583,23.515c0.477-3.549,2.859-6.33,5.423-6.33c0.158,0,0.316,0.011,0.476,0.032   c1.271,0.17,2.392,1.02,3.157,2.392c0.818,1.466,1.127,3.327,0.869,5.239c-0.505,3.767-3.155,6.666-5.896,6.297   C21.874,30.777,20.067,27.354,20.583,23.515z M42.589,35.156c-1.5,0.998-3.399,1.507-5.237,2c-2.765,0.742-5.624,1.51-6.681,4.056   c-2.13,5.132-1.354,12.574-0.041,17.388c0.992,3.643,3.549,9.153,5.519,13.134c2.064,4.173,0.964,16.862,0.178,21.208   c-0.082,0.455,0.161,0.906,0.587,1.087c2.091,0.892,4.494,2.191,5.272,2.95c-0.53,0.245-1.76,0.543-3.568,0.543   c-1.479,0-2.962-0.194-4.292-0.564c-2.535-0.702-2.294-2.825-2.262-3.048c0.059-0.325,1.407-8.074-0.005-14.976   c-0.844-4.131-4.861-10.396-8.561-15.945c-0.956-1.433-1.728-2.072-2.504-2.072c-0.422,0-0.812,0.198-1.068,0.543   c-0.234,0.313-0.855,1.145,0.314,5.083l0.248,0.833c2.526,8.479,3.377,11.335-3.199,24.931c-0.186,0.386-0.103,0.847,0.205,1.144   c1.779,1.716,3.315,3.804,3.329,4.504c-0.247,0.085-1.336,0.291-5.091-0.979c-1.94-0.656-3.157-1.583-3.616-2.755   c-0.562-1.435,0.193-2.863,0.192-2.863c0.256-0.429,6.237-10.587,2.878-19.503l-0.317-0.842   c-2.929-7.766-4.266-11.311-3.176-16.754c0.668-3.336,0.96-8.064,1.194-11.864c0.127-2.055,0.237-3.83,0.378-4.968   c0.319-2.567-0.851-4.54-2.205-6.825C9.421,27.838,7.383,24.4,7.327,18.479C7.282,13.764,14.485,6.631,17.264,4.28   c0.136-0.115,0.238-0.265,0.296-0.432c0.007-0.019,0.668-1.868,2.535-1.868c0.48,0,1.016,0.117,1.592,0.348   c1.104,0.441,1.015,1.072,0.981,1.309c-0.185,1.294-2.044,3.019-4.076,3.217c-0.261,0.026-0.502,0.154-0.668,0.357   c-0.188,0.228-4.602,5.63-5.852,9.77c-1.36,4.502,1.307,9.879,4.507,12.652c4.149,3.596,10.43,4.551,14.968,4.72   c0.263,0.009,0.528,0.014,0.795,0.014c5.215,0,8.757-1.841,9.72-5.051c0.949-3.169-0.202-12.698-0.336-13.774   c-0.041-0.324-0.238-0.607-0.527-0.757c-0.458-0.237-0.787-1.395-0.525-2.531c0.133-0.57,0.509-1.531,1.549-1.555l0.114-0.001   c1.212,0,1.511,0.448,1.608,0.596c0.618,0.927,0.021,2.895-0.236,3.511c-0.093,0.221-0.103,0.469-0.025,0.697   C47.109,25.78,46.741,32.393,42.589,35.156z"/>
	<path d="M4.369,23.704c-0.469-0.278-1.077-0.126-1.357,0.342c-0.157,0.263-3.832,6.498-2.843,12.308   c0.083,0.482,0.501,0.824,0.975,0.824c0.055,0,0.111-0.004,0.167-0.014c0.539-0.092,0.901-0.603,0.81-1.142   c-0.865-5.082,2.557-10.902,2.591-10.96C4.992,24.591,4.838,23.984,4.369,23.704z"/>
	<path d="M7.301,31.357c0.124-0.532-0.208-1.064-0.74-1.188c-0.536-0.127-1.065,0.208-1.188,0.74   c-0.053,0.229-1.294,5.665,0.048,8.942c0.157,0.384,0.526,0.616,0.917,0.616c0.125,0,0.252-0.024,0.375-0.075   c0.506-0.207,0.748-0.785,0.541-1.291C6.151,36.409,7.29,31.407,7.301,31.357z"/>
	<path d="M40.219,50.516c0.163,0.102,0.345,0.15,0.524,0.15c0.329,0,0.652-0.165,0.84-0.465c1.349-2.157,0.816-8.32,0.696-9.533   c-0.054-0.544-0.545-0.941-1.083-0.888c-0.544,0.054-0.941,0.539-0.888,1.083c0.271,2.738,0.326,7.12-0.404,8.289   C39.614,49.616,39.756,50.226,40.219,50.516z"/>
	<path d="M46.488,36.937c-0.474,0.272-0.638,0.878-0.364,1.352c0.02,0.035,1.948,3.476-0.039,7.739   c-0.231,0.496-0.017,1.084,0.479,1.315c0.136,0.063,0.277,0.093,0.418,0.093c0.373,0,0.729-0.211,0.898-0.572   c2.417-5.186,0.062-9.387-0.039-9.563C47.567,36.828,46.963,36.664,46.488,36.937z"/>
	<path d="M51.05,24.14c-0.229-0.497-0.816-0.714-1.312-0.486c-0.497,0.229-0.716,0.816-0.487,1.313   c0.052,0.112,5.114,11.291,2.326,18.577c-0.196,0.51,0.06,1.083,0.57,1.279c0.116,0.044,0.236,0.065,0.354,0.065   c0.397,0,0.773-0.242,0.924-0.637C56.51,36.195,51.274,24.628,51.05,24.14z"/>
</g>
</svg>