<svg xmlns="http://www.w3.org/2000/svg" xmlns:xlink="http://www.w3.org/1999/xlink" version="1.1" id="Layer_1" x="0px" y="0px" width="100px" height="100px" viewBox="0 0 100 100" enable-background="new 0 0 100 100" xml:space="preserve">
<path d="M100,90.277c-1.736,0.695-3.473,1.39-5.556,1.39c-4.167,0-6.944-2.778-11.111-2.778c-4.166,0-6.944,2.778-11.11,2.778  c-4.167,0-6.945-2.778-11.111-2.778c-4.167,0-6.944,2.778-11.111,2.778c-4.167,0-6.944-2.778-11.111-2.778  c-4.167,0-6.944,2.778-11.111,2.778s-6.944-2.778-11.111-2.778c-4.167,0-6.944,2.778-11.111,2.778c-2.083,0-3.819-0.692-5.556-1.387  v8.334C1.736,99.309,3.472,100,5.556,100c4.167,0,6.944-2.777,11.111-2.777c4.167,0,6.945,2.777,11.111,2.777  s6.944-2.777,11.111-2.777C43.056,97.223,45.833,100,50,100c4.167,0,6.944-2.777,11.111-2.777c4.166,0,6.944,2.777,11.111,2.777  c4.166,0,6.944-2.777,11.11-2.777c4.167,0,6.944,2.777,11.111,2.777c2.083,0,3.819-0.694,5.556-1.389V90.277z"/>
<path d="M90.277,12.5l-8.333,13.889l-9.722,4.167l-2.778,23.611l-1.389,13.889L50,73.611l-18.056-5.556l-4.167-26.389l-6.944-5.555  l-6.945-15.278L0,18.056v63.892c1.736,0.694,3.472,1.386,5.556,1.386c4.167,0,6.944-2.777,11.111-2.777  c4.167,0,6.945,2.777,11.111,2.777s6.944-2.777,11.111-2.777c4.167,0,6.945,2.777,11.111,2.777c4.167,0,6.944-2.777,11.111-2.777  c4.166,0,6.944,2.777,11.111,2.777c4.166,0,6.944-2.777,11.11-2.777c4.167,0,6.944,2.777,11.111,2.777  c2.083,0,3.819-0.694,5.556-1.389V12.5H90.277z"/>
<path d="M61.868,34.614l4.508-4.271l-5.959-2.151V21.59l1.451,0.523l4.508-4.271l-5.959-2.151V0H39.583v8.172l-5.245-1.894  l0.711,6.17l4.534,1.635v6.589l-5.245-1.894l0.711,6.17l4.534,1.635v6.589l-5.245-1.894l0.711,6.17l4.534,1.635v6.613l-5.245-1.894  l0.711,6.17l4.534,1.635v7.505L50,69.444l10.414-10.33l1.454,0.523l4.508-4.271l-5.959-2.151V46.59l1.451,0.523l4.508-4.271  l-5.959-2.151V34.09L61.868,34.614z M43.75,4.167h12.5v10.021l-12.5-4.511V4.167z M43.75,15.584l12.5,4.505v6.598l-12.5-4.511  V15.584z M50,63.553l-6.25-6.166v-4.278l12.332,4.443L50,63.553z M56.25,51.712l-12.5-4.511v-6.616l12.5,4.505V51.712z   M56.25,39.188l-12.5-4.511v-6.592l12.5,4.505V39.188z"/>
</svg>