<svg xmlns="http://www.w3.org/2000/svg" xmlns:xlink="http://www.w3.org/1999/xlink" version="1.1" id="Layer_1" x="0px" y="0px" width="100px" height="97.221px" viewBox="0 0 100 97.221" enable-background="new 0 0 100 97.221" xml:space="preserve">
<path d="M94.444,15.286H86.11H36.111C6.945-4.158,0,20.841,0,20.841s3.028,2.258,4.167,2.779c1.188,0.542,2.778,1.389,5.555,1.389  c0.223,0,15.812,0,33.557-0.001l16.443,15.27h8.334l-8.223-15.27c12.35,0,23.789,0,29.924,0l4.688,12.5H100V20.841  C100,16.675,98.61,15.286,94.444,15.286z"/>
<polygon points="59.931,12.508 66.666,0 58.333,0 44.863,12.508 "/>
<rect x="84.722" y="81.944" width="15.278" height="15.277"/>
<path d="M77.777,84.027c-1.15,0-2.083-0.933-2.083-2.083c0-4.978,4.05-9.027,9.027-9.027c1.15,0,2.084,0.933,2.084,2.083  s-0.934,2.083-2.084,2.083c-2.68,0-4.861,2.182-4.861,4.861C79.86,83.094,78.928,84.027,77.777,84.027z"/>
<path d="M70.139,80.555c-1.15,0-2.083-0.934-2.083-2.083c0-7.275,5.919-13.194,13.194-13.194c1.149,0,2.083,0.933,2.083,2.083  s-0.934,2.083-2.083,2.083c-4.979,0-9.028,4.05-9.028,9.028C72.222,79.622,71.289,80.555,70.139,80.555z"/>
<path d="M62.5,77.083c-1.15,0-2.084-0.933-2.084-2.083c0-9.573,7.788-17.361,17.361-17.361c1.15,0,2.083,0.934,2.083,2.084  c0,1.149-0.933,2.083-2.083,2.083c-7.275,0-13.194,5.919-13.194,13.194C64.583,76.15,63.65,77.083,62.5,77.083z"/>
<polygon points="77.777,27.786 77.777,37.508 83.333,37.508 86.979,27.786 "/>
</svg>