<svg xmlns="http://www.w3.org/2000/svg" xmlns:xlink="http://www.w3.org/1999/xlink" version="1.1" id="Layer_1" x="0px" y="0px" width="100px" height="91.667px" viewBox="0 0 100 91.667" enable-background="new 0 0 100 91.667" xml:space="preserve">
<path d="M20.833,1.389"/>
<path d="M30.343,30.556l-4.166-25h-3.955V1.389C22.222,0.622,21.601,0,20.833,0s-1.389,0.622-1.389,1.389v4.167H15.48l-3.948,25  H4.167v8.833l6.774,0.846l5.052-1.263l0.332-0.083h0.342h2.083v-8.333h-4.173l6.257-5.631l6.257,5.631h-4.174v8.333h6.25h0.451  l0.427,0.142l3.569,1.19l3.886-0.486v-9.18H30.343z M24.237,10.815l0.424,2.542l-1.694-1.453L24.237,10.815z M22.867,8.333  l-2.033,1.743L18.8,8.333H22.867z M17.458,10.84l1.242,1.065l-1.631,1.398L17.458,10.84z M14.994,26.443l0.937-5.933l2.827,2.544  L14.994,26.443z M16.591,17.37l4.242-3.635l4.242,3.635l-4.242,3.818L16.591,17.37z M22.909,23.055l2.929-2.635l1.033,6.203  L22.909,23.055z"/>
<path d="M93.056,41.667l-9.723,2.778H69.444h-2.777l-11.111-2.778H44.444l-11.111,1.389l-4.167-1.389h-6.25v23.611  c0,4.978,4.05,9.028,9.028,9.028h1.508l6.25-6.25h3.928l-6.249,6.25h12.738l6.25-6.25h3.928l-6.25,6.25h12.739l6.25-6.25h3.928  l-6.25,6.25h11.057v4.166H70.714l6.25,6.25h-3.928l-6.25-6.25H54.047l6.25,6.25h-3.928l-6.25-6.25H37.381l6.25,6.25h-3.928  l-6.25-6.25h-1.509c-7.275,0-13.194-5.919-13.194-13.194V41.667h-2.083l-5.555,1.389L0,41.667v50h65.706l-0.429-0.145l0.895-2.633  l2.63,0.894l-0.639,1.884H100v-50H93.056z M30.556,65.278c-0.767,0-1.389-0.621-1.389-1.389s0.622-1.389,1.389-1.389  s1.389,0.621,1.389,1.389S31.323,65.278,30.556,65.278z M53.288,50.369l-0.879-2.637l2.637-0.877l0.877,2.635L53.288,50.369z   M69.293,59.726l-2.632-0.893l0.893-2.632l2.631,0.894L69.293,59.726z M6.944,54.167c0-0.768,0.622-1.389,1.389-1.389  s1.389,0.621,1.389,1.389s-0.622,1.39-1.389,1.39S6.944,54.934,6.944,54.167z M8.476,77.778l-0.878-2.637l2.635-0.878l0.878,2.636  L8.476,77.778z M15.278,88.889c-0.767,0-1.389-0.621-1.389-1.389s0.622-1.39,1.389-1.39s1.389,0.622,1.389,1.39  S16.045,88.889,15.278,88.889z M94.298,52.778l-2.631-0.893l0.894-2.633l2.63,0.895L94.298,52.778z"/>
</svg>