<?xml version="1.0" encoding="utf-8"?>
<!-- Generator: Adobe Illustrator 16.0.0, SVG Export Plug-In . SVG Version: 6.00 Build 0)  -->
<!DOCTYPE svg PUBLIC "-//W3C//DTD SVG 1.1//EN" "http://www.w3.org/Graphics/SVG/1.1/DTD/svg11.dtd">
<svg version="1.1" id="Layer_1" xmlns="http://www.w3.org/2000/svg" xmlns:xlink="http://www.w3.org/1999/xlink" x="0px" y="0px"
	 width="100px" height="86.484px" viewBox="0 0 100 86.484" enable-background="new 0 0 100 86.484" xml:space="preserve">
<path fill="#010101" d="M95.929,21.294H66.676c-2.274,0-4.174,2.191-4.174,4.468v1.9h2.688v24.873c0,1.652,1.392,2.991,3.042,2.991
	c1.652,0,3.043-1.339,3.043-2.991V31.624h0.707v50.864c0,2.207,1.758,3.996,3.962,3.996s3.962-1.789,3.962-3.996V56.104h2.83v26.384
	c0,2.207,1.759,3.996,3.963,3.996c2.203,0,3.962-1.789,3.962-3.996V31.624h0.707v20.911c0,1.652,1.32,2.991,2.972,2.991
	c1.65,0,2.972-1.339,2.972-2.991V27.662H100v-1.9C100,23.486,98.205,21.294,95.929,21.294z M88.874,30.755
	c0,2.533-2.493,3.306-2.493,3.306s-2.496-0.423-2.496-3.306c0-1.197,0-1.697,0-1.697s0.678,0.242,1.195,0.242
	c0.519,0,1.301-1.245,1.301-1.245s0.772,1.245,1.407,1.245c0.664,0,1.086-0.242,1.086-0.242S88.874,29.777,88.874,30.755z"/>
<path fill="#010101" d="M89.396,6.449c0-2.567-3.455-6.449-8.66-6.449c-4.47,0-6.872,2.99-7.877,5.241
	c4.114,1.757,10.805,7.914,11.133,8.216l0.241,0.225l-0.326,0.048l-2.08,0.3l0.789,4.33l9.354-3.346
	C91.453,14.224,89.396,10.808,89.396,6.449z"/>
<path fill="#010101" d="M70.037,5.461c-0.442,0.602-1.111,3.176-0.832,5.409c0.305,2.435,1.18,4.059,1.403,4.438l12.775-1.843
	c-1.496-1.354-9.408-8.375-12.477-8.375C70.506,5.089,70.221,5.211,70.037,5.461z"/>
<path fill="#010101" d="M82.27,19.01l-0.9-4.938l-7.621,1.1c0.873,3.29,3.87,5.713,7.434,5.713c2.86,0,5.351-1.56,6.678-3.874
	L82.27,19.01z"/>
<path fill="#010101" d="M41.568,6.449c0-2.567-3.454-6.449-8.66-6.449c-4.469,0-6.871,2.99-7.876,5.241
	c4.113,1.757,10.803,7.914,11.133,8.216l0.241,0.225l-0.326,0.048l-2.08,0.3l0.79,4.33l9.353-3.346
	C43.624,14.224,41.568,10.808,41.568,6.449z"/>
<path fill="#010101" d="M22.208,5.461c-0.443,0.602-1.112,3.176-0.832,5.409c0.304,2.435,1.18,4.059,1.403,4.438l12.777-1.843
	c-1.498-1.354-9.409-8.375-12.479-8.375C22.677,5.089,22.392,5.211,22.208,5.461z"/>
<path fill="#010101" d="M34.441,19.01l-0.9-4.938l-7.622,1.1c0.874,3.29,3.87,5.713,7.434,5.713c2.859,0,5.352-1.56,6.677-3.874
	L34.441,19.01z"/>
<path fill="#010101" d="M23.21,18.642H3.372C1.512,18.642,0,20.154,0,22.013v41.203c0,1.86,1.512,3.371,3.372,3.371H23.21
	c1.86,0,3.371-1.511,3.371-3.371V22.013C26.582,20.154,25.07,18.642,23.21,18.642z"/>
<path fill="#010101" d="M48.101,21.294H27.188c0.045,0.238,0.08,0.483,0.08,0.734v41.203c0,1.895-1.339,3.482-3.113,3.886v15.371
	c0,2.207,1.758,3.996,3.961,3.996c2.205,0,3.963-1.789,3.963-3.996V56.104h2.83v26.384c0,2.207,1.759,3.996,3.962,3.996
	c2.205,0,3.962-1.789,3.962-3.996V31.624h0.708v20.911c0,1.652,1.32,2.991,2.972,2.991c1.65,0,2.972-1.339,2.972-2.991V27.662h2.688
	v-1.9C52.172,23.486,50.376,21.294,48.101,21.294z M41.045,30.755c0,2.533-2.493,3.306-2.493,3.306s-2.496-0.423-2.496-3.306
	c0-1.197,0-1.697,0-1.697s0.678,0.242,1.196,0.242c0.519,0,1.3-1.245,1.3-1.245s0.773,1.245,1.409,1.245
	c0.663,0,1.084-0.242,1.084-0.242S41.045,29.777,41.045,30.755z"/>
</svg>
