<svg xmlns="http://www.w3.org/2000/svg" xmlns:xlink="http://www.w3.org/1999/xlink" version="1.1" id="Layer_1" x="0px" y="0px" width="100px" height="85.0515463918px" viewBox="0 0 194.265 165.232" enable-background="new 0 0 194.265 165.232" xml:space="preserve">
<path d="M190.681,157.338c0,1.193-0.967,2.16-2.16,2.16H6.103c-1.193,0-2.16-0.967-2.16-2.16v-11.451c0-1.193,0.967-2.16,2.16-2.16  h182.418c1.193,0,2.16,0.967,2.16,2.16V157.338z"/>
<path d="M176.702,144.793c0,1.193-0.967,2.16-2.16,2.16H17.931c-1.193,0-2.16-0.967-2.16-2.16v-10.375c0-1.193,0.967-2.16,2.16-2.16  h156.611c1.193,0,2.16,0.967,2.16,2.16V144.793z"/>
<path d="M35.351,64.173c0-1.074-0.967-1.944-2.16-1.944h-7.866c-1.193,0-2.16,0.871-2.16,1.944v61.918  c0,1.074,0.967,1.944,2.16,1.944h7.866c1.193,0,2.16-0.87,2.16-1.944V64.173z"/>
<path d="M66.451,64.173c0-1.074-0.967-1.944-2.16-1.944h-7.866c-1.193,0-2.16,0.871-2.16,1.944v61.918  c0,1.074,0.967,1.944,2.16,1.944h7.866c1.193,0,2.16-0.87,2.16-1.944V64.173z"/>
<path d="M134.759,64.173c0-1.074-0.967-1.944-2.16-1.944h-7.865c-1.193,0-2.16,0.871-2.16,1.944v61.918  c0,1.074,0.967,1.944,2.16,1.944h7.865c1.193,0,2.16-0.87,2.16-1.944V64.173z"/>
<path d="M166.017,64.173c0-1.074-0.967-1.944-2.16-1.944h-7.865c-1.193,0-2.16,0.871-2.16,1.944v61.918  c0,1.074,0.967,1.944,2.16,1.944h7.865c1.193,0,2.16-0.87,2.16-1.944V64.173z"/>
<path d="M175.419,54.746c0,0.597-0.242,1.137-0.633,1.527c-0.391,0.391-0.931,0.633-1.527,0.633H94.953H16.647  c-0.597,0-1.137-0.242-1.527-0.633c-0.391-0.391-0.633-0.931-0.633-1.527v-5.188v-5.188c0-0.597,0.242-1.137,0.633-1.527  c0.391-0.391,0.931-0.633,1.527-0.633h78.306h78.306c0.597,0,1.137,0.242,1.527,0.633c0.391,0.391,0.633,0.931,0.633,1.527v5.188  V54.746z"/>
<polygon points="22.858,37.251 97.119,5.096 171.381,37.252 "/>
<g>
	<path d="M94.757,66.354c0-0.305,0.159-0.541,0.477-0.706c0.317-0.164,0.664-0.247,1.04-0.247c0.424,0,0.794,0.077,1.111,0.229   c0.317,0.153,0.477,0.394,0.477,0.723v3.915c0.894,0.047,1.711,0.165,2.451,0.353c0.741,0.188,1.558,0.435,2.451,0.741   c0.541,0.188,0.999,0.33,1.376,0.423c0.376,0.094,0.717,0.141,1.022,0.141c0.259,0,0.477-0.036,0.653-0.106   c0.176-0.071,0.347-0.247,0.511-0.529c0.094-0.211,0.247-0.353,0.459-0.423c0.212-0.07,0.429-0.1,0.652-0.088   c0.224,0.012,0.411,0.077,0.564,0.194c0.152,0.118,0.217,0.271,0.194,0.458c-0.188,0.824-0.324,1.646-0.406,2.469   c-0.082,0.823-0.123,1.729-0.123,2.716c0,0.612,0.018,1.188,0.053,1.729c0.035,0.541,0.076,1.076,0.123,1.605   c0.047,0.529,0.106,1.076,0.177,1.64c0.07,0.564,0.129,1.176,0.177,1.834c0.022,0.165-0.06,0.3-0.247,0.406   c-0.188,0.105-0.395,0.171-0.617,0.194c-0.224,0.024-0.441-0.005-0.653-0.088c-0.211-0.082-0.329-0.252-0.353-0.511   c-0.399-1.857-0.841-3.409-1.322-4.656c-0.482-1.246-1.047-2.258-1.693-3.034s-1.417-1.346-2.311-1.71   c-0.894-0.364-1.939-0.605-3.139-0.723v17.424c1.528,0.8,3.033,1.646,4.515,2.54c1.481,0.894,2.804,1.94,3.968,3.139   c1.164,1.2,2.099,2.593,2.805,4.18c0.705,1.587,1.058,3.474,1.058,5.661c0,2.094-0.347,3.91-1.04,5.45   c-0.694,1.54-1.611,2.839-2.751,3.897c-1.142,1.058-2.458,1.882-3.951,2.469c-1.493,0.588-3.027,0.987-4.603,1.199v4.903   c0,0.353-0.165,0.611-0.494,0.775c-0.33,0.165-0.694,0.247-1.094,0.247c-0.376,0-0.723-0.082-1.04-0.247   c-0.317-0.164-0.477-0.423-0.477-0.775v-4.691c-0.611,0-1.264-0.053-1.957-0.159c-0.694-0.105-1.399-0.259-2.117-0.458   c-0.717-0.2-1.428-0.447-2.134-0.741c-0.706-0.293-1.364-0.64-1.975-1.04c-0.188-0.117-0.388-0.218-0.6-0.3   c-0.212-0.082-0.459-0.124-0.741-0.124c-0.259,0-0.564,0.142-0.917,0.424c-0.353,0.282-0.682,0.788-0.987,1.517   c-0.118,0.282-0.282,0.464-0.494,0.547c-0.211,0.082-0.429,0.105-0.652,0.07c-0.224-0.035-0.418-0.118-0.582-0.247   c-0.165-0.129-0.235-0.276-0.211-0.44c0.117-1.059,0.229-2.192,0.335-3.404c0.106-1.211,0.159-2.416,0.159-3.615   c0-1.223-0.035-2.439-0.106-3.65c-0.07-1.211-0.176-2.463-0.317-3.757c-0.047-0.282,0.029-0.517,0.229-0.705   c0.199-0.188,0.429-0.3,0.688-0.335s0.505,0,0.741,0.105c0.235,0.105,0.376,0.312,0.423,0.617c0.282,1.882,0.746,3.586,1.394,5.114   c0.646,1.529,1.458,2.846,2.434,3.951c0.976,1.105,2.086,1.975,3.333,2.609c1.246,0.636,2.598,0.988,4.056,1.059V96.793   l-0.423-0.211c-0.142-0.071-0.294-0.153-0.458-0.247c-1.411-0.729-2.822-1.481-4.233-2.257c-1.411-0.776-2.669-1.693-3.774-2.751   c-1.105-1.058-2.005-2.31-2.698-3.756c-0.694-1.446-1.041-3.192-1.041-5.238c0-2.022,0.347-3.75,1.041-5.185   c0.693-1.434,1.623-2.628,2.786-3.58c1.164-0.953,2.504-1.681,4.021-2.187c1.517-0.505,3.11-0.829,4.779-0.97V66.354z    M88.196,80.462c0,1.223,0.188,2.281,0.564,3.174c0.376,0.894,0.87,1.67,1.481,2.328c0.611,0.659,1.311,1.234,2.099,1.729   c0.788,0.494,1.593,0.952,2.416,1.375V73.302c-0.917,0.118-1.775,0.365-2.575,0.741c-0.799,0.376-1.493,0.864-2.081,1.464   s-1.053,1.311-1.393,2.134C88.367,78.464,88.196,79.404,88.196,80.462z M104.069,108.469c0-1.246-0.171-2.369-0.512-3.368   c-0.341-1-0.8-1.893-1.376-2.682c-0.576-0.787-1.24-1.499-1.992-2.133c-0.753-0.635-1.529-1.199-2.328-1.693v17.636   c0.869-0.212,1.681-0.529,2.434-0.952c0.752-0.424,1.411-0.964,1.976-1.623c0.564-0.658,1.005-1.422,1.322-2.292   S104.069,109.526,104.069,108.469z"/>
</g>
</svg>