<svg xmlns="http://www.w3.org/2000/svg" xmlns:xlink="http://www.w3.org/1999/xlink" version="1.1" x="0px" y="0px" width="100px" height="100px" viewBox="0 0 100 100" enable-background="new 0 0 100 100" xml:space="preserve">
<g id="Captions">
</g>
<g id="Your_Icon">
	<circle cx="52.887" cy="28.189" r="5.869"/>
	<path d="M55.008,15.067c0,1.937-1.569,3.505-3.505,3.505s-3.505-1.568-3.505-3.505c0-1.933,1.569-3.503,3.505-3.503   S55.008,13.135,55.008,15.067z"/>
	<circle cx="42.375" cy="6.92" r="7.252"/>
	<path d="M73.242,93.1L55,62.198V43.576c1-0.233,1-1.17,1-2.346v-0.979C56,38.9,55.866,38,54.516,38h-3.287h-4.182   h-3.288C42.409,38,42,38.9,42,40.252v0.979c0,1.176,0,2.112,1,2.346v18.622L24.898,93.1c-2.306,3.981-0.491,6.9,4.11,6.9h40.259   C73.868,100,75.545,97.081,73.242,93.1z"/>
</g>
</svg>
