<svg xmlns="http://www.w3.org/2000/svg" xmlns:xlink="http://www.w3.org/1999/xlink" version="1.1" x="0px" y="0px" width="100px" height="100px" viewBox="0 0 100 100" enable-background="new 0 0 100 100" xml:space="preserve">
<g id="Captions">
</g>
<g id="Your_Icon">
	<circle cx="59.771" cy="18.308" r="6.967"/>
	<path d="M80.928,50.765c-3.123,0-6.068,0.764-8.667,2.106l-2.804-4.248V42.42c1.608-0.09,2.889-1.41,2.889-3.042   c0-1.689-1.369-3.059-3.059-3.059h-9.429l-5.297-11.478c-0.205-0.445-0.511-0.807-0.869-1.094   c-0.107-0.112-0.216-0.224-0.334-0.329c-2.243-1.996-5.683-1.794-7.677,0.451L29.968,41.543c-1.83,2.059-1.807,5.117-0.06,7.15   c0.201,0.319,0.446,0.611,0.732,0.866l-2.469,3.54c-2.703-1.486-5.804-2.334-9.1-2.334c-10.447,0-18.947,8.5-18.947,18.948   c0,10.447,8.5,18.947,18.947,18.947c9.764,0,17.824-7.426,18.838-16.926l9.796-0.008v4.018c0,2.252,1.826,4.078,4.078,4.078   s4.078-1.826,4.078-4.078v-6.791l10.892-17.021l2.104,3.188c-4.198,3.479-6.877,8.729-6.877,14.594   c0,10.447,8.5,18.947,18.947,18.947s18.947-8.5,18.947-18.947C99.875,59.265,91.375,50.765,80.928,50.765z M51.769,33.392   l3.355,7.269c0.5,1.083,1.585,1.777,2.777,1.777h7.478v4.758H46.982l-5.638-2.079L51.769,33.392z M19.072,84.58   c-8.198,0-14.869-6.668-14.869-14.867c0-8.2,6.671-14.87,14.869-14.87c2.429,0,4.722,0.589,6.749,1.626l-8.422,12.076   c-0.435,0.623-0.486,1.438-0.135,2.111c0.352,0.672,1.048,1.096,1.808,1.096h0.002l14.725-0.014   C32.808,78.982,26.583,84.58,19.072,84.58z M33.797,67.66l-10.814,0.01l6.181-8.865C31.625,61.084,33.314,64.182,33.797,67.66z    M37.906,67.656c-0.526-4.855-2.897-9.166-6.395-12.218l2.904-4.164h0.051l13.239,4.882v11.492L37.906,67.656z M55.862,61.386   v-8.072c0-0.735-0.207-1.431-0.56-2.039h7.03L55.862,61.386z M80.928,84.58c-8.198,0-14.869-6.668-14.869-14.867   c0-4.445,1.962-8.437,5.062-11.164l8.104,12.287c0.392,0.594,1.042,0.916,1.704,0.916c0.386,0,0.775-0.109,1.121-0.338   c0.939-0.621,1.199-1.885,0.579-2.826l-8.11-12.291c1.942-0.932,4.114-1.454,6.408-1.454c8.198,0,14.869,6.67,14.869,14.87   C95.797,77.912,89.126,84.58,80.928,84.58z"/>
</g>
</svg>