<svg xmlns="http://www.w3.org/2000/svg" xmlns:xlink="http://www.w3.org/1999/xlink" version="1.1" x="0px" y="0px" width="100px" height="100px" viewBox="0 0 100 100" enable-background="new 0 0 100 100" xml:space="preserve">
<g id="Captions">
</g>
<g id="Your_Icon">
	<g>
		<polygon points="100,45.762 17.92,45.762 15.858,43.614 96.922,43.614   "/>
	</g>
	<g>
		<polygon points="19.057,45.795 0,45.795 0,39.844 2.729,36 16.164,36 19.057,39.844   "/>
	</g>
	<g>
		<path d="M99.917,47.719H0.258v33.392h3.559v-6.56c0-0.218,0.175-0.395,0.396-0.395h4.02c0.215,0,0.393,0.177,0.393,0.395v6.56    h4.15v-6.56c0-0.218,0.18-0.395,0.397-0.395h4.017c0.218,0,0.397,0.177,0.397,0.395v6.56h4.152v-6.56    c0-0.218,0.174-0.395,0.396-0.395h4.016c0.218,0,0.397,0.177,0.397,0.395v6.56h4.139v-6.56c0-0.218,0.176-0.395,0.393-0.395h4.02    c0.217,0,0.393,0.177,0.393,0.395v6.56h4.155v-6.56c0-0.218,0.176-0.395,0.393-0.395h4.02c0.216,0,0.394,0.177,0.394,0.395v6.56    h4.062v-6.56c0-0.218,0.174-0.395,0.393-0.395h4.02c0.216,0,0.394,0.177,0.394,0.395v6.56h4.151v-6.56    c0-0.218,0.179-0.395,0.396-0.395h4.02c0.218,0,0.393,0.177,0.393,0.395v6.56h4.155v-6.56c0-0.218,0.176-0.395,0.393-0.395h4.018    c0.219,0,0.396,0.177,0.396,0.395v6.56h4.14v-6.56c0-0.218,0.176-0.395,0.395-0.395h4.019c0.217,0,0.394,0.177,0.394,0.395v6.56    h4.154v-6.56c0-0.218,0.177-0.395,0.394-0.395h4.019c0.218,0,0.393,0.177,0.393,0.395v6.56h4.155v-6.56    c0-0.218,0.176-0.395,0.393-0.395h4.021c0.216,0,0.394,0.177,0.394,0.395v6.56h1.807V47.719z M8.626,67.482H3.817v-3.807    c0-0.126,0.175-0.227,0.396-0.227h4.02c0.215,0,0.393,0.101,0.393,0.227V67.482z M8.626,59.475H3.817v-3.806    c0-0.127,0.175-0.225,0.396-0.225h4.02c0.215,0,0.393,0.098,0.393,0.225V59.475z M17.587,67.482h-4.811v-3.807    c0-0.126,0.18-0.227,0.397-0.227h4.017c0.218,0,0.397,0.101,0.397,0.227V67.482z M17.587,59.475h-4.811v-3.806    c0-0.127,0.18-0.225,0.397-0.225h4.017c0.218,0,0.397,0.098,0.397,0.225V59.475z M26.548,67.482H21.74v-3.807    c0-0.126,0.174-0.227,0.396-0.227h4.016c0.218,0,0.397,0.101,0.397,0.227V67.482z M26.548,59.475H21.74v-3.806    c0-0.127,0.174-0.225,0.396-0.225h4.016c0.218,0,0.397,0.098,0.397,0.225V59.475z M35.492,67.482h-4.805v-3.807    c0-0.126,0.176-0.227,0.393-0.227h4.02c0.217,0,0.393,0.101,0.393,0.227V67.482z M35.492,59.475h-4.805v-3.806    c0-0.127,0.176-0.225,0.393-0.225h4.02c0.217,0,0.393,0.098,0.393,0.225V59.475z M44.454,67.482h-4.807v-3.807    c0-0.126,0.176-0.227,0.393-0.227h4.02c0.216,0,0.394,0.101,0.394,0.227V67.482z M44.454,59.475h-4.807v-3.806    c0-0.127,0.176-0.225,0.393-0.225h4.02c0.216,0,0.394,0.098,0.394,0.225V59.475z M53.322,67.482h-4.806v-3.807    c0-0.126,0.174-0.227,0.393-0.227h4.02c0.216,0,0.394,0.101,0.394,0.227V67.482z M53.322,59.475h-4.806v-3.806    c0-0.127,0.174-0.225,0.393-0.225h4.02c0.216,0,0.394,0.098,0.394,0.225V59.475z M62.281,67.482h-4.808v-3.807    c0-0.126,0.179-0.227,0.396-0.227h4.02c0.218,0,0.393,0.101,0.393,0.227V67.482z M62.281,59.475h-4.808v-3.806    c0-0.127,0.179-0.225,0.396-0.225h4.02c0.218,0,0.393,0.098,0.393,0.225V59.475z M71.243,67.482h-4.807v-3.807    c0-0.126,0.176-0.227,0.393-0.227h4.018c0.219,0,0.396,0.101,0.396,0.227V67.482z M71.243,59.475h-4.807v-3.806    c0-0.127,0.176-0.225,0.393-0.225h4.018c0.219,0,0.396,0.098,0.396,0.225V59.475z M80.189,67.482h-4.807v-3.807    c0-0.126,0.176-0.227,0.395-0.227h4.019c0.217,0,0.394,0.101,0.394,0.227V67.482z M80.189,59.475h-4.807v-3.806    c0-0.127,0.176-0.225,0.395-0.225h4.019c0.217,0,0.394,0.098,0.394,0.225V59.475z M89.148,67.482h-4.805v-3.807    c0-0.126,0.177-0.227,0.394-0.227h4.019c0.218,0,0.393,0.101,0.393,0.227V67.482z M89.148,59.475h-4.805v-3.806    c0-0.127,0.177-0.225,0.394-0.225h4.019c0.218,0,0.393,0.098,0.393,0.225V59.475z M98.11,67.482h-4.807v-3.807    c0-0.126,0.176-0.227,0.393-0.227h4.021c0.216,0,0.394,0.101,0.394,0.227V67.482z M98.11,59.475h-4.807v-3.806    c0-0.127,0.176-0.225,0.393-0.225h4.021c0.216,0,0.394,0.098,0.394,0.225V59.475z M98.11,52.507H88.84v-0.41    c0-1.142-0.928-2.071-2.068-2.071h-0.046c-1.143,0-2.071,0.929-2.071,2.071v0.41H52.82v-0.41c0-1.142-0.929-2.071-2.069-2.071    h-0.046c-1.142,0-2.071,0.929-2.071,2.071v0.41H17.278v-0.41c0-1.142-0.929-2.071-2.069-2.071h-0.046    c-1.142,0-2.069,0.929-2.069,2.071v0.41H3.424v-0.821h8.875c0.2-1.397,1.408-2.48,2.863-2.48h0.046    c1.456,0,2.661,1.083,2.865,2.48h29.77c0.199-1.397,1.407-2.48,2.862-2.48h0.046c1.454,0,2.661,1.083,2.862,2.48H83.86    c0.201-1.397,1.406-2.48,2.865-2.48h0.046c1.452,0,2.66,1.083,2.859,2.48h8.479V52.507z"/>
		<rect x="12.776" y="81.111" width="4.811" height="0.095"/>
		<rect x="3.817" y="81.111" width="4.809" height="0.095"/>
		<rect x="21.74" y="81.111" width="4.808" height="0.095"/>
		<rect x="39.647" y="81.111" width="4.807" height="0.095"/>
		<rect x="30.687" y="81.111" width="4.805" height="0.095"/>
		<rect x="57.474" y="81.111" width="4.808" height="0.095"/>
		<rect x="48.516" y="81.111" width="4.806" height="0.095"/>
		<rect x="66.437" y="81.111" width="4.807" height="0.095"/>
		<rect x="84.344" y="81.111" width="4.805" height="0.095"/>
		<rect x="75.383" y="81.111" width="4.807" height="0.095"/>
		<rect x="93.304" y="81.111" width="4.807" height="0.095"/>
	</g>
</g>
</svg>