<svg xmlns="http://www.w3.org/2000/svg" xmlns:xlink="http://www.w3.org/1999/xlink" version="1.1" id="Layer_1" x="0px" y="0px" width="100px" height="100px" viewBox="0 0 100 100" enable-background="new 0 0 100 100" xml:space="preserve">
<g id="Layer_1_1_" display="none">
</g>
<g id="Layer_3" display="none">
	<path display="inline" fill="none" stroke="#000000" stroke-width="0.25" d="M-329.167,282.721c0,0,7.417-8.906,13.833-8.888   c4.346,0.013,9.5,3.431,9.5,3.431s1.833-1.56,3.833-1.56c0.667,0,0.667,0,0.667,0v58.004l-2.5-2.339l-2.667-30.094   c0,0-2-1.248-2.833-3.432c-0.354-0.929-0.667-6.08-0.667-6.08l-2.5,7.017c0,0-7.156-2.194-10.5-4.833   C-328.333,289.738-329.167,282.721-329.167,282.721z"/>
	<path display="inline" fill="none" stroke="#000000" stroke-width="0.25" d="M-307.5,300.875h-3.833c0,0-0.208,7.584,0.583,10.5   c0.905,3.336,3.583,5,3.583,5s0.774,0.475,1.25,0.167c0.708-0.458,0.25-1.333,0.25-1.333s-1.425-1.482-1.667-3   C-307.625,310.375-307.5,300.875-307.5,300.875z"/>
	<circle display="inline" fill="none" stroke="#000000" stroke-width="0.25" cx="-309" cy="287.25" r="1.375"/>
	<path display="inline" fill="none" stroke="#000000" stroke-width="0.25" d="M-314.991,297.611c0,0-0.285,2.574,0.286,3.977   c0.571,1.403,1.855,3.041,1.855,3.041v28.768h7.85v-35.9L-314.991,297.611z"/>
</g>
<path d="M57.076,47.838h-6.243h-0.196h-6.244c-27.045,4.014-8.421,21.675-6.112,23.76c0.351,1.712,0.681,2.922,0.681,2.922  s0.042,1.503,0.162,3.81c0.307,5.894,1.11,17.018,2.97,21.671h7.744l0.148-19.729c0,0,0.287,0.101,0.651,0.135v0.015  c0.034,0,0.064-0.006,0.098-0.008c0.034,0.002,0.064,0.008,0.099,0.008v-0.015c0.364-0.034,0.651-0.135,0.651-0.135L51.633,100  h7.743c1.86-4.653,2.663-15.777,2.97-21.671c0.121-2.307,0.162-3.81,0.162-3.81s0.33-1.21,0.682-2.922  C65.498,69.513,84.121,51.852,57.076,47.838z M37.466,63.835c-6.859-8.335,1.421-10.565,4.261-11.067  C36.871,60.097,37.466,63.835,37.466,63.835z M64.004,63.835c0,0,0.594-3.738-4.262-11.067C62.582,53.27,70.863,55.5,64.004,63.835z  "/>
<path d="M65.747,34.893c-0.333-0.629-2.948,0.105-5.842,1.64c-0.628,0.333-1.208,0.676-1.742,1.016  c-0.193-1.304-0.707-2.502-1.47-3.507h0.49c0.733,0,1.328-0.56,1.328-1.25s-0.595-1.25-1.328-1.25h-0.262V18.625h-6.089h-0.196  h-6.089v12.917h-0.262c-0.733,0-1.328,0.56-1.328,1.25s0.595,1.25,1.328,1.25h0.49c-0.977,1.287-1.563,2.887-1.563,4.627  c0,4.153,3.303,7.526,7.424,7.656v0.011c0.033,0,0.065-0.005,0.098-0.005c0.033,0,0.065,0.005,0.099,0.005v-0.011  c3.615-0.114,6.6-2.724,7.278-6.167c0.895-0.32,1.928-0.778,3.001-1.347C64.007,37.275,66.081,35.521,65.747,34.893z"/>
</svg>