<svg xmlns="http://www.w3.org/2000/svg" xmlns:xlink="http://www.w3.org/1999/xlink" version="1.1" x="0px" y="0px" width="100px" height="100px" viewBox="-346 256 100 100" enable-background="new -346 256 100 100" xml:space="preserve">
<g id="Layer_1">
</g>
<g id="Layer_2">
</g>
<g id="Layer_3">
	<path d="M-251.339,331.136c-1.075-0.089-10.585-1.174-13.146-12.066c-1.193-5.07-0.778-11.961-0.771-12.072   c0.029-0.447-0.054-5.186-0.681-7.358c-2.921-10.141-18.188-15.871-36.045-12.331c-3.322,0.658-6.707,1.383-9.986,2.229   c0.362,3.394,0.476,9.926-3.161,14.244c-3.077,3.656-9.528,4.764-10.254,4.879c-0.113,0.016-0.226,0.025-0.337,0.025   c-1.037,0-1.95-0.755-2.117-1.811c-0.186-1.17,0.614-2.271,1.784-2.454c1.539-0.249,5.903-1.341,7.642-3.406   c2.163-2.569,2.434-6.594,2.297-9.446c-0.092-1.936-0.047-16.29-0.047-16.29l-8.137,6.194c-1.875-0.712-3.939-1.112-6.114-1.112   c-2.109,0-4.118,0.373-5.947,1.046l-7.168-6.016v11.439c-1.411,2.03-2.238,4.402-2.238,6.952c0,5.992,4.494,11.062,10.695,12.788   c-0.211,2.04,0.017,4.297,0.793,6.817c1.057,3.43,3.927,6.252,7.952,8.349v15.042c0,2.928,2.374,5.302,5.303,5.302   c2.927,0,5.302-2.374,5.302-5.302v-11.63c5.116,0.897,10.841,1.051,16.618,0.36l-8.898,7.167c-2.28,1.838-2.64,5.175-0.803,7.456   c1.048,1.299,2.583,1.976,4.132,1.976c1.167,0,2.343-0.384,3.323-1.173l15.905-12.812c0.08-0.063,0.138-0.138,0.212-0.207v8.78   c0,2.929,2.375,5.302,5.301,5.302c2.928,0,5.303-2.373,5.303-5.302V322.9c4.018,14.116,16.391,18.641,22.565,19.025   c0.116,0.008,0.229,0.012,0.344,0.012c2.811,0,5.155-2.177,5.361-5.021C-246.146,333.958-248.382,331.379-251.339,331.136z"/>
</g>
</svg>