<svg xmlns="http://www.w3.org/2000/svg" xmlns:xlink="http://www.w3.org/1999/xlink" version="1.1" id="Capa_29" x="0px" y="0px" width="100px" height="100px" viewBox="0 0 100 100" enable-background="new 0 0 100 100" xml:space="preserve">
<g>
	<g>
		<path d="M11.565,37.141v-4.549H3.349v4.549H0v1.762h1v44.341h33.168V38.902h1.002v-1.762H11.565z M8.648,76.596H5.219v-3.717    h3.429V76.596z M8.648,65.834H5.219v-3.72h3.429V65.834z M8.648,55.068H5.219v-3.718h3.429V55.068z M8.648,44.304H5.219v-3.718    h3.429V44.304z M15.578,79.49H12v-6.611h3.578V79.49z M15.578,68.725H12v-6.61h3.578V68.725z M15.578,57.962H12v-6.611h3.578    V57.962z M15.578,47.197H12v-6.611h3.578V47.197z M20.315,79.49h-3.582v-6.611h3.582V79.49z M20.315,68.725h-3.582v-6.61h3.582    V68.725z M20.315,57.962h-3.582v-6.611h3.582V57.962z M20.315,47.197h-3.582v-6.611h3.582V47.197z M30.944,79.49h-8v-6.611h8    V79.49z M30.944,68.725h-8v-6.61h8V68.725z M30.944,57.962h-8v-6.611h8V57.962z M30.944,47.197h-8v-6.611h8V47.197z"/>
	</g>
	<path d="M49.548,45.907v-2.945h-7.072v2.945h-3.678v37.23h25.488v-37.23H49.548z M45.117,76.13h-3.473v-5.534h3.473V76.13z    M45.117,68.565h-3.473v-5.536h3.473V68.565z M45.117,60.998h-3.473v-5.534h3.473V60.998z M45.117,53.431h-3.473v-5.532h3.473   V53.431z M50.561,76.13h-3.477v-5.534h3.477V76.13z M50.561,68.565h-3.477v-5.536h3.477V68.565z M50.561,60.998h-3.477v-5.534   h3.477V60.998z M50.561,53.431h-3.477v-5.532h3.477V53.431z M56,76.13h-3.477v-5.534H56V76.13z M56,68.565h-3.477v-5.536H56V68.565   z M56,60.998h-3.477v-5.534H56V60.998z M56,53.431h-3.477v-5.532H56V53.431z M61.443,76.13h-3.477v-5.534h3.477V76.13z    M61.443,68.565h-3.477v-5.536h3.477V68.565z M61.443,60.998h-3.477v-5.534h3.477V60.998z M61.443,53.431h-3.477v-5.532h3.477   V53.431z"/>
	<path d="M96.168,23.03v-5.505h-9.117v5.505H76.485v-1.92c0.129-0.091,0.257-0.19,0.373-0.307c1.12-1.117,1.12-2.93,0-4.047   l-1.894,1.895l-1.106-1.106l-0.361,0.362l1.104,1.106l-1.79,1.791c0.695,0.696,1.66,0.958,2.558,0.788v1.439H68.92v60.106H100   V23.03H96.168z M80.453,77.225H72.45v-9.997h8.003V77.225z M80.453,63.58H72.45v-9.997h8.003V63.58z M80.453,49.934H72.45v-9.998   h8.003V49.934z M80.453,36.289H72.45v-9.998h8.003V36.289z M86.623,73.839h-3.577v-6.611h3.577V73.839z M86.623,60.194h-3.577   v-6.611h3.577V60.194z M86.623,46.548h-3.577v-6.612h3.577V46.548z M86.623,32.902h-3.577v-6.611h3.577V32.902z M91.36,73.839   h-3.581v-6.611h3.581V73.839z M91.36,60.194h-3.581v-6.611h3.581V60.194z M91.36,46.548h-3.581v-6.612h3.581V46.548z M91.36,32.902   h-3.581v-6.611h3.581V32.902z M97.117,70.945h-3.429v-3.718h3.429V70.945z M97.117,57.3h-3.429v-3.717h3.429V57.3z M97.117,43.654   h-3.429v-3.718h3.429V43.654z M97.117,30.009h-3.429v-3.718h3.429V30.009z"/>
</g>
</svg>