<svg xmlns="http://www.w3.org/2000/svg" xmlns:xlink="http://www.w3.org/1999/xlink" version="1.1" id="Layer_1" x="0px" y="0px" width="66.034px" height="100px" viewBox="0 0 66.034 100" enable-background="new 0 0 66.034 100" xml:space="preserve">
<g>
	<path d="M54.087,35.35c5.338-1.311,10.859-2.667,11.783-6.239c1.391-5.391-6.488-13.009-6.824-13.331   c-0.32-0.307-0.702-0.958-1.106-1.647c-1.066-1.817-2.526-4.307-5.217-4.307c-0.676,0-1.388,0.167-2.113,0.494   c-1.842,0.832-4.286,2.192-4.233,4.401c0.055,2.231,2.688,4.271,8.529,6.601c1.218,1.512,2.834,3.977,2.921,5.139   c-1.094,0.9-7.946,1.841-20.774,1.854c1.165-0.553,2.223-1.438,3.096-2.639c1.455-2.001,2.235-4.629,2.197-7.4   c-0.079-5.777-3.779-10.478-8.337-10.478h-0.001c-2.25,0.03-4.328,1.202-5.853,3.299c-1.455,2.001-2.235,4.63-2.198,7.401   c0.062,4.502,2.329,8.338,5.44,9.817c-15.192-0.002-20.61-1.144-21.514-1.869c0.001-1.389,0.896-3.909,1.411-5.189   c5.725-2.302,8.31-4.324,8.364-6.534c0.054-2.209-2.391-3.569-4.234-4.401c-0.725-0.327-1.437-0.494-2.113-0.494   c-2.691,0-4.15,2.49-5.216,4.307c-0.405,0.689-0.786,1.341-1.106,1.647c-0.336,0.321-8.216,7.937-6.823,13.331   c0.975,3.775,8.221,5.097,14.615,6.263c2.439,0.445,5.78,1.054,6.299,1.525c1.554,1.955,2.109,14.995,1.566,18.189   c-0.404,2.376-3.715,5.229-6.917,7.986c-3.828,3.298-7.787,6.709-8.191,10.352c-0.307,2.772,2.486,7.372,5.187,11.82   c1.337,2.202,3.168,5.218,3.182,5.876c-0.183,0.558-1.757,1.726-2.798,2.497c-2.085,1.548-3.732,2.77-3.361,4.267   c0.33,1.332,2.043,1.595,2.688,1.694c1.007,0.154,2.062,0.233,3.133,0.233c4.693,0,9.956-1.541,10.937-4.484   c0.517-1.551-0.76-4.19-3.253-9.109c-2.019-3.983-4.532-8.942-4.175-11.001c0.781-4.505,11.6-10.453,16.268-10.552l0.142-0.002   c5.088,0,14.689,5.396,16.25,10.06c0.736,2.2,0.177,6.226-0.364,10.118c-0.518,3.734-1.008,7.262-0.53,9.8   C51.301,97.087,53.435,100,60.988,100c1.545,0,3.652-0.181,4.109-1.738c0.314-1.068-0.008-2.733-5.332-6.155   c-0.929-0.598,0.336-5.86,1.091-9.004C61.96,78.514,63.101,73.77,62.154,71c-1.064-3.119-5.26-5.923-9.316-8.634   c-3.177-2.122-6.462-4.317-7.58-6.277c-2.534-4.439,0.331-16.133,2.204-18.432C48.153,36.807,51.306,36.033,54.087,35.35z    M28.125,18.468c-0.032-2.306,0.602-4.471,1.783-6.096c1.112-1.531,2.579-2.385,4.187-2.407c3.29,0,6.018,3.741,6.08,8.34   c0.032,2.306-0.602,4.47-1.783,6.095c-1.111,1.53-2.577,2.384-4.125,2.405l-0.059,1.085v-1.084   C30.918,26.805,28.189,23.065,28.125,18.468z M43.375,57.165c1.371,2.402,4.717,4.638,8.258,7.005   c3.757,2.511,7.642,5.105,8.469,7.53c0.742,2.176-0.37,6.809-1.353,10.896c-1.33,5.533-2.381,9.904-0.157,11.334   c3.072,1.975,4.121,3.196,4.358,3.665c-0.226,0.091-0.771,0.236-1.962,0.236c-2.741,0-7.429-0.466-8.017-3.589   c-0.411-2.191,0.077-5.703,0.549-9.101c0.602-4.331,1.17-8.423,0.272-11.104c-1.864-5.572-12.34-11.541-18.307-11.541L35.299,62.5   c-5.659,0.12-17.38,6.705-18.359,12.349c-0.48,2.768,1.99,7.641,4.377,12.353c1.404,2.77,3.326,6.562,3.13,7.442   c-0.473,1.42-4.236,3.002-8.879,3.002c-0.962,0-1.905-0.07-2.804-0.208c-0.324-0.05-0.551-0.104-0.709-0.152   c0.472-0.533,1.612-1.379,2.345-1.923c1.63-1.208,3.169-2.351,3.567-3.563c0.427-1.304-0.799-3.41-3.389-7.677   c-2.157-3.553-5.111-8.418-4.885-10.456c0.31-2.796,3.939-5.924,7.45-8.948c3.653-3.146,7.104-6.119,7.639-9.265   c0.449-2.636,0.331-16.962-2.006-19.902c-0.82-1.032-3.048-1.478-7.607-2.309c-4.592-0.837-12.277-2.239-12.905-4.671   C1.47,25.492,5.66,20.053,8.487,17.349c0.539-0.516,0.995-1.294,1.478-2.118c0.89-1.516,1.897-3.235,3.345-3.235   c0.367,0,0.778,0.102,1.221,0.302c2.767,1.249,2.963,2.131,2.957,2.372c-0.01,0.431-0.577,2.046-7.419,4.74   c-0.27,0.106-0.485,0.316-0.6,0.583c-0.192,0.45-1.877,4.461-1.749,6.74c0.069,1.218,0.211,3.752,23.735,3.752   c1.637,0,2.675-0.016,2.678-0.017c0.033,0.001,1.052,0.017,2.659,0.017c22.99,0,23.132-2.534,23.2-3.75   c0.137-2.396-2.97-6.26-3.594-7.01c-0.116-0.14-0.267-0.249-0.436-0.315c-6.843-2.695-7.408-4.31-7.419-4.74   c-0.007-0.241,0.189-1.124,2.956-2.372c0.444-0.2,0.854-0.302,1.222-0.302c1.448,0,2.456,1.719,3.346,3.235   c0.483,0.823,0.939,1.601,1.479,2.116c2.827,2.706,7.017,8.146,6.224,11.222c-0.6,2.317-6.148,3.68-10.201,4.675   c-3.709,0.911-6.64,1.63-7.789,3.042C43.486,39.103,40.285,51.75,43.375,57.165z"/>
	<path d="M2.74,13.605c0.171,0.1,0.359,0.147,0.543,0.147c0.374,0,0.737-0.193,0.938-0.54c2.283-3.926,4.716-6.145,7.23-6.594   c1.903-0.338,3.895,0.338,5.924,2.014c0.461,0.381,1.146,0.318,1.527-0.146c0.381-0.462,0.316-1.145-0.146-1.526   c-2.542-2.101-5.129-2.936-7.687-2.477C7.9,5.05,4.965,7.621,2.347,12.123C2.046,12.641,2.222,13.304,2.74,13.605z"/>
	<path d="M47.136,8.633c2.029-1.676,4.024-2.351,5.923-2.014c2.516,0.449,4.947,2.668,7.23,6.594c0.201,0.346,0.564,0.54,0.938,0.54   c0.186,0,0.373-0.047,0.544-0.147c0.519-0.301,0.694-0.964,0.393-1.482C59.546,7.621,56.61,5.05,53.44,4.484   c-2.554-0.455-5.144,0.376-7.686,2.477c-0.462,0.382-0.527,1.065-0.146,1.526C45.99,8.949,46.674,9.015,47.136,8.633z"/>
	<path d="M2.696,6.81c0.182,0.117,0.385,0.173,0.587,0.173c0.356,0,0.705-0.174,0.912-0.496c4.558-7.053,11.76-3.222,12.081-3.045   c0.522,0.291,1.183,0.101,1.473-0.422c0.291-0.523,0.102-1.184-0.421-1.474C17.235,1.494,8.046-3.47,2.374,5.311   C2.049,5.814,2.193,6.485,2.696,6.81z"/>
	<path d="M46.97,3.442c0.314-0.176,7.784-4.196,13.417,2.693c0.215,0.262,0.526,0.398,0.841,0.398c0.24,0,0.484-0.08,0.686-0.245   c0.464-0.379,0.532-1.062,0.153-1.526c-6.763-8.271-16.054-3.27-16.146-3.218c-0.524,0.29-0.714,0.95-0.424,1.474   C45.787,3.543,46.447,3.731,46.97,3.442z"/>
</g>
</svg>