<svg xmlns="http://www.w3.org/2000/svg" xmlns:xlink="http://www.w3.org/1999/xlink" version="1.1" id="Layer_1" x="0px" y="0px" width="87.911px" height="100px" viewBox="0 0 87.911 100" enable-background="new 0 0 87.911 100" xml:space="preserve">
<g>
	<path d="M11.337,88.453c-0.237-0.518-0.844-0.742-1.361-0.506c-0.157,0.072-3.862,1.796-4.733,4.639   c-0.366,1.194-0.188,2.437,0.516,3.593c0.194,0.317,0.532,0.493,0.879,0.493c0.182,0,0.366-0.048,0.533-0.149   c0.485-0.295,0.639-0.927,0.344-1.412c-0.4-0.658-0.501-1.285-0.308-1.918c0.496-1.627,2.786-2.99,3.626-3.378   C11.348,89.577,11.574,88.968,11.337,88.453z"/>
	<path d="M2.559,88.089c-1.392,1.146-3.601,4.286-2.001,7.965c0.168,0.388,0.546,0.618,0.942,0.618c0.137,0,0.275-0.027,0.409-0.085   c0.521-0.226,0.759-0.831,0.533-1.352c-1.375-3.164,1.312-5.468,1.427-5.564c0.435-0.361,0.496-1.007,0.136-1.443   C3.644,87.789,2.997,87.729,2.559,88.089z"/>
	<path d="M71.364,88.881c0-0.567-0.46-1.027-1.027-1.027H58.693c-0.568,0-1.027,0.46-1.027,1.027c0,0.568,0.459,1.027,1.027,1.027   h11.644C70.904,89.908,71.364,89.449,71.364,88.881z"/>
	<path d="M72.049,92.99h-8.905c-0.567,0-1.027,0.46-1.027,1.028c0,0.567,0.46,1.027,1.027,1.027h8.905   c0.567,0,1.027-0.46,1.027-1.027C73.077,93.45,72.617,92.99,72.049,92.99z"/>
	<path d="M76.253,58.456c-0.126-0.093-0.272-0.154-0.428-0.182l-6.576-1.143c5.25-20.11,0.579-36.01-4.787-39.411   c-1.471-0.933-2.692-1.406-3.768-1.548c0.385-0.46,0.73-0.978,1.021-1.562c0.962-1.938,1.251-4.318,0.813-6.699   C61.687,3.328,58.443,0,54.815,0c-0.346,0-0.693,0.032-1.033,0.094c-1.946,0.357-3.575,1.676-4.587,3.715   c-0.962,1.938-1.251,4.318-0.813,6.7c0.786,4.284,3.673,7.468,7.011,7.866c-0.312,0.275-0.63,0.563-0.957,0.863   c-6.463,3.127-11.415,0.8-11.846,0.376c-0.189-0.21-0.729-0.903-1.353-1.706c-2.349-3.018-4.75-6.05-6.055-7.066   c-2.148-1.673-5.229-1.66-10.085-1.5c-2.596,0.085-4.531,1.202-5.177,2.985c-0.445,1.228-0.16,2.572,0.708,3.346   c1.288,1.147,3.596,1.05,6.034,0.947c1.625-0.068,3.469-0.146,4.203,0.286c1.318,0.775,3.57,4.292,5.06,6.619   c0.691,1.08,1.288,2.012,1.74,2.615c1.593,2.126,7.555,3.82,10.245,4.494c-2.007,6.362-7.566,20.264-13.603,33.243   c0,0.001-0.001,0.001-0.001,0.002l0,0C28.727,75.873,22.743,87.077,18.78,90.805c-1.911,0.215-7.853,1.166-7.855,4.669   c0,0.902,0.45,2.53,3.477,3.308c1.062,0.272,2.399,0.409,3.833,0.409c4.251,0,9.355-1.201,10.685-3.625   c1.258-2.293,7.564-12.995,9.723-16.654c0.4,0.687,0.809,1.377,1.221,2.072c2.027,3.421,4.116,6.946,5.603,10.658   c-3.187,0.532-9.127,1.934-9.383,5.001c-0.141,1.689,1.861,2.766,5.948,3.198C42.958,99.938,44.09,100,45.312,100   c4.951,0,11.394-1.006,11.86-4.646c0.235-1.834-1.545-5.497-4.711-11.815c-2.995-5.98-7.523-15.019-6.335-17.407   c0.796-1.599,2.129-2.711,3.541-3.89c2.355-1.966,5.026-4.194,5.926-9.137c0.573-3.147,4.651-14.015,6.399-18.595   c0.662,1.391,1.416,3.396,1.496,5.437c0.072,1.884-0.597,5.602-1.242,9.196c-0.733,4.084-1.427,7.942-1.253,9.985   c0.1,1.17,0.907,3.232,5.192,3.893c3.756,0.582,9.987-0.147,10.89-2.338C77.197,60.389,77.496,59.359,76.253,58.456z    M50.402,10.138c-0.357-1.948-0.132-3.872,0.633-5.415c0.718-1.444,1.824-2.37,3.119-2.607c0.218-0.04,0.439-0.061,0.661-0.061   c2.594,0,5.041,2.678,5.693,6.229c0.357,1.948,0.133,3.871-0.634,5.414c-0.717,1.444-1.823,2.37-3.116,2.606   C53.991,16.806,51.109,13.989,50.402,10.138z M27.119,94.576c-1.083,1.973-8.157,3.255-12.206,2.215   c-0.582-0.149-1.933-0.576-1.933-1.315c0.001-1.349,3.681-2.413,6.337-2.66c0.216-0.021,0.421-0.109,0.584-0.253   c3.799-3.353,9.135-12.896,14.292-23.634c0.517,2.535,1.763,5.188,3.276,7.924C36.336,78.774,28.568,91.935,27.119,94.576z    M65.31,60.738c-0.989-0.275-2.186-0.81-2.27-1.784c-0.151-1.773,0.55-5.674,1.229-9.447c0.695-3.874,1.354-7.532,1.272-9.639   c-0.166-4.279-2.751-8.196-2.86-8.36c-0.214-0.319-0.592-0.494-0.967-0.451c-0.381,0.042-0.707,0.292-0.846,0.649   c-0.267,0.686-6.534,16.838-7.296,21.033c-0.767,4.209-2.931,6.015-5.222,7.926c-1.513,1.263-3.077,2.567-4.064,4.553   c-1.527,3.07,1.664,9.912,6.338,19.242c2.192,4.375,4.676,9.333,4.509,10.635c-0.111,0.875-1.522,1.714-3.774,2.244   c-5.397,1.269-12.286,0.384-13.212-0.625c0.331-1.26,4.857-2.696,8.868-3.227c0.308-0.04,0.581-0.219,0.743-0.484   c0.161-0.265,0.193-0.59,0.088-0.883c-1.561-4.329-3.928-8.321-6.215-12.183c-3.524-5.947-6.566-11.088-5.38-15.365   c6.563-14.172,12.446-29.228,13.946-34.395c0.003-0.01,0-0.02,0.003-0.03c0.002-0.01,0.01-0.017,0.012-0.027   c0.013-0.059,0.001-0.115,0.004-0.173c0.004-0.07,0.016-0.138,0.006-0.206c-0.01-0.065-0.037-0.122-0.059-0.183   c-0.022-0.063-0.037-0.128-0.071-0.186c-0.033-0.056-0.081-0.099-0.123-0.147c-0.045-0.051-0.083-0.104-0.137-0.146   c-0.054-0.041-0.118-0.064-0.179-0.094c-0.054-0.026-0.098-0.064-0.156-0.082c-0.01-0.003-0.02,0-0.029-0.002   c-0.011-0.002-0.019-0.01-0.028-0.013c-3.334-0.76-9.032-2.514-10.131-3.98c-0.406-0.543-0.984-1.445-1.653-2.491   c-2.27-3.545-4.135-6.333-5.748-7.282c-1.257-0.739-3.235-0.656-5.332-0.567c-1.744,0.072-3.915,0.165-4.58-0.428   c-0.205-0.183-0.32-0.624-0.143-1.112c0.349-0.965,1.588-1.574,3.312-1.631c4.393-0.145,7.166-0.17,8.755,1.068   c1.212,0.944,4.129,4.692,5.694,6.706c0.703,0.903,1.21,1.555,1.448,1.82c1.268,1.407,7.417,3.482,14.414,0.026   c0.087-0.043,0.184-0.112,0.255-0.178c2.916-2.68,4.008-3.679,7.632-1.382c4.336,2.748,9.25,17.869,3.612,38.221   c-0.077,0.278-0.033,0.578,0.122,0.823c0.154,0.245,0.406,0.413,0.692,0.463l6.97,1.211C73.271,60.916,68.688,61.682,65.31,60.738z   "/>
	<path d="M15.827,16.361c0.175,0.117,0.373,0.172,0.569,0.172c0.332,0,0.658-0.16,0.856-0.458c0.314-0.472,0.187-1.11-0.285-1.424   c-0.501-0.335-0.78-0.736-0.875-1.264c-0.237-1.308,0.741-3.025,1.138-3.576c0.332-0.459,0.23-1.101-0.229-1.434   c-0.459-0.333-1.101-0.23-1.435,0.227c-0.199,0.273-1.928,2.74-1.498,5.14C14.259,14.818,14.868,15.722,15.827,16.361z"/>
	<path d="M10.405,13.904c0.16,0,0.322-0.037,0.474-0.117c0.503-0.262,0.699-0.882,0.437-1.385c-0.885-1.7-0.319-2.338-0.259-2.399   c0.424-0.348,0.501-0.973,0.167-1.414C10.88,8.138,10.237,8.046,9.784,8.39C9.7,8.455,7.743,9.991,9.493,13.352   C9.676,13.703,10.034,13.904,10.405,13.904z"/>
	<path d="M79.693,54.503c-0.45-0.344-1.096-0.259-1.439,0.191c-0.345,0.451-0.259,1.096,0.191,1.44   c0.036,0.027,3.584,2.78,2.081,5.035c-0.314,0.473-0.188,1.109,0.285,1.425c0.176,0.116,0.373,0.173,0.568,0.173   c0.333,0,0.658-0.161,0.856-0.458C84.28,59.245,81.599,55.96,79.693,54.503z"/>
	<path d="M85.96,54.592c-0.401-0.401-1.048-0.399-1.449-0.001c-0.402,0.398-0.404,1.049-0.007,1.452   c0.021,0.021,2.027,2.088,1.095,3.953c-0.254,0.508-0.049,1.125,0.459,1.379c0.147,0.073,0.305,0.108,0.459,0.108   c0.377,0,0.739-0.208,0.92-0.568C89.035,57.721,86.086,54.719,85.96,54.592z"/>
</g>
</svg>