<svg xmlns="http://www.w3.org/2000/svg" xmlns:xlink="http://www.w3.org/1999/xlink" version="1.1" id="Layer_1" x="0px" y="0px" width="79.03px" height="100px" viewBox="0 0 79.03 100" enable-background="new 0 0 79.03 100" xml:space="preserve">
<g>
	<path d="M62.582,65.686c3.361-3.883,6.535-7.55,6.654-10.587c0.361-9.203-16.404-27.724-20.538-32.143   c2.32-1.372,7.887-4.435,11.338-4.435c0.532,0,0.975,0.077,1.316,0.229c1.452,0.647,4.368,7.321,6.31,13.289   c-1.012,2.168-1.168,3.846-0.46,4.989c0.532,0.861,1.509,1.336,2.749,1.336c0.873,0,1.868-0.235,2.806-0.66   c1.128-0.513,1.927-1.371,2.306-2.48c0.828-2.412-0.54-5.375-0.82-5.938c-0.954-3.053-5.61-17.188-10.384-18.593   c-1.231-0.362-2.68-0.546-4.301-0.546c-6.261,0-13.825,2.666-18.062,5.299c-0.602,0.374-1.556,1.079-2.657,1.99   c0.356-1.195,0.534-2.482,0.516-3.804C39.28,8.14,35.763,3.671,31.43,3.671c0,0,0,0-0.001,0C29.29,3.7,27.314,4.814,25.865,6.808   c-1.383,1.903-2.125,4.402-2.089,7.036c0.076,5.492,3.595,9.959,7.845,9.959l0.083,0c0.317-0.004,0.63-0.04,0.939-0.092   c-1.159,1.534-1.989,3.047-2.104,4.318c-0.073,0.796-0.09,1.82-0.109,3.007c-0.052,3.169-0.139,8.435-1.776,9.575   c-0.005,0-0.013,0-0.022,0.001c-2.103,0-10.272-3.311-11.882-5.726c-0.963-1.444-2.533-2.342-4.098-2.342   c-1.135,0-2.147,0.469-2.851,1.32c-0.693,0.839-1.403,2.445-0.848,5.329c0.519,2.7,2.311,4.248,4.917,4.248   c0.458,0,0.851-0.05,1.124-0.098c1.906,0.893,11.481,5.258,16.357,5.258c0.84,0,1.516-0.122,2.068-0.373   c2.624-1.194,4.105-8.054,4.756-12.043c3.487,3.584,9.253,10.315,9.156,14.064c-0.035,1.382-2.757,5.377-4.943,8.589   c-2.138,3.138-4.348,6.382-5.369,8.793c-0.993,2.345-0.795,7.038-0.587,12.008c0.176,4.184,0.417,9.913-0.573,10.903   c-0.178,0.154-0.998,0.597-1.656,0.953c-3.396,1.836-5.43,3.064-5.028,4.649c0.338,1.339,2.112,1.612,4.67,1.612   c3.303,0,11.038,0,11.038-5.99c0-0.389-0.023-1.118-0.057-2.084c-0.15-4.41-0.549-16.124,1.084-19.07   c1.325-2.395,6.484-9.516,8.783-11.004c-0.572,1.23-1.887,3.352-2.91,5.004c-2.737,4.418-4.529,7.446-4.5,9.233   c0.05,3.095,2.239,8.086,4.173,12.489c1.158,2.643,2.356,5.373,2.485,6.474c-0.252,0.437-1.543,1.375-2.327,1.945   c-1.911,1.391-3.422,2.489-2.999,3.839c0.366,1.171,1.86,1.363,3.42,1.397c0.271,0.007,0.538,0.01,0.796,0.01   c0.001,0,0.001,0,0.002,0c5.296,0,8.654-1.239,9.979-3.683c1.462-2.694-0.166-5.582-0.7-6.401   c-2.621-4.029-6.058-13.122-5.183-16.295C57.499,71.56,60.083,68.574,62.582,65.686z M31.676,21.741l-0.055,1.031v-1.031   c-3.128,0-5.723-3.556-5.783-7.926c-0.03-2.192,0.572-4.25,1.695-5.795c1.058-1.455,2.451-2.268,3.981-2.288   c3.128,0,5.72,3.556,5.779,7.928c0.03,2.192-0.571,4.25-1.695,5.794C34.541,20.91,33.148,21.722,31.676,21.741z M60.384,91.04   c0.776,1.193,1.346,2.948,0.616,4.295c-0.925,1.703-3.748,2.604-8.167,2.604c0,0-0.001,0-0.002,0c-0.244,0-0.495-0.003-0.751-0.01   c-0.489-0.01-0.844-0.041-1.097-0.076c0.488-0.445,1.297-1.033,1.845-1.432c1.819-1.323,3.256-2.368,3.18-3.637   c-0.079-1.327-1.064-3.629-2.665-7.277c-1.762-4.017-3.955-9.016-3.998-11.695c-0.021-1.314,2.413-5.244,4.19-8.112   c2.813-4.541,3.77-6.231,3.446-7.372c-0.104-0.371-0.349-0.669-0.685-0.837c-0.263-0.131-0.552-0.197-0.861-0.197   c-0.97,0-2.727,0.594-6.75,5.738c-2.101,2.685-4.098,5.712-4.579,6.582c-1.683,3.035-1.622,11.884-1.341,20.139   c0.032,0.935,0.056,1.639,0.056,2.015c0,2.79-2.601,3.929-8.976,3.929c-1.207,0-1.913-0.079-2.318-0.159   c0.826-0.697,2.744-1.734,3.656-2.228c1.212-0.654,1.809-0.983,2.122-1.297c1.562-1.564,1.469-5.753,1.187-12.458   c-0.181-4.313-0.386-9.202,0.425-11.12c0.941-2.222,3.092-5.381,5.173-8.436c3.268-4.796,5.254-7.842,5.302-9.696   c0.154-6.023-10.063-15.923-11.229-17.033c-0.281-0.268-0.689-0.356-1.054-0.225c-0.366,0.129-0.628,0.453-0.679,0.838   c-0.718,5.478-2.4,11.803-3.866,12.47c-0.188,0.085-0.551,0.188-1.214,0.188c-4.85,0-15.679-5.154-15.788-5.207   c-0.222-0.107-0.479-0.127-0.718-0.064c-0.004,0.001-0.419,0.111-0.976,0.111c-1.613,0-2.56-0.842-2.893-2.575   c-0.315-1.636-0.168-2.923,0.413-3.627c0.391-0.472,0.901-0.572,1.261-0.572c0.871,0,1.807,0.559,2.383,1.424   c2.177,3.266,11.238,6.644,13.598,6.644c0.394,0,0.708-0.072,0.963-0.22c2.734-1.587,2.824-7.02,2.896-11.384   c0.019-1.145,0.035-2.133,0.101-2.854c0.255-2.79,6.773-9.018,9.993-11.02c3.987-2.479,11.099-4.988,16.973-4.988   c1.424,0,2.677,0.156,3.719,0.462c2.916,0.858,7.082,11.073,9.023,17.311c0.018,0.059,0.043,0.117,0.071,0.172   c0.378,0.726,1.249,2.932,0.741,4.407c-0.197,0.573-0.594,0.987-1.209,1.267c-0.665,0.302-1.377,0.476-1.952,0.476   c-0.354,0-0.812-0.062-0.996-0.358c-0.122-0.199-0.433-1.028,0.737-3.367c0.12-0.241,0.142-0.519,0.06-0.775   c-0.72-2.252-4.469-13.557-7.561-14.936c-0.606-0.27-1.333-0.408-2.155-0.408c-5.028,0-13.174,5.191-13.519,5.413   c-0.26,0.167-0.431,0.441-0.467,0.747c-0.036,0.307,0.067,0.613,0.281,0.835c0.212,0.22,21.213,22.161,20.845,31.565   c-0.092,2.315-3.312,6.035-6.153,9.318c-2.771,3.202-5.388,6.227-6.081,8.736C53.714,77.523,58.2,87.684,60.384,91.04z"/>
	<path d="M68.737,41.507c-0.419-0.388-1.069-0.363-1.457,0.054c-0.388,0.417-0.363,1.069,0.054,1.457   c0.044,0.042,4.48,4.215,4.48,7.835c0,0.57,0.461,1.031,1.03,1.031c0.57,0,1.031-0.461,1.031-1.031   C73.875,46.332,68.946,41.702,68.737,41.507z"/>
	<path d="M74.898,41.425c-0.462-0.333-1.106-0.224-1.438,0.237c-0.332,0.463-0.226,1.107,0.238,1.439   c0.028,0.021,2.978,2.168,3.273,5.44c0.048,0.535,0.498,0.938,1.025,0.938c0.031,0,0.062-0.001,0.094-0.004   c0.567-0.051,0.985-0.553,0.935-1.12C78.645,44.154,75.051,41.535,74.898,41.425z"/>
	<path d="M12.714,47.417C12.713,47.417,12.713,47.417,12.714,47.417c-6.466,0-6.87-10.916-6.873-11.026   c-0.017-0.569-0.5-1.019-1.061-1c-0.569,0.017-1.017,0.491-1,1.059c0.015,0.532,0.47,13.029,8.934,13.028   c0.569,0,1.031-0.461,1.031-1.031S13.283,47.417,12.714,47.417z"/>
	<path d="M7.295,49.825c-3.677-0.282-5.251-6.05-5.267-6.108c-0.146-0.549-0.712-0.876-1.26-0.732   c-0.55,0.146-0.878,0.708-0.734,1.258c0.078,0.296,1.964,7.243,7.103,7.639c0.026,0.002,0.053,0.003,0.08,0.003   c0.534,0,0.985-0.411,1.027-0.952C8.288,50.364,7.863,49.869,7.295,49.825z"/>
	<path d="M59.325,5.726c2.522,0.293,9.255,1.885,10.109,5.678c0.107,0.479,0.533,0.804,1.005,0.804c0.075,0,0.15-0.008,0.228-0.025   c0.556-0.125,0.903-0.677,0.779-1.232c-1.349-5.98-11.453-7.222-11.883-7.272c-0.569-0.072-1.078,0.34-1.143,0.904   C58.355,5.149,58.759,5.661,59.325,5.726z"/>
	<path d="M66.206,2.055c0.038,0.005,3.89,0.458,5.005,3.055c0.169,0.39,0.549,0.625,0.947,0.625c0.137,0,0.275-0.027,0.407-0.084   c0.523-0.225,0.765-0.831,0.54-1.354c-1.595-3.711-6.474-4.269-6.68-4.291c-0.572-0.055-1.071,0.349-1.133,0.915   C65.231,1.484,65.641,1.993,66.206,2.055z"/>
</g>
</svg>