<svg xmlns="http://www.w3.org/2000/svg" xmlns:xlink="http://www.w3.org/1999/xlink" version="1.1" id="Layer_1" x="0px" y="0px" width="54.54px" height="100px" viewBox="0 0 54.54 100" enable-background="new 0 0 54.54 100" xml:space="preserve">
<g>
	<path d="M44.316,94.777c-2.066-0.921-3.406-2.468-3.902-3.113c0.436-2.634,2.218-13.973,1.273-17.37   c-1.01-3.632-2.594-6.623-4.27-9.79c-0.923-1.742-1.874-3.54-2.766-5.518c3.245-1.596,9.854-5.351,9.934-9.516   c0.077-4.056-3.08-14.586-7.081-17.711c-1.777-1.389-4.734-1.826-7.989-2.146c2.044-1.21,3.606-3.663,4.005-6.631   c0.289-2.155-0.073-4.278-1.021-5.977c-1-1.794-2.529-2.914-4.303-3.152c-3.6-0.485-6.936,2.864-7.545,7.401   c-0.411,3.059,0.536,5.904,2.272,7.592c-1.18-0.229-2.203-0.533-2.902-0.981c-2.477-1.592-4.984-8.135-5.088-9.108   c-0.222-2.082,2.996-7.588,5.208-10.783c1.782-0.612,2.885-2.348,2.66-4.272C22.585,1.862,21.026,0.004,18.028,0   c-0.003,0-0.005,0-0.008,0c-1.317,0-2.367,0.415-3.121,1.232c-0.947,1.027-1.109,2.368-1.124,3.053   c-1.756,2.252-7.875,10.453-6.99,14.208c0.773,3.281,2.62,6.921,4.407,10.442c0.889,1.751,1.728,3.405,2.415,4.97   c1.729,3.935,0.697,10.824-0.132,16.359c-0.351,2.34-0.682,4.551-0.786,6.347c-0.149,2.573,0.689,5.78,1.5,8.882   c0.779,2.979,1.584,6.06,1.439,8.333c-0.141,2.201-1.189,6.192-2.202,10.052c-1.005,3.829-1.955,7.447-2.043,9.394   c-0.101,2.23,1.527,4.12,4.837,5.616c1.112,0.503,5.629,1.829,7.487,0.395c0.631-0.486,0.9-1.22,0.757-2.062   c-0.201-1.186-1.326-2.196-2.413-3.174c-0.553-0.498-1.479-1.331-1.543-1.667c-0.298-1.847,1.078-5.55,2.292-8.816   c0.932-2.507,1.812-4.875,2.003-6.523c0.155-1.342,0.017-3.495-0.13-5.775c-0.145-2.243-0.376-5.849-0.033-7.056   c0.075,0.063,0.167,0.148,0.277,0.262l0.281,0.292c6.416,6.641,10.656,11.03,7.293,27.605c-0.106,0.36-0.423,1.747,0.398,3.288   c0.851,1.594,2.597,2.755,5.188,3.451c1.654,0.444,3.616,0.892,5.234,0.892c1.487,0,2.684-0.378,3.077-1.488   C46.924,97.003,45.351,95.237,44.316,94.777z M22.653,21.523c0.429-3.194,2.561-5.695,4.853-5.695c0.14,0,0.28,0.009,0.421,0.028   c1.127,0.151,2.125,0.909,2.808,2.134c0.735,1.321,1.014,2.999,0.782,4.724c-0.456,3.388-2.823,6.004-5.272,5.666   C23.801,28.051,22.19,24.975,22.653,21.523z M38.604,97.157c-1.979-0.53-3.33-1.366-3.909-2.415   c-0.521-0.941-0.272-1.776-0.267-1.799c0.014-0.04,0.025-0.081,0.033-0.124c3.595-17.656-1.188-22.607-7.809-29.46l-0.281-0.291   c-0.676-0.7-1.319-1.052-1.919-1.052c-0.215,0-0.424,0.045-0.627,0.135c-1.634,0.722-1.516,3.823-1.167,9.243   c0.134,2.092,0.273,4.253,0.139,5.413c-0.163,1.407-1.001,3.664-1.89,6.054c-1.364,3.672-2.775,7.468-2.393,9.841   c0.166,1.029,1.148,1.912,2.187,2.847c0.712,0.642,1.688,1.52,1.772,2.012c0.013,0.074,0.009,0.111,0.012,0.114   c-0.458,0.512-3.747,0.134-5.431-0.627c-2.483-1.123-3.711-2.362-3.651-3.685c0.078-1.732,1.044-5.412,1.979-8.972   c1.038-3.952,2.111-8.038,2.264-10.437c0.166-2.597-0.681-5.837-1.5-8.972c-0.771-2.949-1.569-6-1.438-8.254   c0.099-1.705,0.423-3.87,0.767-6.164c0.913-6.094,1.947-13.001-0.017-17.472c-0.709-1.616-1.562-3.294-2.463-5.071   c-1.732-3.415-3.524-6.946-4.242-9.992c-0.546-2.319,3.9-9.068,6.833-12.777c0.156-0.198,0.232-0.453,0.215-0.705   c-0.001-0.012-0.08-1.233,0.593-1.954c0.36-0.386,0.892-0.574,1.628-0.574c0.001,0,0.003,0,0.005,0   c1.594,0.002,2.629,0.718,2.769,1.916c0.1,0.854-0.331,1.903-1.513,2.186c-0.239,0.057-0.45,0.2-0.591,0.4   c-0.631,0.896-6.151,8.848-5.767,12.449c0.149,1.399,2.86,8.573,6.004,10.593c2.008,1.29,5.325,1.593,8.836,1.914   c3.395,0.31,6.906,0.631,8.498,1.874c3.433,2.681,6.372,12.554,6.304,16.08c-0.055,2.949-6.383,6.754-10.358,8.461   c-0.075,0.032-0.146,0.073-0.211,0.123c-1.524,1.154-2.17,1.195-2.415,1.117c-0.346-0.11-0.705-0.697-1.013-1.654   c-0.222-0.689-0.232-1.209-0.031-1.426c0.392-0.421,1.732-0.365,2.545-0.167c0.255,0.065,0.523,0.025,0.75-0.104   c0.595-0.344,5.851-3.438,7.229-6.381c1.598-3.408-3.651-12.514-4.72-14.305c-0.222-0.373-0.662-0.563-1.082-0.469   c-0.425,0.093-0.743,0.446-0.789,0.878c-0.213,1.965-0.409,3.541-0.579,4.907c-0.561,4.497-0.843,6.753-0.502,12.959   c0.005,0.1,0.024,0.196,0.057,0.286c-0.104,0.064-0.203,0.125-0.296,0.182c-0.911-0.16-2.967-0.361-4.086,0.833   c-0.75,0.802-0.892,1.954-0.419,3.426c0.342,1.064,0.955,2.528,2.328,2.962c1.323,0.418,2.73-0.34,3.875-1.161   c0.905,2.002,1.859,3.805,2.785,5.551c1.623,3.067,3.156,5.965,4.107,9.386c0.754,2.71-0.746,13.125-1.388,16.909   c-0.042,0.248,0.01,0.502,0.146,0.714c0.071,0.111,1.776,2.729,4.997,4.166c0.389,0.172,1.005,0.948,1.022,1.16   C44.509,97.791,43.668,98.516,38.604,97.157z M33.896,40.661c0.069-0.564,0.145-1.165,0.224-1.813   c1.986,3.81,3.784,8.261,3.112,9.695c-0.574,1.226-2.29,2.685-3.872,3.829C33.104,47.006,33.377,44.815,33.896,40.661z"/>
	<path d="M8.583,88.109c0.274-0.485,0.103-1.102-0.383-1.376c-0.486-0.275-1.101-0.104-1.375,0.381   c-0.151,0.268-3.663,6.576,0.228,9.857c0.189,0.16,0.421,0.238,0.651,0.238c0.288,0,0.573-0.123,0.772-0.359   c0.36-0.427,0.306-1.063-0.121-1.424C5.744,93.224,8.554,88.161,8.583,88.109z"/>
	<path d="M3.406,88.223c0.337-0.443,0.251-1.076-0.191-1.414C2.77,86.468,2.136,86.556,1.798,87   c-1.423,1.863-3.24,6.327,0.062,9.887c0.199,0.215,0.47,0.323,0.74,0.323c0.246,0,0.493-0.09,0.688-0.27   c0.409-0.38,0.433-1.02,0.053-1.429C0.378,92.319,3.281,88.388,3.406,88.223z"/>
	<path d="M47.535,43.002c-0.414-0.372-1.054-0.342-1.427,0.075c-0.373,0.414-0.341,1.053,0.075,1.426   c1.203,1.085,1.749,2.308,1.665,3.739c-0.17,2.922-2.904,5.856-5.195,7.482c-0.454,0.323-0.562,0.953-0.238,1.409   c0.197,0.277,0.508,0.425,0.824,0.425c0.202,0,0.406-0.06,0.584-0.187c2.782-1.975,5.832-5.379,6.043-9.013   C49.983,46.334,49.178,44.482,47.535,43.002z"/>
	<path d="M50.606,40.607c-0.436-0.35-1.071-0.28-1.42,0.155c-0.351,0.435-0.28,1.071,0.154,1.42   c0.045,0.036,4.474,3.653,2.778,7.566c-0.221,0.512,0.014,1.107,0.526,1.328c0.131,0.057,0.267,0.084,0.4,0.084   c0.391,0,0.763-0.228,0.928-0.609C56.273,45.241,50.839,40.794,50.606,40.607z"/>
</g>
</svg>