<svg xmlns="http://www.w3.org/2000/svg" xmlns:xlink="http://www.w3.org/1999/xlink" version="1.1" id="Layer_1" x="0px" y="0px" width="78.574px" height="100px" viewBox="0 0 78.574 100" enable-background="new 0 0 78.574 100" xml:space="preserve">
<g>
	<path d="M71.801,36.898c-0.377-4.703-0.766-9.565-3.583-12.146c-2.656-2.433-18.847-6.57-25.617-6.933   c-0.122-0.006-0.251-0.009-0.386-0.009c-0.782,0-1.803,0.134-2.935,0.364c0.271-0.438,0.52-0.903,0.729-1.41   c0.979-2.378,1.122-5.225,0.403-8.015C39.105,3.679,35.195,0,31.112,0c-0.57,0-1.137,0.071-1.685,0.213   c-4.543,1.169-7.008,6.901-5.496,12.777c1.025,3.979,3.659,7.093,6.718,8.251c-1.061,0.585-1.953,1.208-2.532,1.841   c-1.52,1.663-2.32,4.792-3.095,7.818c-0.432,1.687-1.085,4.238-1.521,4.579c-1.949,0-10.425-4.374-13.186-7.082   c-1.223-1.199-3.349-1.974-5.416-1.974c-1.702,0-3.114,0.521-3.976,1.464c-0.696,0.762-1.009,1.767-0.906,2.907   c0.329,3.625,3.677,4.303,6.121,4.798c0.93,0.189,1.808,0.367,2.33,0.65c0.399,0.218,1.244,0.783,2.221,1.437   c5.386,3.605,11.468,7.451,15.494,7.451c0.436,0,0.848-0.046,1.221-0.138c2.169-0.53,3.293-4.017,4.285-7.093   c0.13-0.403,0.28-0.869,0.426-1.293c1.725,3.634,4.973,13.601,3.521,15.8c-0.464,0.702-3.819,0.926-6.04,1.073   c-3.607,0.239-7.337,0.487-9.121,2.17c-2.635,2.484,0.516,8.256,4.164,14.94c2.09,3.828,4.25,7.786,4.462,9.87   c-0.184,0.422-1.892,1.075-2.81,1.426c-1.99,0.76-4.047,1.546-4.331,3.219c-0.142,0.833,0.051,1.592,0.557,2.191   c0.853,1.01,2.556,1.5,5.208,1.5c3.293,0,7.312-0.756,8.888-1.081c2.787-0.576,2.199-4.011,1.947-5.479l-0.063-0.38   c-0.413-2.715-2.493-7.066-4.505-11.275c-1.325-2.771-3.113-6.51-3.223-7.661c0.472-0.245,2.174-0.728,8.252-0.728   c0.994,0,1.918,0.012,2.683,0.021l0.745,0.009c2.657,1.202,12.977,22.741,12.925,28.589c-0.006,0.693-2.124,1.721-3.39,2.334   c-1.904,0.924-3.549,1.722-3.999,3.058c-0.186,0.554-0.139,1.132,0.138,1.676c0.267,0.524,1.076,2.119,7.482,2.119   c3.132,0,6.732-0.396,8.756-0.961c0.304-0.085,0.729-0.302,1.031-0.853c1.72-3.133-2.613-19.033-11.767-49.219   c-2.568-8.469-4.994-16.469-5.009-17.549c0.02-0.667,2.044-1.634,5.65-1.634c3.734,0,7.07,1.059,7.597,2.409   c0.684,1.761,2.357,9.852,2.128,13.089c-0.023,0.32-0.09,0.707-0.16,1.133c-0.345,2.075-0.986,5.938,2.682,7.48   c0.737,0.311,1.521,0.468,2.326,0.468c0.001,0,0.001,0,0.001,0c2.394,0,4.659-1.384,5.635-3.441   c0.857-1.812,0.554-3.826-0.836-5.525C72.355,43.827,72.073,40.305,71.801,36.898z M26.062,12.442   c-1.21-4.702,0.546-9.232,3.914-10.099c0.37-0.095,0.752-0.144,1.137-0.144c3.094,0,6.11,2.985,7.169,7.097   c0.601,2.333,0.492,4.688-0.307,6.629c-0.753,1.832-2.034,3.063-3.607,3.468c-0.37,0.095-0.751,0.144-1.135,0.144   C30.137,19.538,27.122,16.554,26.062,12.442z M72.489,49.98c-0.812,1.715-3.256,2.671-5.12,1.889   c-1.919-0.807-1.776-2.62-1.365-5.093c0.083-0.502,0.156-0.959,0.184-1.337c0.259-3.636-1.498-12.05-2.272-14.042   c-1.093-2.813-5.879-3.812-9.646-3.812c-3.739,0-7.767,0.99-7.851,3.767c-0.035,1.185,1.372,5.947,5.104,18.254   c4.656,15.354,13.266,43.745,12.006,47.379c-1.646,0.414-4.788,0.814-7.921,0.814c-4.027,0-5.371-0.682-5.535-0.893   c0.149-0.459,1.922-1.318,2.874-1.78c2.267-1.099,4.611-2.236,4.63-4.295c0.049-5.61-10.75-30.766-15.022-30.807l-0.819-0.01   c-0.772-0.009-1.707-0.021-2.711-0.021c-7.595,0-9.537,0.688-10.208,1.8c-0.749,1.239,0.224,3.524,3.194,9.736   c1.853,3.875,3.951,8.267,4.315,10.658l0.07,0.421c0.131,0.767,0.48,2.807-0.224,2.951c-1.509,0.312-5.353,1.037-8.443,1.037   c-2.708,0-3.384-0.552-3.527-0.72c-0.043-0.052-0.114-0.137-0.07-0.402c0.129-0.457,2.033-1.185,2.948-1.534   c2.161-0.825,4.396-1.68,4.208-3.64c-0.248-2.583-2.417-6.558-4.714-10.765c-2.383-4.367-5.985-10.967-4.585-12.287   c1.208-1.14,4.839-1.381,7.757-1.574c3.723-0.248,6.664-0.443,7.73-2.057c2.529-3.829-2.94-18.29-4.541-19.824   c-0.253-0.243-0.577-0.376-0.913-0.376c-1.196,0-1.606,1.272-2.423,3.806c-0.521,1.614-1.739,5.393-2.714,5.632   c-0.203,0.049-0.438,0.074-0.699,0.074c-3.695,0-10.838-4.781-14.27-7.079c-1.106-0.74-1.905-1.276-2.393-1.541   c-0.813-0.442-1.848-0.652-2.945-0.874c-2.604-0.528-4.198-0.983-4.366-2.842c-0.048-0.522,0.063-0.923,0.338-1.224   c0.435-0.475,1.292-0.748,2.352-0.748c1.498,0,3.056,0.541,3.875,1.344c2.778,2.724,11.899,7.712,14.727,7.711   c0.255,0,0.479-0.031,0.684-0.097c1.521-0.483,2.128-2.855,2.968-6.137c0.642-2.505,1.439-5.623,2.588-6.879   c1.947-2.129,9.744-4.709,12.741-4.551c7.028,0.377,22.331,4.602,24.248,6.358c2.181,1.997,2.535,6.421,2.877,10.7   c0.313,3.916,0.608,7.614,2.33,9.717C72.792,47.835,72.983,48.938,72.489,49.98z"/>
	<path d="M44.833,92.656h-7.354c-0.607,0-1.1,0.492-1.1,1.1c0,0.608,0.493,1.101,1.1,1.101h7.354c0.607,0,1.1-0.492,1.1-1.101   C45.932,93.148,45.44,92.656,44.833,92.656z"/>
	<path d="M43.792,96.928h-9.349c-0.607,0-1.1,0.492-1.1,1.101c0,0.607,0.493,1.1,1.1,1.1h9.349c0.607,0,1.1-0.492,1.1-1.1   C44.891,97.42,44.399,96.928,43.792,96.928z"/>
	<path d="M23.656,78.415c0.588-0.15,0.943-0.75,0.793-1.338c-0.15-0.587-0.748-0.944-1.335-0.795   c-0.216,0.056-5.306,1.382-6.786,4.703c-0.638,1.433-0.535,2.971,0.308,4.574c0.197,0.375,0.579,0.589,0.975,0.589   c0.172,0,0.348-0.041,0.511-0.126c0.538-0.283,0.745-0.948,0.462-1.485c-0.52-0.99-0.601-1.857-0.248-2.653   C19.202,79.936,22.47,78.719,23.656,78.415z"/>
	<path d="M18.691,74.675c-0.11-0.598-0.681-0.997-1.281-0.882c-2.379,0.439-6.835,2.694-6.674,8.081   c0.018,0.597,0.506,1.067,1.099,1.067c0.011,0,0.022,0,0.033,0c0.607-0.019,1.085-0.525,1.067-1.134   c-0.145-4.83,4.673-5.813,4.879-5.853C18.409,75.843,18.802,75.271,18.691,74.675z"/>
	<path d="M66.955,21.731c0.207,0.024,5.096,0.678,5.807,7.633c0.059,0.566,0.536,0.988,1.094,0.988c0.037,0,0.075-0.002,0.112-0.006   c0.605-0.062,1.044-0.602,0.983-1.206c-0.899-8.788-7.694-9.59-7.763-9.597c-0.604-0.07-1.136,0.374-1.202,0.974   C65.919,21.119,66.354,21.661,66.955,21.731z"/>
	<path d="M72.81,17.006c-0.575-0.18-1.191,0.132-1.38,0.709c-0.187,0.576,0.129,1.195,0.705,1.385   c0.173,0.057,4.238,1.447,4.238,5.845c0,0.607,0.492,1.1,1.1,1.1c0.608,0,1.101-0.492,1.101-1.1   C78.574,20.125,74.803,17.644,72.81,17.006z"/>
</g>
</svg>