<svg xmlns="http://www.w3.org/2000/svg" xmlns:xlink="http://www.w3.org/1999/xlink" version="1.1" id="Layer_1" x="0px" y="0px" width="100px" height="100px" viewBox="0 0 100 100" enable-background="new 0 0 100 100" xml:space="preserve">
<path  d="M47.16,56.449l-1.09,26.809c0,0-4.577,11.987-11.116,11.987c0,0,0.607,1.891,2.722,1.875  c3.083-0.023,8.143-1.268,9.048-2.953c0,0,0.501,2.245,2.204,3.741c0.737,0.649,2.39,0.217,3.245,0.171c0,0-0.557-2.199,1.091-2.834  c0,0,2.259,1.605,5.095,2.566c1.211,0.41,1.824-0.462,3.623-1.041c0,0-8.064-5.23-8.064-13.513c0-8.283-0.436-28.553-0.436-28.553  s-0.276-3.486,4.766-6.975c5.042-3.487,17.465-12.175,17.465-12.175l6.757,3.784l1.526-1.635L79.002,34l4.34-4.686l-1.744-2.289  l-5.231,2.834l-1.702-7.629h-2.657l0.436,9.264l-9.808,6.974l-5.231-8.5l9.591-14.603l-2.507-1.962l-3.16,3.161l-4.25-5.014  L55,12.095l2.622,9.481l-3.16,3.269l-6.212-8.282l-2.778,1.199l1.471,3.814H34.301l-0.654-10.026h-2.616l-0.653,9.59l-8.283-3.378  l-1.09,2.615l10.571,5.013l17.654,0.763l9.017,15.148l-8.254,5.231c0,0-1.744,1.089-1.744,3.378l-7.224-6.647l-1.167-7.707h-2.397  l-1.09,3.784l-6.539-6.687L27.076,34l1.558,2.085l-7.629-0.529l-0.748,1.822l10.447,2.467l3.378,2.654l-8.736,1.635l0.562,3.052  l11.988-0.109L47.16,56.449z"/>
<path d="M66.668,92.535c0,1.625-1.317,2.942-2.942,2.942c-1.626,0-2.942-1.317-2.942-2.942s1.316-7.303,2.942-7.303  C65.351,85.232,66.668,90.91,66.668,92.535z"/>
<path d="M34.373,97.993c-1.388,0.845-3.197,0.402-4.042-0.985c-0.846-1.389-0.403-3.199,0.985-4.043  c1.388-0.845,6.923-2.668,7.767-1.279C39.928,93.074,35.762,97.148,34.373,97.993z"/>
<path d="M85.676,98.117c-1.148,1.149-3.012,1.149-4.161,0c-1.149-1.148-1.149-3.012,0-4.161  c1.149-1.148,6.096-4.231,7.244-3.082S86.825,96.969,85.676,98.117z"/>
<path d="M57.719,98.631c-1.594,0.318-3.143-0.717-3.461-2.312c-0.316-1.593,0.718-3.143,2.312-3.46  s7.418-0.134,7.736,1.46C64.623,95.912,59.312,98.313,57.719,98.631z"/>
<path d="M40.311,87.439c1.352,0.902,1.715,2.73,0.812,4.082c-0.902,1.352-2.729,1.715-4.081,0.812  c-1.352-0.902-5.341-5.15-4.438-6.502C33.507,84.48,38.958,86.537,40.311,87.439z"/>
<path d="M53.393,92.34c1.601,0.285,2.667,1.812,2.381,3.412c-0.284,1.601-1.812,2.666-3.411,2.383  c-1.601-0.285-6.958-2.576-6.674-4.176C45.973,92.359,51.792,92.056,53.393,92.34z"/>
<path d="M39.893,90.52c1.352,0.902,1.715,2.729,0.812,4.081c-0.902,1.351-2.729,1.716-4.081,0.812  c-1.352-0.903-5.341-5.15-4.438-6.502S38.541,89.616,39.893,90.52z"/>
<path d="M62.353,96.114c-1.551,0.489-3.204-0.37-3.693-1.919c-0.489-1.551,0.369-3.203,1.918-3.692  c1.551-0.489,7.359-0.944,7.85,0.606C68.916,92.658,63.9,95.625,62.353,96.114z"/>
<path d="M69.712,98.414c-1.562-0.449-2.465-2.079-2.016-3.641c0.449-1.562,2.079-2.465,3.641-2.016  c1.562,0.449,6.654,3.283,6.205,4.844C77.093,99.164,71.273,98.863,69.712,98.414z"/>
<path d="M83.615,94.936c-0.777,1.427-2.564,1.955-3.991,1.178c-1.428-0.777-1.954-2.564-1.177-3.992  s4.646-5.782,6.075-5.006C85.949,87.893,84.393,93.508,83.615,94.936z"/>
<path d="M11.615,92.865c1.603,0.269,2.683,1.786,2.414,3.389c-0.269,1.603-1.786,2.684-3.389,2.414  s-6.982-2.507-6.713-4.11C4.195,92.955,10.013,92.596,11.615,92.865z"/>
<path d="M73.793,95.025c-0.776,1.428-2.563,1.954-3.991,1.177c-1.427-0.776-1.955-2.563-1.177-3.99  c0.776-1.428,4.647-5.784,6.076-5.007C76.128,87.982,74.57,93.598,73.793,95.025z"/>
<path d="M65.143,92.943c-0.081,1.623-1.462,2.873-3.086,2.792c-1.622-0.08-2.873-1.462-2.793-3.085  c0.082-1.623,1.679-7.227,3.302-7.146C64.188,85.585,65.223,91.32,65.143,92.943z"/>
<path d="M74.367,89.018c1.298,0.979,1.557,2.824,0.578,4.121s-2.823,1.556-4.12,0.576  c-1.299-0.978-5.037-5.447-4.059-6.745C67.746,85.672,73.07,88.039,74.367,89.018z"/>
<path d="M75.711,91.402c0.034-1.623,1.379-2.914,3.003-2.881c1.626,0.033,2.915,1.379,2.881,3.003  c-0.033,1.625-1.467,7.272-3.093,7.239C76.879,98.73,75.678,93.027,75.711,91.402z"/>
<path d="M63.26,97.681c-1.602-0.272-2.68-1.791-2.406-3.394c0.271-1.603,1.79-2.68,3.393-2.408  c1.603,0.272,6.978,2.522,6.706,4.123C70.68,97.605,64.863,97.953,63.26,97.681z"/>
<path d="M60.913,90.842c0.265,1.604-0.821,3.117-2.427,3.381c-1.604,0.264-3.116-0.824-3.38-2.426  c-0.264-1.604,0.116-7.419,1.72-7.684C58.43,83.85,60.65,89.238,60.913,90.842z"/>
<path d="M57.902,92.986c-0.278,1.601-1.802,2.674-3.404,2.396c-1.6-0.278-2.673-1.802-2.396-3.402  c0.278-1.601,2.548-6.969,4.148-6.69C57.852,85.566,58.18,91.385,57.902,92.986z"/>
<path d="M63.329,89.909c1.187,1.111,1.247,2.974,0.136,4.16c-1.11,1.186-2.973,1.246-4.157,0.136  c-1.187-1.11-4.431-5.952-3.319-7.139C57.099,85.881,62.144,88.799,63.329,89.909z"/>
<path d="M42.581,95.852c-0.777,1.426-2.564,1.953-3.992,1.177s-1.954-2.563-1.177-3.991  c0.777-1.427,4.648-5.782,6.076-5.006C44.915,88.809,43.357,94.424,42.581,95.852z"/>
<path d="M42.562,91.982c1.297,0.979,1.556,2.824,0.577,4.121c-0.979,1.297-2.823,1.557-4.121,0.578  c-1.297-0.979-5.036-5.449-4.058-6.746C35.939,88.639,41.265,91.004,42.562,91.982z"/>
<path d="M92.733,91.977c1.554-0.477,3.2,0.395,3.677,1.948c0.479,1.554-0.395,3.2-1.947,3.677  c-1.553,0.478-7.367,0.887-7.844-0.667C86.141,95.381,91.181,92.454,92.733,91.977z"/>
<path d="M24.574,90.257c1.421-0.789,3.212-0.276,4,1.145c0.789,1.421,0.276,3.212-1.145,4.001  c-1.42,0.789-7.023,2.391-7.812,0.97C18.829,94.951,23.153,91.045,24.574,90.257z"/>
<path d="M17.387,92.118c1.42-0.788,3.211-0.276,4,1.146c0.789,1.42,0.276,3.211-1.146,4  c-1.42,0.789-7.023,2.391-7.812,0.971C11.641,96.812,15.966,92.906,17.387,92.118z"/>
<path d="M27.873,92.402c1.594,0.313,2.633,1.861,2.318,3.455c-0.314,1.596-1.861,2.633-3.456,2.318  s-6.909-2.703-6.595-4.299C20.455,92.283,26.279,92.088,27.873,92.402z"/>
<path d="M27.587,88.921c1.009-1.272,2.859-1.488,4.133-0.479c1.274,1.009,1.489,2.858,0.479,4.134  c-1.009,1.273-5.566,4.905-6.839,3.896C24.086,95.463,26.577,90.195,27.587,88.921z"/>
<path d="M19.492,90.785c0.741-1.447,2.514-2.02,3.96-1.277c1.446,0.74,2.019,2.513,1.277,3.959  c-0.739,1.447-4.5,5.898-5.946,5.158C17.337,97.885,18.752,92.231,19.492,90.785z"/>
<path d="M42.378,92.259c0.311-1.596,1.855-2.637,3.45-2.326c1.596,0.311,2.637,1.855,2.327,3.45  c-0.311,1.596-2.689,6.915-4.283,6.604C42.276,99.677,42.067,93.854,42.378,92.259z"/>
</svg>
