<svg xmlns="http://www.w3.org/2000/svg" xmlns:xlink="http://www.w3.org/1999/xlink" version="1.1" x="0px" y="0px" width="100px" height="100px" viewBox="0 0 100 100" enable-background="new 0 0 100 100" xml:space="preserve">
<g id="Captions">
</g>
<g id="Your_Icon">
	<path d="M44.828,46.555l-2.353-8.193c0,0,1.635-1.559,5.095-0.074l6.953,8.425"/>
	<path d="M46.713,52.08l9.752,8.454c0,0,6.9,1.092,7.607-0.069l-6.064-8.278"/>
	<path d="M8.791,50.648c0,0,5.601-8.045,15.791-7.556c10.19,0.489,11.979,3.174,14.797,3.31l35.421-0.036l0.027-0.542   c0,0,1.652-0.464,5.756,0.06l2.039,0.533l3.387-0.376l0.154,5.797l-44.795,0.799c0,0-12.472,0.977-16.52,1.542   c-4.047,0.566-10.887-0.358-12.384-0.864C10.969,52.807,8.791,50.648,8.791,50.648z"/>
	<polyline points="77.174,46.762 85.984,36.772 91.512,36.705 83.939,48.436  "/>
	<polyline points="82.703,47.027 79.117,33.062 74.402,32.805 75.807,48.044  "/>
	<polyline points="85.812,46.549 91.023,47.719 92,48.598 91.023,49.709 85.975,51.314  "/>
	<polyline points="89.727,48.863 90.086,43.023 89.104,47.537  "/>
	<polyline points="89.521,49.61 88.146,44.537 88.562,48.499  "/>
	<polyline points="88.479,47.988 90.449,55.391 89.607,48.925  "/>
	<polyline points="88.357,47.82 88.463,53.916 89.178,49.037  "/>
</g>
</svg>