<svg xmlns="http://www.w3.org/2000/svg" xmlns:xlink="http://www.w3.org/1999/xlink" version="1.1" x="0px" y="0px" width="100px" height="100px" viewBox="0 0 100 100" enable-background="new 0 0 100 100" xml:space="preserve">
<g id="Captions" display="none">
	<rect x="-330" display="inline" width="185" height="99"/>
	<rect x="-138" y="-36" display="inline" width="100" height="30"/>
	<text transform="matrix(1 0 0 1 -72 -19.5)" display="inline" fill="#000000" font-family="'Helvetica'" font-size="2.4">http://thenounproject.com</text>
	<text transform="matrix(1 0 0 1 -130.834 -24.5)" display="inline"><tspan x="0" y="0" fill="#000000" font-family="'Helvetica-Bold'" font-size="6.1578">The Noun Project</tspan><tspan x="1.12" y="4.8" fill="#000000" font-family="'Helvetica-Bold'" font-size="4">Icon Template</tspan></text>
	
		<text transform="matrix(1 0 0 1 -316.5 10.5)" display="inline" fill="#000000" font-family="'Helvetica-Bold'" font-size="6.1578">Reminders</text>
	<line display="inline" fill="#000000" stroke="#FFFFFF" stroke-miterlimit="10" x1="-130" y1="-14.5" x2="-120" y2="-14.5"/>
	<line display="inline" fill="#000000" stroke="#FFFFFF" stroke-miterlimit="10" x1="-317" y1="16.5" x2="-300" y2="16.5"/>
	<g display="inline">
		<g>
			<g>
				<rect x="-308.802" y="31.318" fill="#000000" width="8.721" height="8.642"/>
				<path fill="#000000" d="M-302.455,42.312h4.747v-4.703h-4.747V42.312z M-297.266,42.749h-5.63V37.17h5.63V42.749      L-297.266,42.749z M-304.221,44.062h8.279v-8.203h-8.279V44.062L-304.221,44.062z M-295.5,44.5h-9.163v-9.079h9.163V44.5      L-295.5,44.5z"/>
				<polygon fill="#000000" points="-304.149,44.133 -304.292,43.991 -296.013,35.787 -295.871,35.929     "/>
			</g>
		</g>
	</g>
	<rect x="-317" y="58" display="inline" fill="none" width="35" height="32.5"/>
	<text transform="matrix(1 0 0 1 -317 60.1572)" display="inline"><tspan x="0" y="0" fill="#000000" font-family="'Helvetica-Bold'" font-size="3">Strokes</tspan><tspan x="0" y="5" fill="#000000" font-family="'Helvetica'" font-size="2.4">Try to keep strokes at 4px</tspan><tspan x="0" y="10" fill="#000000" font-family="'Helvetica'" font-size="2.4">Minimum stroke weight is 2px</tspan><tspan x="0" y="14.5" fill="#000000" font-family="'Helvetica'" font-size="2.4">For thicker strokes use even </tspan><tspan x="0" y="17.5" fill="#000000" font-family="'Helvetica'" font-size="2.4">numbers: 6px, 8px etc.</tspan><tspan x="0" y="22" fill="#000000" font-family="'Helvetica-Bold'" font-size="2.4">Remember to expand strokes </tspan><tspan x="0" y="25" fill="#000000" font-family="'Helvetica-Bold'" font-size="2.4">before saving as an SVG </tspan></text>
	<rect x="-274.5" y="58" display="inline" fill="none" width="35" height="32.5"/>
	<text transform="matrix(1 0 0 1 -274.5 60.1572)" display="inline"><tspan x="0" y="0" fill="#000000" font-family="'Helvetica-Bold'" font-size="3">Size</tspan><tspan x="0" y="5" fill="#000000" font-family="'Helvetica'" font-size="2.4">Cannot be wider or taller than </tspan><tspan x="0" y="8.5" fill="#000000" font-family="'Helvetica'" font-size="2.4">100px (artboard size)</tspan><tspan x="0" y="13.5" fill="#000000" font-family="'Helvetica'" font-size="2.4">Scale your icon to fill as much of </tspan><tspan x="0" y="16.5" fill="#000000" font-family="'Helvetica'" font-size="2.4">the artboard as possible</tspan></text>
	<rect x="-232" y="58" display="inline" fill="none" width="35" height="32.5"/>
	<text transform="matrix(1 0 0 1 -232 60.1572)" display="inline"><tspan x="0" y="0" fill="#000000" font-family="'Helvetica-Bold'" font-size="3">Ungroup</tspan><tspan x="0" y="5" fill="#000000" font-family="'Helvetica'" font-size="2.4">If your design has more than one </tspan><tspan x="0" y="8" fill="#000000" font-family="'Helvetica'" font-size="2.4">shape, make sure to ungroup</tspan></text>
	<rect x="-188" y="58" display="inline" fill="none" width="35" height="32.5"/>
	<text transform="matrix(1 0 0 1 -188 60.1572)" display="inline"><tspan x="0" y="0" fill="#000000" font-family="'Helvetica-Bold'" font-size="3">Save as</tspan><tspan x="0" y="5" fill="#000000" font-family="'Helvetica'" font-size="2.4">Save as .SVG and make sure </tspan><tspan x="0" y="8" fill="#000000" font-family="'Helvetica'" font-size="2.4">&#8220;Use Artboards&#8221; is checked</tspan></text>
	
		<text transform="matrix(1.0074 0 0 1 -263.542 30.5933)" display="inline" fill="#000000" font-family="'Helvetica'" font-size="2.5731">100px</text>
	
		<text transform="matrix(1.0074 0 0 1 -179 39)" display="inline" fill="#000000" font-family="'Helvetica-Bold'" font-size="5.1462">.SVG</text>
	<rect x="-264.514" y="34.815" display="inline" fill="#000000" width="10.261" height="10.185"/>
	<rect x="-264.477" y="31.766" display="inline" fill="#000000" width="0.522" height="2.337"/>
	<rect x="-254.812" y="31.766" display="inline" fill="#000000" width="0.523" height="2.337"/>
	<rect x="-265" y="32.337" display="inline" fill="#000000" width="11.233" height="0.572"/>
	<g display="inline">
		<rect x="-221.805" y="33.844" fill="#000000" width="10.305" height="10.156"/>
		<rect x="-214.809" y="28.707" fill="#000000" width="3.308" height="3.261"/>
	</g>
	<rect x="-316.5" y="22.5" display="inline" fill="#000000" stroke="#FFFFFF" stroke-miterlimit="10" width="30" height="30"/>
	<rect x="-274.5" y="22.5" display="inline" fill="#000000" stroke="#FFFFFF" stroke-miterlimit="10" width="30" height="30"/>
	<rect x="-231.5" y="22.5" display="inline" fill="#000000" stroke="#FFFFFF" stroke-miterlimit="10" width="30" height="30"/>
	<rect x="-187.5" y="22.5" display="inline" fill="#000000" stroke="#FFFFFF" stroke-miterlimit="10" width="30" height="30"/>
</g>
<g id="Your_Icon">
	<path d="M-81.785,43.669c0.076,0.042,0.155,0.08,0.229,0.125c0.198,0.122,0.438,0.212,0.58,0.381   c0.124,0.146,0.204,0.391,0.185,0.58c-0.024,0.231,0.013,0.292,0.237,0.306c0.782,0.05,1.545-0.002,2.27-0.333   c0.104-0.047,0.229-0.062,0.345-0.067c1.643-0.067,3.288-0.126,4.933-0.193s28.169-1.179,29.834-1.246   c0.054-0.002,0.11,0.007,0.173,0.012c-0.339,0.354-0.687,0.68-0.988,1.044c-0.294,0.354-0.652,0.463-1.096,0.491   c-2.15,0.138-29.396,2.095-30.498,2.18c-0.061,0.004-0.118,0.037-0.254,0.081c0.229,0.129,0.394,0.22,0.556,0.315   c0.491,0.29,0.984,0.575,1.219,1.143c0.029,0.074,0.114,0.132,0.184,0.184c0.509,0.382,1.016,0.768,1.535,1.135   c0.094,0.067,0.252,0.098,0.366,0.074c0.834-0.172,1.542,0.053,2.165,0.621c0.113,0.103,0.284,0.175,0.438,0.192   c0.442,0.05,0.793,0.195,1.03,0.616c0.123,0.218,0.361,0.379,0.568,0.541c0.614,0.484,1.253,0.939,1.855,1.437   c0.323,0.267,0.509,0.635,0.566,1.067c0.014,0.099,0.126,0.207,0.221,0.267c0.927,0.579,1.809,1.213,2.52,2.05   c0.226,0.266,0.431,0.566,0.567,0.884c0.442,1.032-0.241,1.995-1.369,1.96c-0.689-0.021-1.341-0.21-1.923-0.567   c-0.572-0.354-1.107-0.77-1.658-1.156c-0.082-0.058-0.167-0.11-0.306-0.204c0.023,0.333,0.055,0.592,0.058,0.852   c0.004,0.875-0.44,1.225-1.303,1.03c-0.141-0.031-0.276-0.074-0.497-0.136c0.08,0.18,0.124,0.301,0.185,0.412   c1.015,1.877,2.031,3.754,2.815,5.743c0.168,0.425,0.253,0.881,0.391,1.319c0.036,0.112,0.109,0.226,0.192,0.31   c0.595,0.598,1.229,1.16,1.788,1.788c0.534,0.598,0.832,1.326,0.747,2.153c-0.043,0.417-0.296,0.714-0.668,0.909   c-0.518,0.271-1.083,0.354-1.649,0.344c-0.242-0.005-0.49-0.178-0.718-0.307c-0.224-0.126-0.369-0.101-0.593,0.054   c-0.919,0.628-1.865,1.219-2.809,1.812c-0.168,0.106-0.27,0.213-0.308,0.422c-0.077,0.422-0.268,0.793-0.69,1.04   c0.242,0.275,0.461,0.521,0.678,0.771c0.216,0.249,0.188,0.518-0.078,0.758c-0.238,0.216-0.521,0.197-0.749-0.056   c-0.32-0.357-0.638-0.717-0.947-1.083c-0.139-0.164-0.282-0.244-0.511-0.272c-0.237-0.03-0.495-0.155-0.678-0.313   c-0.398-0.346-0.762-0.731-1.125-1.115c-0.175-0.185-0.343-0.285-0.62-0.302c-1.235-0.073-2.312-0.595-3.247-1.366   c-1.793-1.479-3.324-3.208-4.687-5.087c-0.109-0.15-0.223-0.231-0.416-0.154c-1.107,0.442-2.244,0.822-3.319,1.331   c-0.921,0.438-1.637,0.225-2.326-0.408c-0.059-0.055-0.131-0.097-0.196-0.144c-0.024,0.018-0.05,0.035-0.075,0.052   c0.046,0.106,0.081,0.218,0.137,0.316c0.423,0.753,0.822,1.516,1.004,2.37c0.026,0.122,0.035,0.25,0.051,0.376   c0.112,0.874-0.563,1.223-1.138,1.268c-0.959,0.077-1.761-0.334-2.399-0.979c-0.972-0.98-1.905-2.005-2.786-3.065   c-0.548-0.659-0.969-1.424-1.448-2.139c-0.075-0.112-0.156-0.219-0.271-0.379c-0.08,0.152-1.09,2.699-1.551,3.864   c-0.04,0.101-0.146,0.229-0.239,0.244c-0.643,0.103-1.291,0.179-1.977,0.269c0.056-0.125,0.092-0.214,0.135-0.299   c1.866-3.74,3.733-7.478,5.6-11.218c0.292-0.586,0.597-1.167,0.873-1.762c0.054-0.116,0.054-0.312-0.007-0.421   c-1.133-2.016-2.261-4.031-3.02-6.225c-0.089-0.257-0.235-0.17-0.391-0.108c-1.894,0.742-31.644,12.401-36.268,14.219   c-0.044,0.018-0.023-0.423,0.021-0.651c0.117-0.596,0.47-0.879,1.045-1.092c3.531-1.304,31.363-11.868,34.794-13.161   c0.257-0.097,0.317-0.189,0.222-0.463c-0.434-1.256-0.704-2.545-0.651-3.884c0.007-0.185-0.055-0.252-0.245-0.274   c-1.633-0.188-22.696-2.702-24.135-2.866c-0.364-0.041-0.728-0.093-1.177-0.152c0.155-0.169,0.25-0.301,0.372-0.399   c0.556-0.447,1.152-0.643,1.9-0.517c1.667,0.28,22.259,3.063,22.558,3.113c0.155,0.025,0.237-0.026,0.281-0.175   c0.153-0.516,0.334-1.024,0.456-1.547c0.044-0.191-0.014-0.429-0.088-0.621c-0.145-0.373-0.325-0.733-0.507-1.09   c-1.155-2.263-2.557-4.376-3.967-6.484c-0.017-0.024-0.035-0.047-0.051-0.071c-0.216-0.324-0.452-0.581-0.906-0.416   c-0.148,0.054-0.331,0.031-0.495,0.017c-0.381-0.034-0.48-0.194-0.361-0.55c0.027-0.081,0.049-0.164,0.097-0.32   c-0.182,0.047-0.308,0.069-0.425,0.113c-2.633,1.002-5.265,2.006-7.898,3.01c-0.566,0.216-1.135,0.428-1.703,0.639   c-0.249,0.092-0.409,0.004-0.65-0.373c0.15-0.067,0.294-0.137,0.441-0.198c2.098-0.87,4.196-1.74,6.294-2.605   c1.357-0.56,2.716-1.113,4.074-1.669c0.372-0.152,0.366-0.151,0.206-0.511c-0.075-0.169-0.153-0.345-0.18-0.525   c-0.019-0.131,0.043-0.274,0.069-0.413c0.144,0.03,0.327,0.016,0.425,0.1c0.212,0.182,0.398,0.402,0.565,0.628   c0.254,0.345,0.687,0.513,1.099,0.369c0.487-0.17,0.97-0.354,1.451-0.54c0.208-0.08,0.245-0.235,0.144-0.427   c-0.154-0.293-0.314-0.585-0.468-0.878c-1.071-2.036-2.142-4.072-3.211-6.108c-0.042-0.081-0.075-0.167-0.112-0.25   c0.022-0.01,0.042-0.021,0.064-0.031c0.066,0.103,0.136,0.205,0.198,0.311c1.25,2.105,2.498,4.21,3.749,6.314   c0.054,0.091,0.114,0.192,0.198,0.25c0.504,0.348,0.594,0.855,0.608,1.417c0.005,0.234,0.072,0.485,0.177,0.694   c0.641,1.288,1.301,2.565,1.954,3.847c0.048,0.094,0.089,0.191,0.085,0.317c-0.048-0.08-0.101-0.159-0.145-0.242   c-0.736-1.37-1.473-2.741-2.208-4.112c-0.179-0.333-0.201-0.363-0.537-0.172c-0.44,0.249-0.859,0.536-1.278,0.82   c-0.176,0.119-0.199,0.268-0.073,0.474c1.029,1.678,2.041,3.366,3.066,5.045c0.644,1.053,1.299,2.097,1.961,3.138   c0.069,0.109,0.211,0.193,0.336,0.24c0.643,0.242,1.849,0.465,1.937,0.49c1.577,0.459,3.153,0.92,4.734,1.368   c0.126,0.036,0.293,0.021,0.413-0.034c0.685-0.312,1.345-0.682,2.108-0.784c0.072-0.01,0.16-0.109,0.191-0.187   c0.202-0.51,0.32-1.027,0.364-1.587c0.041-0.541,0.274-1.071,0.452-1.597c0.381-1.13,0.793-2.25,1.172-3.381   c0.923-2.755,1.833-5.515,2.75-8.272c0.397-1.196,0.796-2.392,1.195-3.587c0.039-0.118,0.087-0.234,0.128-0.349   c0.435,0.101,0.437,0.101,0.366,0.459c-0.579,2.916-1.16,5.832-1.741,8.748c-0.406,2.044-0.809,4.09-1.227,6.132   c-0.028,0.147-0.131,0.307-0.246,0.406c-0.669,0.574-1.329,1.162-2.039,1.683c-0.479,0.351-0.527,0.851-0.695,1.37   c0.197,0.026,0.359,0.045,0.52,0.07c0.43,0.066,0.823,0.188,1.018,0.637c0.024,0.057,0.11,0.116,0.173,0.123   c0.293,0.032,0.586,0.042,0.879,0.067c0.164,0.014,0.227-0.051,0.227-0.218c0-0.967,0.501-1.185,1.312-0.709   c0.244,0.143,0.418,0.14,0.663,0.003c2.901-1.61,22.046-12.142,24.573-13.518c0.11-0.06,0.261-0.093,0.385-0.077   c0.345,0.046,0.684,0.124,1.125,0.208c-0.324,0.293-0.558,0.579-0.855,0.763c-1.814,1.124-15.676,9.512-17.009,10.351   c-0.524,0.33-1.071,0.542-1.676,0.658c-1.16,0.224-2.318,0.463-3.47,0.733c-0.354,0.083-0.686,0.282-1.02,0.44   c-0.646,0.306-1.288,0.621-1.93,0.935c-0.108,0.053-0.228,0.081-0.185,0.272c0.069,0.316-0.043,0.497-0.357,0.558   c-0.265,0.052-0.543,0.044-0.815,0.06c-0.09,0.005-0.18,0-0.27,0C-81.77,43.607-81.777,43.638-81.785,43.669z"/>
	<path fill-rule="evenodd" clip-rule="evenodd" d="M62.127,58.946c0.148,0.24,0.407,0.392,0.64,0.568   c0.206,0.155,0.312,0.295,0.167,0.618c-0.257,0.578-0.511,1.149-0.896,1.652c-0.402,0.527-0.93,0.885-1.575,1.047   c-0.127,0.032-0.271,0.011-0.407,0.005c-0.523-0.022-1.032,0.099-1.547,0.163c-0.594,0.075-1.185,0.171-1.777,0.253   c-0.448,0.062-0.898,0.13-1.346,0.214c-0.304,0.057-0.62,0.078-0.931,0.128c-0.623,0.1-1.252,0.164-1.865,0.302   c-0.553,0.125-1.111,0.222-1.666,0.333c-0.728,0.146-1.451,0.306-2.186,0.423c-0.656,0.104-1.301,0.279-1.956,0.398   c-0.729,0.133-1.457,0.284-2.184,0.429c-0.379,0.075-0.728-0.02-1.081-0.041c-0.327-0.021-1.732-0.14-2.103-0.149   c-1.188-0.029-2.322-0.302-3.411-0.764c-0.347-0.146-0.715-0.231-1.056-0.396C36.803,64.06,7.211,68.26,6.729,68.372   c-0.082,0.02-0.202,0.067-0.293-0.049c-0.423-0.539-1.3-1.664-1.311-1.694c0,0-0.076-0.023-0.016-0.043   c0.433-0.142,29.657-3.853,30.178-3.943c0.253-0.042,0.534,0.014,0.76-0.165c0-0.053-0.292-0.289-0.292-0.289   c-2.382-1.189-4.765-2.376-7.146-3.562c-2.8-1.392-5.602-2.78-8.4-4.173c-0.207-0.103-0.447-0.151-0.609-0.323   c-0.125-0.131-0.091-0.112-0.091-0.112c0.243-0.233,0.591-0.213,0.875-0.351c0.484-0.236,0.858,0.104,1.251,0.27   c1.389,0.586,2.763,1.203,4.145,1.801c1.292,0.559,2.593,1.096,3.879,1.667c1.186,0.527,2.477,1.021,3.656,1.565   C34.145,59.354,36,60.086,36,60.115V60.08v-0.052c0-0.607,0.699-1.269,1.1-1.899c0.105-0.165,0.173-0.285,0.366-0.318   c1.043-0.176,2.028-0.516,3.097-0.598c0.594-0.046,1.16-0.052,1.74,0.072c0.747,0.16,1.246,0.58,1.416,1.343   c0.027,0.114-0.055,0.67-0.055,0.67c-0.021-0.139,10.148-10.804,10.998-11.696c0.077-0.082,0.138-0.212,0.29-0.176   c0.421,0.097,0.861,0.11,1.268,0.309c-0.236,0.383-8.023,9.195-9.166,10.519c-0.133,0.154-0.341,0.278-0.358,0.519   c0,0-0.021,0.007,0.118,0.034c0.178,0.035,0.373,0.025,0.553-0.009c0.482-0.092,0.973-0.115,1.459-0.171   c0.407-0.045,0.816-0.082,1.224-0.129c0.477-0.053,0.954-0.111,1.431-0.162c0.407-0.045,0.817-0.084,1.224-0.131   c0.229-0.027,0.46-0.074,0.685-0.264c1.239-1.045,2.53-2.013,4.217-2.24c0.505-0.067,1.001-0.084,1.488,0.043   c0.775,0.203,1.429,0.611,1.895,1.28c0.101,0.144,0.236,0.176,0.381,0.142c0.691-0.168,30.729-7.365,32.438-7.792   c0.1-0.024,0.16,0.004,0.235,0.036c0,0,0.063-0.056-0.005,0.084c-0.277,0.565-0.661,1.064-1.022,1.574   c-0.126,0.178-0.381,0.151-0.578,0.204C91.184,51.602,62.244,58.946,62.127,58.946z"/>
</g>
</svg>