<svg xmlns="http://www.w3.org/2000/svg" xmlns:xlink="http://www.w3.org/1999/xlink" version="1.1" x="0px" y="0px" width="100px" height="100px" viewBox="0 0 100 100" enable-background="new 0 0 100 100" xml:space="preserve">
<g id="Captions">
</g>
<g id="Your_Icon">
	<g>
		<path d="M69.661,83.085V45.742h4.415v-2.489H25.919v2.489h4.938v37.343h-4.479v1.871h48.153v-1.871H69.661z M64.587,83.085h-6.331    V45.742h6.331V83.085z M53.182,83.085h-6.088V45.742h6.088V83.085z M35.926,45.742h6.098v37.343h-6.098V45.742z"/>
		<g>
			<rect x="21.111" y="87.681" width="58.688" height="4.446"/>
		</g>
		<g>
			<rect x="16.479" y="94.937" width="67.041" height="4.452"/>
		</g>
		<g>
			<path d="M25.784,41.313c0-13.431,10.878-24.309,24.304-24.309c13.426,0,24.309,10.878,24.309,24.309"/>
		</g>
		<g>
			<g>
				<rect x="49.01" y="0.611" width="1.876" height="17.525"/>
			</g>
			<g>
				<rect x="49.01" y="0.611" width="13.408" height="8.853"/>
			</g>
		</g>
	</g>
</g>
</svg>