<svg xmlns="http://www.w3.org/2000/svg" xmlns:xlink="http://www.w3.org/1999/xlink" xmlns:a="http://ns.adobe.com/AdobeSVGViewerExtensions/3.0/" version="1.1" x="0px" y="0px" width="100px" height="100px" viewBox="-43.18 -9.774 100 100" enable-background="new -43.18 -9.774 100 100" xml:space="preserve">
<defs>
</defs>
<polygon points="5.188,70.226 6.48,70.226 6.48,62.738 6.48,61.938 6.48,48.678 5.188,48.678 5.188,56.02 5.188,56.834 "/>
<path d="M2.604,36.691c0.885-0.51,1.887-0.126,2.272,0.571C5.31,38.047,5.578,39,5.768,40.081c0.287-1.347,0.748-2.687,1.668-3.585  c1.811-0.197,3.055,0.953,3.538,2.26c1.438,3.888-1.278,6.938-3.813,8.281c-0.28,0.148-0.987,0.846-1.279,1.084  c-2.078-1.541-4.391-3.061-5.435-5.637C-0.131,39.916,0.984,37.626,2.604,36.691z"/>
<path d="M3.572,28.457c0.619-0.357,1.32-0.088,1.591,0.398c0.304,0.549,0.491,1.217,0.625,1.974c0.2-0.942,0.522-1.88,1.167-2.51  c1.268-0.138,2.139,0.667,2.477,1.583c1.007,2.721-0.895,4.855-2.669,5.796c-0.196,0.104-0.69,0.593-0.896,0.759  c-1.455-1.078-3.074-2.142-3.804-3.945C1.658,30.714,2.439,29.111,3.572,28.457z"/>
<path d="M4.252,22.761c0.432-0.251,0.924-0.063,1.112,0.28c0.212,0.383,0.345,0.851,0.437,1.38c0.141-0.659,0.366-1.315,0.818-1.757  c0.887-0.096,1.496,0.467,1.733,1.107c0.704,1.904-0.627,3.4-1.868,4.059C6.347,27.902,6,28.244,5.857,28.361  c-1.019-0.756-2.152-1.5-2.663-2.762C2.91,24.34,3.457,23.218,4.252,22.761z"/>
<path d="M6.322,14.285V0.326C6.322,0.146,6.176,0,5.996,0S5.671,0.146,5.671,0.326v13.959c-0.413,0.65-1.074,1.915-1.074,3.371  c0,2.119,0.627,3.836,1.399,3.836c0.773,0,1.4-1.717,1.4-3.836C7.396,16.201,6.736,14.936,6.322,14.285z"/>
<path d="M3.119,7.753c-0.181,0-0.326,0.146-0.326,0.325v13.748l0,0c0.195-0.182,0.398-0.334,0.631-0.469l0.02-0.008V8.078  C3.443,7.898,3.299,7.753,3.119,7.753z"/>
<path d="M8.87,7.753c0.18,0,0.325,0.146,0.325,0.325v13.748l0,0C9,21.645,8.797,21.492,8.564,21.357l-0.02-0.008V8.078  C8.545,7.898,8.69,7.753,8.87,7.753z"/>
<path d="M1.631,13.461c-0.181,0-0.326,0.145-0.326,0.324v13.748l0,0c0.195-0.181,0.398-0.334,0.632-0.469l0.019-0.007V13.785  C1.955,13.605,1.811,13.461,1.631,13.461z"/>
<path d="M10.223,13.461c0.18,0,0.326,0.145,0.326,0.324v13.748l0,0c-0.197-0.181-0.398-0.334-0.633-0.469l-0.02-0.007V13.785  C9.896,13.605,10.043,13.461,10.223,13.461z"/>
<path d="M0.326,22.122C0.146,22.122,0,22.268,0,22.447v13.748l0,0c0.196-0.182,0.398-0.334,0.632-0.469l0.02-0.008V22.447  C0.651,22.268,0.506,22.122,0.326,22.122z"/>
<path d="M11.496,22.122c0.18,0,0.324,0.146,0.324,0.325v13.748l0,0c-0.195-0.182-0.397-0.334-0.631-0.469l-0.02-0.008V22.447  C11.17,22.268,11.316,22.122,11.496,22.122z"/>
</svg>