<svg xmlns="http://www.w3.org/2000/svg" xmlns:xlink="http://www.w3.org/1999/xlink" version="1.1" id="Layer_1" x="0px" y="0px" width="100px" height="99.869px" viewBox="0 0 100 99.869" enable-background="new 0 0 100 99.869" xml:space="preserve">
<polygon points="89.583,45.702 92.277,48.395 84.554,56.119 72.054,56.119 63.459,64.714 52.084,68.506   39.423,64.285 31.25,68.75 31.25,72.917 39.745,68.786 52.084,72.897 65.709,68.356 73.779,60.286 86.279,60.286 95.224,51.341   97.917,54.036 100,43.619 "/>
<polygon points="40.04,73.276 39.584,73.498 39.584,75.492 43.083,74.291 "/>
<polygon points="40.04,73.276 31.25,77.552 31.25,99.869 43.75,99.869 43.75,74.512 "/>
<path d="M44.369,0.137c-0.391-0.122-0.793-0.165-1.172-0.059C42.685,0.059,42.184,0,41.667,0  c-0.516,0-1.017,0.059-1.528,0.078c-0.38-0.106-0.783-0.063-1.173,0.059C17.252,1.541,0,19.603,0,41.667  C0,59.51,11.287,74.737,27.084,80.663v-1.084v-4.562v-2.1v-0.565V68.75v-1.835c-0.794-0.187-1.594-0.366-2.373-0.588  c-2.755-5.245-4.545-11.347-5.18-17.766c6.111,1.992,12.927,3.196,20.052,3.465v7.921l1.158,0.384l3.009,1.004v-9.309  c7.125-0.269,13.943-1.473,20.052-3.465c-0.438,4.426-1.459,8.676-2.933,12.622l0.338-0.111l5.689-5.688  c0.6-2.734,1.021-5.544,1.205-8.407c4.15-1.715,7.874-3.824,11.016-6.29c0.008,0.329,0.049,0.648,0.049,0.98  c0,3.572-0.546,7.011-1.487,10.284h4.337c0.849-3.29,1.316-6.73,1.316-10.284C83.333,19.603,66.085,1.541,44.369,0.137z   M30.988,5.738c-3.667,3.273-6.761,7.135-9.223,11.464c-1.915-1.013-3.608-2.175-5.031-3.467  C20.798,10.104,25.634,7.333,30.988,5.738z M13.804,16.659c1.725,1.595,3.767,3.007,6.062,4.228  c-2.511,5.469-4.093,11.548-4.6,18.044c-0.09,1.161-0.136,2.319-0.154,3.475c-4.054-1.854-7.584-4.136-10.411-6.791  C5.881,28.394,9.117,21.875,13.804,16.659z M7.723,56.861c-0.134-0.134-0.298-0.213-0.456-0.303  c-1.986-4.569-3.101-9.599-3.101-14.891c0-0.332,0.041-0.651,0.05-0.98c3.142,2.466,6.867,4.575,11.017,6.29  c0.396,6.152,1.783,12.094,4.017,17.444C14.879,62.572,10.935,60.074,7.723,56.861z M21.925,69.849  c1.201,2.086,2.545,4.033,4.024,5.819c-4.874-2.263-9.181-5.528-12.653-9.55C16.003,67.627,18.893,68.873,21.925,69.849z   M39.584,47.861c-7.302-0.283-14.239-1.583-20.302-3.748c-0.022-1.611,0.011-3.232,0.139-4.858  c0.467-5.994,1.926-11.595,4.237-16.622c4.724,1.876,10.167,3.019,15.926,3.304V47.861z M39.584,21.778  c-5.037-0.283-9.844-1.276-14-2.858c3.433-5.911,8.177-10.828,14-14.391V21.778z M66.602,13.735  c-1.423,1.292-3.116,2.454-5.032,3.467c-2.462-4.33-5.555-8.191-9.221-11.464C57.702,7.333,62.537,10.104,66.602,13.735z   M43.75,4.529c5.825,3.562,10.567,8.48,14.002,14.391c-4.157,1.583-8.964,2.576-14.002,2.858V4.529z M43.75,47.861V25.937  c5.762-0.285,11.202-1.428,15.926-3.304c2.312,5.027,3.772,10.628,4.238,16.622c0.128,1.626,0.16,3.247,0.138,4.858  C57.99,46.278,51.055,47.578,43.75,47.861z M68.225,42.406c-0.02-1.155-0.064-2.313-0.154-3.475  c-0.509-6.496-2.092-12.576-4.601-18.044c2.294-1.221,4.336-2.633,6.062-4.228c4.688,5.217,7.923,11.735,9.103,18.956  C75.806,38.27,72.277,40.552,68.225,42.406z"/>
<polygon points="52.084,77.29 47.917,75.9 47.917,99.869 60.417,99.869 60.417,74.512 "/>
<polygon points="75.507,64.452 67.961,71.998 64.584,73.124 64.584,99.869 77.083,99.869 77.083,64.452 "/>
<polygon points="88.007,64.452 81.25,64.452 81.25,99.869 93.75,99.869 93.75,58.707 "/>
</svg>
