<svg xmlns="http://www.w3.org/2000/svg" xmlns:xlink="http://www.w3.org/1999/xlink" version="1.1" x="0px" y="0px" width="100px" height="92.316px" viewBox="0 0 100 92.316" enable-background="new 0 0 100 92.316" xml:space="preserve">
<g id="Layer_1">
	<path d="M56.906,69.679c0,0,0.062-4.649,4.895-7.437c1.459-0.843,4.22-2.018,9.876-1.186c7.486,1.099,11.912,5.929,12.908,7.101   c1.914,1.793,2.363,4.74,0.92,7.049c-0.335,0.752-11.261,11.134-11.261,11.134h11.921c1.646,0.002,2.982,1.335,2.982,2.979   c0,1.652-1.337,2.985-2.982,2.985H67.469c-1.184,0-2.248-0.655-2.831-1.899c-0.743-1.584,0.253-3.43,0.596-3.976l8.196-13.176   c-0.984-0.582-2.287-1.26-3.802-1.636c-3.209-0.795-5.74-0.617-6.799-0.48v18.099c0,1.598-1.294,2.892-2.891,2.892   c-1.604,0-3.028-1.294-3.028-2.892L56.906,69.679z"/>
	<path d="M38.959,76.106c-2.662-1.343-3.727-4.592-2.384-7.248c1.335-2.647,4.584-3.717,7.249-2.367   c2.654,1.354,3.718,4.595,2.38,7.247C44.858,76.388,41.607,77.454,38.959,76.106z"/>
	<polygon points="47.697,20.465 34.833,30.999 34.833,11.146 47.697,11.146  "/>
	<g>
		<path d="M41.34,79.682c-4.542,0-8.265-3.48-8.66-7.919h-5.293v20.553h27.752V71.763H50C49.605,76.202,45.882,79.682,41.34,79.682z    "/>
		<path d="M23.525,0v5.472h3.893V56.6h-0.031v13.413h5.311c0.483-4.347,4.166-7.729,8.642-7.729c4.477,0,8.159,3.382,8.642,7.729    h5.157v-5.239h0.033V5.471h3.624V0H23.525z M49.7,56.6H32.889V5.471H49.7V56.6z"/>
	</g>
</g>
<g id="Layer_2_1_">
</g>
</svg>