<svg xmlns="http://www.w3.org/2000/svg" xmlns:xlink="http://www.w3.org/1999/xlink" version="1.1" x="0px" y="0px" width="100px" height="100px" viewBox="0 0 100 100" enable-background="new 0 0 100 100" xml:space="preserve">
<g id="Captions">
	<g>
		<path d="M63.911,88.618c0.053-0.233,0.08-0.473,0.08-0.715c0-0.584-0.159-1.149-0.455-1.69c0.335,4.06-5.782,7.84-13.388,7.84    c-7.559,0-13.938-3.744-13.705-7.82C36.154,86.767,36,87.327,36,87.903c0,0.242,0.028,0.481,0.081,0.715    C36.028,88.853,36,89.092,36,89.332c0,0.242,0.028,0.48,0.081,0.715C36.028,90.281,36,90.521,36,90.761    c0,3.681,6.266,6.664,13.996,6.664c7.729,0,13.995-2.983,13.995-6.664c0-0.24-0.027-0.479-0.08-0.714    c0.053-0.234,0.08-0.473,0.08-0.715C63.991,89.092,63.964,88.853,63.911,88.618z"/>
		<path d="M50.148,92.565c7.605,0,13.723-3.78,13.388-7.841c-0.087-1.059-0.607-2.138-1.665-3.173    c-1.213-1.189-1.958-2.23-2.403-3.112c-1.299,1.9-5.047,3.274-9.472,3.274c-4.25,0-7.877-1.269-9.307-3.053    c-0.504,0.596-1.359,1.547-2.799,3.068c-0.938,0.991-1.39,2.013-1.447,3.016C36.211,88.82,42.59,92.565,50.148,92.565z"/>
		<path d="M40.689,77.545c1.43,1.785,5.057,3.053,9.307,3.053c4.425,0,8.173-1.374,9.472-3.274c0.316-0.462,0.489-0.956,0.489-1.469    c0-0.171-0.021-0.342-0.058-0.509c0.037-0.166,0.058-0.336,0.058-0.508s-0.021-0.341-0.058-0.508    c0.037-0.167,0.058-0.337,0.058-0.508c0-0.653-0.278-1.276-0.78-1.843c0.01-0.438-0.063-0.892-0.232-1.359    c-0.146-0.403-0.359-0.815-0.65-1.233c-2.283-3.276-1.469-28.052-1.271-31.683c-1.621,0.709-4.527,1.144-6.903,1.144    c-2.518,0-5.541-0.487-7.189-1.274c0.421,2.642,1.715,26.442-1.356,31.938c-0.198,0.353-0.343,0.698-0.449,1.038    c-0.141,0.45-0.202,0.888-0.192,1.308c-0.573,0.599-0.896,1.264-0.896,1.965c0,0.171,0.02,0.341,0.057,0.508    c-0.037,0.167-0.057,0.336-0.057,0.508s0.02,0.342,0.057,0.508c-0.037,0.167-0.057,0.338-0.057,0.509    C40.035,76.45,40.268,77.021,40.689,77.545z M40.975,72.32c0.428,2.795,4.132,4.746,9.145,4.746c4.924,0,8.567-1.947,9.013-4.605    c0.519,3.211-3.422,5.721-9.013,5.721C44.463,78.182,40.468,75.699,40.975,72.32z"/>
		<path d="M41.151,26.527c0.226,0.247,0.513,0.48,0.847,0.699c-0.593,0.576-0.926,1.222-0.926,1.905c0,0.158,0.02,0.312,0.054,0.465    c-0.034,0.152-0.054,0.308-0.054,0.464c0,0.156,0.02,0.312,0.054,0.465c-0.034,0.152-0.054,0.308-0.054,0.464    c0,1.195,1.016,4.507,2.658,5.292c1.647,0.786,3.928,1.274,6.445,1.274c2.376,0,4.539-0.434,6.159-1.144    c1.811-0.792,2.945-4.16,2.945-5.422c0-0.156-0.019-0.312-0.053-0.464c0.034-0.153,0.053-0.309,0.053-0.465    c0-0.157-0.019-0.312-0.053-0.464c0.034-0.153,0.053-0.307,0.053-0.465c0-0.74-0.394-1.437-1.082-2.047    c0.322-0.233,0.595-0.482,0.799-0.742c0.3-0.386,0.465-0.797,0.465-1.225c0-0.143-0.02-0.285-0.055-0.423    c0.035-0.139,0.055-0.28,0.055-0.424s-0.02-0.285-0.055-0.424c0.035-0.139,0.055-0.28,0.055-0.424    c0-0.623-0.347-1.214-0.963-1.739c1.222,2.96-2.68,5.375-8.386,5.375c-5.717,0-9.648-2.341-8.549-5.434    c-0.66,0.54-1.035,1.15-1.035,1.798c0,0.144,0.02,0.285,0.055,0.424c-0.035,0.139-0.055,0.28-0.055,0.424s0.02,0.285,0.055,0.424    c-0.035,0.139-0.055,0.28-0.055,0.423C40.529,25.613,40.751,26.088,41.151,26.527z"/>
		<path d="M41.927,20.578c0,0.125,0.017,0.249,0.047,0.372c-0.03,0.122-0.047,0.247-0.047,0.372s0.017,0.25,0.047,0.372    c-0.03,0.122-0.047,0.247-0.047,0.372c0,0.436,0.188,0.854,0.53,1.239c1.158,1.308,4.097,2.235,7.539,2.235    c3.583,0,6.62-1.006,7.671-2.398c0.258-0.339,0.398-0.7,0.398-1.076c0-0.125-0.018-0.25-0.047-0.372    c0.029-0.122,0.047-0.247,0.047-0.372s-0.018-0.25-0.047-0.372c0.029-0.123,0.047-0.247,0.047-0.372    c0-0.541-0.648-1.412-1.17-1.878c4.074-7.576-0.912-8.696-4.947-8.86c0.018-0.117,0.029-0.238,0.029-0.361V8.264h2.038    c0.653,0,1.183-0.625,1.183-1.394s-0.529-1.393-1.183-1.393h-2.038v-0.41C51.978,3.925,51.146,3,50.119,3    c-1.024,0-1.857,0.925-1.857,2.067v0.41H46.35c-0.652,0-1.184,0.624-1.184,1.393s0.531,1.394,1.184,1.394h1.912v1.215    c0,0.106,0.009,0.21,0.023,0.312c-4.104-0.017-9.188,0.535-5.18,8.904C42.559,19.183,41.927,20.033,41.927,20.578z M43.207,18.911    c0.161,0.329,0.16,0.718,0.446,1.042c0.976,1.1,3.446,1.881,6.343,1.881c3.015,0,5.569-0.847,6.454-2.018    c0.217-0.285,0.182-0.628,0.334-0.905c0.036-0.066,0.066-0.128,0.102-0.194c0.996,2.579-1.949,4.311-6.79,4.311    c-4.789,0-7.746-1.628-6.956-4.263C43.163,18.814,43.183,18.86,43.207,18.911z"/>
	</g>
</g>
<g id="Your_Icon">
</g>
</svg>