<svg xmlns="http://www.w3.org/2000/svg" xmlns:xlink="http://www.w3.org/1999/xlink" version="1.1" id="Capa_1" x="0px" y="0px" width="100px" height="100px" viewBox="0 0 100 100" enable-background="new 0 0 100 100" xml:space="preserve">
<g>
	<path d="M33.761,50.169c3.707,2.249,8.518,1.065,10.759-2.63s1.074-8.51-2.636-10.764c-3.694-2.242-8.513-1.062-10.754,2.633   C28.884,43.107,30.065,47.92,33.761,50.169z"/>
	<path d="M24.635,63.545c1.558-3.352,2.478-4.932,2.911-5.604l4.684,5.869c0.598,0.744,1.486,1.193,2.439,1.234l15.138-0.089   l0.223-5.142L36.454,58.49l-7.873-9.876c-1.12-1.417-2.795-2.387-4.739-2.516c-5.152-0.339-7.795,4.475-11.228,11.865   c-3.398,7.318-4.112,12.865-2.135,16.529l3.53,9.232L0,84.309v7.117l20.019,0.584c1.362,0,2.637-0.671,3.411-1.791   c0.772-1.123,0.944-2.553,0.459-3.826l-3.164-8.285l12.28-1.773l0.594,15.098h7.096l0.594-19.881c0-1.201-0.522-2.345-1.431-3.132   c-0.908-0.786-2.118-1.144-3.304-0.967L22.729,69.45c-0.018-0.056-0.027-0.112-0.047-0.167   C22.761,68.598,23.112,66.823,24.635,63.545z"/>
</g>
<g>
	<path d="M81.951,23.641c4.328-0.233,7.636-3.92,7.402-8.239c-0.231-4.319-3.92-7.631-8.252-7.4   c-4.316,0.234-7.631,3.928-7.396,8.243C73.941,20.566,77.632,23.874,81.951,23.641z"/>
	<path d="M97.904,70.909l0.111-18.239c0.075-0.656,0.086-1.328-0.05-2.011L93.945,29.96c-0.696-3.592-4.178-5.94-7.768-5.24   c-1.136,0.22-2.121,0.739-2.951,1.429l-11.265,7.188l-12.589-2.051l-0.249,1.215l-0.841-0.286l0.875-2.574   c0.271-0.792-0.311-1.192-1.1-1.461c-0.797-0.27-1.498-0.307-1.77,0.483l-0.775,2.281L21.759,20.175l-3.407,0.324l2.5,2.341   l33.28,12.179l-0.776,2.286c-0.271,0.791,0.31,1.191,1.104,1.46c0.791,0.27,1.494,0.308,1.764-0.485l0.924-2.711L58.41,36   l-0.129,0.629l1.802,0.457l0.644-3.642l0.065-0.375l0,0l0.019-0.101l14.926,1.807l7.574-6.397l-7.229,7.455l-14.627-1.947   l-0.929,5.26l16.133,3.519c0.236,0.042,0.479,0.057,0.714,0.047c0.838-0.035,1.646-0.388,2.239-1.003l7.625-7.859l-4.864,6.007   l2.487,12.81l-4.471,16.649c-0.093,0.341-0.14,0.69-0.143,1.045l0.447,21.427l7.093,0.049l0.737-20.887l1.123-4.185l-0.026,4.398   c0,0.188,0.012,0.379,0.037,0.566l3.327,20.197L100,90.984L97.904,70.909z"/>
</g>
</svg>