<svg xmlns="http://www.w3.org/2000/svg" xmlns:xlink="http://www.w3.org/1999/xlink" version="1.1" id="Capa_38" x="0px" y="0px" width="100px" height="100px" viewBox="0 0 100 100" enable-background="new 0 0 100 100" xml:space="preserve">
<g>
	<path d="M39.952,22.311c5.085,5.153,13.387,5.218,18.554,0.128c5.153-5.081,5.215-13.371,0.122-18.537   C53.55-1.247,45.262-1.311,40.097,3.771C34.934,8.859,34.875,17.156,39.952,22.311z"/>
	<path d="M79.978,84.174L60.841,72.577l-0.089-16.239l2.607,8.525c0.248,0.807,0.675,1.55,1.257,2.166l14.936,15.943l1.19-0.059   c0.122,0.073,0.226,0.167,0.343,0.246l7.371-6.902L73.587,60.387l-7.18-23.463h-0.028c-0.834-3.689-4.121-6.451-8.061-6.451H41.661   c-3.808,0-6.98,2.584-7.951,6.081h-0.023l-7.008,23.795L11.544,75.813l7.925,7.756l16.101-16.45c0.635-0.649,1.1-1.441,1.357-2.312   l1.66-5.632l0.072,13.421L19.546,84.174c-2.706,1.639-3.958,4.902-3.043,7.932c0.886,2.936,3.589,4.928,6.633,4.926   c0.096,0,0.194,0,0.291-0.005l7.09-0.295l-0.786-11.995l23.476-0.572l0.816,0.492l-22.568,1.515L32.383,100l44.467-2.982   c3.02-0.202,5.557-2.338,6.27-5.275C83.837,88.804,82.566,85.739,79.978,84.174z"/>
</g>
</svg>