<svg xmlns="http://www.w3.org/2000/svg" xmlns:xlink="http://www.w3.org/1999/xlink" version="1.1" id="Your_Icon" x="0px" y="0px" width="100px" height="100px" viewBox="0 0 100 100" enable-background="new 0 0 100 100" xml:space="preserve">
<path fill="#000000" d="M30.738,33.588c0,3.423-2.778,6.201-6.219,6.201c-3.42,0-6.209-2.778-6.209-6.201  c0-3.443,2.789-6.219,6.209-6.219C27.96,27.371,30.738,30.145,30.738,33.588z"/>
<path fill="#000000" d="M31.169,41.074l-13.927,0.013c-4.818,0-7.242,4.029-7.242,8.153v18.957c-0.013,3.738,4.861,3.738,4.861,0  V49.636h1.526l0.007,19.621h15.468V49.653h1.56v18.543c0,3.711,4.898,3.711,4.898,0V49.138  C38.321,44.667,35.563,41.074,31.169,41.074z"/>
<path fill="#000000" d="M83.733,33.588c0,3.423-2.778,6.201-6.219,6.201c-3.42,0-6.209-2.778-6.209-6.201  c0-3.443,2.789-6.219,6.209-6.219C80.955,27.371,83.733,30.145,83.733,33.588z"/>
<path fill="#000000" d="M84.164,41.074l-13.927,0.013c-4.818,0-7.242,4.029-7.242,8.153v18.957c-0.013,3.738,4.861,3.738,4.861,0  V49.636h1.526l0.007,19.621h15.468V49.653h1.56v18.543c0,3.711,4.898,3.711,4.898,0V49.138  C91.316,44.667,88.559,41.074,84.164,41.074z"/>
<path d="M54.312,32.179c0,0-0.146-6.316,0.517-7.459c0.764-1.317,6.46,2.179,6.46,2.179s6.461,3.1,6.461,5.28  c0,2.183-6.461,5.108-6.461,5.108s-5.586,3.228-6.46,2.352C53.954,38.763,54.312,32.179,54.312,32.179z"/>
<path d="M48.176,31.696c0,0,0.146,6.316-0.517,7.459c-0.764,1.317-6.46-2.179-6.46-2.179s-6.461-3.1-6.461-5.28  c0-2.183,6.461-5.108,6.461-5.108s5.586-3.228,6.46-2.352C48.534,25.112,48.176,31.696,48.176,31.696z"/>
<path d="M62.575,31.768c0,0.572-0.464,1.037-1.037,1.037H40.533c-0.573,0-1.038-0.464-1.038-1.037l0,0  c0-0.572,0.465-1.037,1.038-1.037h21.005C62.111,30.731,62.575,31.195,62.575,31.768L62.575,31.768z"/>
</svg>