<svg xmlns="http://www.w3.org/2000/svg" xmlns:xlink="http://www.w3.org/1999/xlink" version="1.1" id="Layer_1" x="0px" y="0px" width="50.4px" height="50.4px" viewBox="0 0 50.4 50.4" enable-background="new 0 0 50.4 50.4" xml:space="preserve">
<g id="Layer_1_1_">
</g>
<path d="M45.677,41.677c2.755-1.389,3.854-4.753,2.467-7.498c-1.382-2.746-4.745-3.85-7.503-2.454  c-2.749,1.397-3.846,4.753-2.46,7.498C39.574,41.968,42.935,43.073,45.677,41.677z"/>
<path d="M46.995,44.325H41.45h-5.549l-0.084-9.472c-0.085-3.551-0.605-6.149-2.255-8.313c-1.489-1.962-2.985-4.334-9.354-6.324  c-9.496-2.973-17.025,1.946-17.928,2.51c-2.916,1.832-3.8,5.678-1.974,8.6c0.314,0.497,0.7,0.911,1.113,1.284  c0.05,0.066,0.066,0.146,0.124,0.204l10.01,10.934H3.325C1.49,43.748,0,45.235,0,47.069C0,48.913,1.49,50.4,3.325,50.4h19.788  c1.32,0,2.513-0.78,3.046-1.989c0.374-0.846,0.349-1.78,0.008-2.607c-0.036-0.675-0.178-1.35-0.56-1.959l-7.434-11.997  c0.923-0.032,1.894,0.056,2.86,0.374c2.818,0.9,4.829,2.777,4.833,2.777c0,0,0.342,0.333,0.508,0.505l3.253,12.411  c0.025,0.105,0.09,0.18,0.122,0.275c0.058,0.154,0.121,0.302,0.2,0.438c0.116,0.222,0.25,0.415,0.41,0.595  c0.101,0.113,0.189,0.227,0.304,0.325c0.198,0.178,0.419,0.309,0.649,0.43c0.118,0.065,0.22,0.139,0.346,0.187  c0.372,0.146,0.767,0.236,1.186,0.236h8.606h5.545c1.835,0,3.324-1.121,3.324-2.956C50.319,45.607,48.83,44.325,46.995,44.325z"/>
</svg>