<svg xmlns="http://www.w3.org/2000/svg" xmlns:xlink="http://www.w3.org/1999/xlink" version="1.1" id="Layer_1" x="0px" y="0px" width="50.4px" height="50.4px" viewBox="0 0 50.4 50.4" enable-background="new 0 0 50.4 50.4" xml:space="preserve">
<g id="Layer_1_1_">
</g>
<path d="M49.094,45.671l-3.802-2.481l-8.182-5.346c1.644-1.423,2.188-3.823,1.162-5.849c-1.202-2.389-4.129-3.352-6.529-2.135  c-0.517,0.261-0.951,0.614-1.325,1.013c-1.949-2.545-4.978-5.36-9.345-6.749c-8.253-2.627-14.821,1.693-15.606,2.186  c-2.538,1.594-3.309,4.942-1.718,7.487c0.273,0.431,0.609,0.792,0.969,1.116c0.043,0.058,0.058,0.128,0.108,0.179l8.714,9.517H2.895  C1.297,44.608,0,45.902,0,47.501C0,49.105,1.297,50.4,2.895,50.4h17.226c1.148,0,2.021-0.77,2.651-1.732  c0.919-1.403-0.148-3.443-0.481-3.974l-6.47-10.445c0.803-0.027,4.73,1.299,9.424,3.646c8.337,4.17,21.13,11.941,21.13,11.941  c1.257,0.822,2.782,0.722,3.602-0.537C50.8,48.041,50.354,46.491,49.094,45.671z"/>
</svg>