<svg xmlns="http://www.w3.org/2000/svg" xmlns:xlink="http://www.w3.org/1999/xlink" version="1.1" x="0px" y="0px" width="95.691px" height="100px" viewBox="0 0 95.691 100" enable-background="new 0 0 95.691 100" xml:space="preserve">
<g id="Layer_1">
</g>
<g id="Layer_2">
	<circle cx="47.863" cy="8.383" r="8.139"/>
	<polygon points="35.921,58.52 35.921,47.643 29.092,47.643  "/>
	<polygon points="59.847,58.646 59.847,47.643 66.677,47.643  "/>
	<path d="M77.881,30.626l-8.113-5.721c-3.113-2.195-4.35-3.001-5.889-4.01c-1.898-1.28-4.742-2.646-8.109-2.719   c-1.047-0.022-4.959-0.029-7.139-0.031v0c0,0-0.286,0-0.746,0c-0.46,0-0.747,0-0.747,0v0c-2.18,0.002-6.092,0.009-7.138,0.031   c-3.367,0.072-6.212,1.438-8.109,2.719c-1.539,1.009-2.775,1.815-5.89,4.01l-8.113,5.721c-1.706,1.202-2.12,3.556-0.928,5.267   l7.312,10.503c0.737,1.058,1.917,1.626,3.117,1.626c0.748,0,1.503-0.221,2.164-0.68c1.72-1.197,2.144-3.561,0.946-5.28   l-5.157-7.408c2.752-1.941,6.778-4.778,9.647-6.802c0.648-0.317,1.253-0.248,1.644-0.033c0.948,0.521,0.908,1.349,0.952,1.623   l-0.009,65.996c0,2.518,2.045,4.562,4.563,4.562c2.522,0,4.564-2.045,4.564-4.562l0.004-38.28h0.43h1.493h0.431l0.003,38.28   c0,2.518,2.043,4.562,4.564,4.562c2.52,0,4.562-2.045,4.562-4.562l-0.008-65.996c0.043-0.274,0.004-1.102,0.953-1.623   c0.391-0.215,0.996-0.284,1.643,0.033c2.869,2.024,6.896,4.861,9.648,6.802l-5.156,7.408c-1.199,1.719-0.775,4.083,0.945,5.28   c0.66,0.459,1.416,0.68,2.164,0.68c1.199,0,2.381-0.568,3.117-1.626l7.311-10.503C80.002,34.182,79.588,31.828,77.881,30.626z"/>
</g>
</svg>