<svg xmlns="http://www.w3.org/2000/svg" xmlns:xlink="http://www.w3.org/1999/xlink" version="1.1" id="Capa_31" x="0px" y="0px" width="100px" height="100px" viewBox="0 0 100 100" enable-background="new 0 0 100 100" xml:space="preserve">
<g>
	<g>
		<path d="M86.66,48.545c3.037,0.451,5.85-1.637,6.301-4.665c0.45-3.029-1.638-5.849-4.675-6.299    c-3.024-0.45-5.848,1.643-6.292,4.667C81.543,45.278,83.637,48.095,86.66,48.545z"/>
		<path d="M92.112,60.11l2.675,3.007l1.84,10.703L100,73.444l-0.635-11.606c-0.055-0.492-0.267-0.956-0.602-1.321l-7.877-8.833    l-0.021,0.022c-0.846-0.888-2.03-1.45-3.351-1.462c-0.641,0.017-1.247,0.148-1.797,0.371l-7.729-3.864l-8.703-9.271l-2.821,2.458    l8.295,10.243c0.2,0.231,0.444,0.42,0.72,0.558l7.35,3.676c-0.014,0.159-0.05,0.31-0.05,0.475l-0.143,14.922    c-0.003,0.132,0.027,0.258,0.035,0.387l-2.01,12.406L79.596,97.83l4.617,0.511l2.255-14.946l0.862-5.309l3.073,19.609l4.526-0.612    l-2.934-27.018c0.003-0.055,0.02-0.106,0.02-0.164L92.112,60.11z"/>
	</g>
	<g>
		<path d="M49.041,49.819c3.038,0.451,5.854-1.637,6.304-4.666c0.45-3.028-1.637-5.847-4.677-6.298    c-3.023-0.45-5.847,1.643-6.292,4.667C43.924,46.553,46.017,49.369,49.041,49.819z"/>
		<path d="M67.685,48.597l-6.894,7.149l-8.357-3.941c-0.662-0.368-1.41-0.6-2.216-0.606c-0.46-0.006-0.894,0.075-1.312,0.193    l-8.852,1.05l-5.596-7.605l-3.124,2.067l5.586,9.301c0.435,0.659,1.174,1.052,1.958,1.052c0.073,0,0.15-0.002,0.225-0.011    l6.374-0.736l-0.139,14.255c-0.001,0.159,0.027,0.311,0.042,0.464l-3.194,11.89c-0.056,0.223-0.089,0.45-0.098,0.681l0.091,15.175    l4.849,0.132l0.91-14.801l1.752-6.531l0.857,6.715l3.318,14.864l4.284-0.733l-1.813-15.031l-1.617-12.744h-0.003l0.121-12.716    l5.572,2.634c0.324,0.154,0.667,0.228,1.008,0.228c0.679,0,1.338-0.293,1.794-0.837l7.025-9.409L67.685,48.597z"/>
	</g>
	<g>
		<path d="M12.866,49.98c3.029-0.45,5.121-3.267,4.67-6.297c-0.451-3.024-3.269-5.117-6.298-4.667    c-3.033,0.451-5.121,3.269-4.67,6.298C7.019,48.343,9.832,50.431,12.866,49.98z"/>
		<path d="M28.523,37.066l-4.985,10.458L14.95,51.4c-0.412-0.118-0.838-0.202-1.288-0.202c-0.015,0-0.03,0-0.045,0    c-1.14,0.011-2.166,0.441-2.972,1.125l-8.954,6.331c-0.586,0.417-0.946,1.079-0.981,1.799L0.627,73.225l3.623,0.173l1.092-11.582    l3.66-2.587l0.112,11.626c0.001,0.22,0.037,0.431,0.072,0.646L7.509,83.496L5.516,98.588l4.611,0.791l3.171-14.981l0.896-6.411    l1.695,6.317L16.9,99.104l4.651-0.129l0.191-15.178c-0.005-0.23-0.04-0.458-0.1-0.681l-3.191-11.89    c0.012-0.153,0.042-0.305,0.042-0.464l-0.143-14.922c-0.003-0.271-0.04-0.533-0.088-0.791l8.05-3.631    c0.541-0.246,0.971-0.688,1.199-1.236l4.273-11.756L28.523,37.066z"/>
	</g>
	<polygon points="94.828,8.167 58.819,0.621 53.697,25.059 70.283,28.534 66.768,45.66 69.277,46.175 72.79,29.06 89.709,32.606     "/>
	<polygon points="42.043,24.74 35.515,0.64 0,10.258 6.528,34.358 22.886,29.928 27.523,46.783 29.996,46.102 25.359,29.258  "/>
</g>
</svg>