<svg xmlns="http://www.w3.org/2000/svg" xmlns:xlink="http://www.w3.org/1999/xlink" version="1.1" x="0px" y="0px" width="100px" height="100px" viewBox="0 0 100 100" enable-background="new 0 0 100 100" xml:space="preserve">
<g id="Captions">
</g>
<g id="Your_Icon">
	<path d="M0.667,69.559c0,1.16,0.945,2.104,2.106,2.104h39.396c1.162,0,2.106-0.944,2.106-2.104v-1.989H0.667V69.559z"/>
	<path d="M39.422,44.399c0-0.968-0.787-1.756-1.756-1.756H7.274c-0.967,0-1.755,0.788-1.755,1.756v21.444h33.902V44.399z    M36.035,46.031v16.424H8.907V46.031H36.035z"/>
	<path d="M59.795,64.947l-0.154-0.707h-8.88l-0.154,0.707c-0.413,1.901-1.285,3.719-2.523,5.256l-1.176,1.46h16.588l-1.177-1.46   C61.081,68.668,60.209,66.852,59.795,64.947z"/>
	<path d="M97.425,55.649h-6.409c-0.845,0-1.532,0.688-1.532,1.533v12.948c0,0.845,0.688,1.532,1.532,1.532h6.409   c0.845,0,1.532-0.688,1.532-1.532V57.183C98.957,56.337,98.27,55.649,97.425,55.649z M92.936,56.634h2.57   c0.186,0,0.335,0.15,0.335,0.336c0,0.187-0.149,0.335-0.335,0.335h-2.57c-0.186,0-0.336-0.148-0.336-0.335   C92.6,56.784,92.75,56.634,92.936,56.634z M94.22,70.757c-0.338,0-0.612-0.276-0.612-0.614s0.274-0.613,0.612-0.613   c0.34,0,0.614,0.275,0.614,0.613S94.56,70.757,94.22,70.757z M97.64,68.644h-6.839V58.256h6.839V68.644z"/>
	<path d="M85.605,43.778H67.102c-0.969,0-1.756,0.788-1.756,1.756v24.375c0,0.967,0.787,1.754,1.756,1.754h18.504   c0.967,0,1.755-0.787,1.755-1.754V45.534C87.36,44.566,86.572,43.778,85.605,43.778z M76.353,70.7   c-0.398,0-0.722-0.323-0.722-0.723c0-0.398,0.323-0.722,0.722-0.722c0.399,0,0.723,0.323,0.723,0.722   C77.075,70.377,76.752,70.7,76.353,70.7z M83.972,68.276H68.734v-21.11h15.237V68.276z"/>
	<path d="M34.118,31.558h43.05V42.05h3.388V29.926c0-0.969-0.787-1.757-1.757-1.757H32.486c-0.968,0-1.755,0.788-1.755,1.757v10.99   h3.387V31.558z"/>
	<rect x="41.15" y="59.126" width="22.468" height="3.387"/>
</g>
</svg>