<svg xmlns="http://www.w3.org/2000/svg" xmlns:xlink="http://www.w3.org/1999/xlink" version="1.1" x="0px" y="0px" width="100px" height="92.316px" viewBox="0 0 100 92.316" enable-background="new 0 0 100 92.316" xml:space="preserve">
<g id="Layer_1">
	<circle cx="44.332" cy="21.646" r="6.204"/>
</g>
<g id="Layer_2_1_">
	<rect x="58.295" y="73.318" width="18.956" height="18.956"/>
	<rect x="81.043" y="73.318" width="18.957" height="18.956"/>
	<rect x="81.043" y="50.569" width="18.957" height="18.957"/>
	<path d="M51.723,29.221H18.958V15.703H0v19.667h18.958v-0.01h15.631l0.014,53.255c0,2.041,1.658,3.7,3.7,3.7   c2.045,0,3.701-1.659,3.701-3.7l-0.011-28.329h3.071v28.329c0,2.041,1.658,3.7,3.707,3.7c2.042,0,3.699-1.659,3.699-3.7   l-0.007-50.291h2.285v19.727c0,3.938,5.552,3.915,5.552-0.023V38.134C60.3,33.381,56.396,29.221,51.723,29.221z"/>
</g>
</svg>