<?xml version="1.0" encoding="utf-8"?>
<!-- Generator: Adobe Illustrator 16.0.0, SVG Export Plug-In . SVG Version: 6.00 Build 0)  -->
<!DOCTYPE svg PUBLIC "-//W3C//DTD SVG 1.1//EN" "http://www.w3.org/Graphics/SVG/1.1/DTD/svg11.dtd">
<svg version="1.1" id="Layer_1" xmlns="http://www.w3.org/2000/svg" xmlns:xlink="http://www.w3.org/1999/xlink" x="0px" y="0px"
	 width="86.862px" height="100px" viewBox="0 0 86.862 100" enable-background="new 0 0 86.862 100" xml:space="preserve">
<path fill="#010101" d="M5.099,100c-1.556,0-2.828-0.768-3.324-2.005c-0.288-0.72-0.273-1.521,0.021-2.277
	c-0.737-0.345-1.302-0.913-1.589-1.63c-0.707-1.763,0.451-3.891,2.583-4.746c0.594-0.238,1.205-0.359,1.817-0.359
	c0.943,0,1.8,0.289,2.437,0.812l70.133-28.138c0.169-1.363,1.228-2.65,2.762-3.268c0.596-0.238,1.209-0.359,1.824-0.359
	c1.553,0,2.827,0.771,3.322,2.008c0.288,0.718,0.273,1.52-0.021,2.275c0.736,0.346,1.3,0.912,1.588,1.629
	c0.354,0.881,0.255,1.904-0.271,2.81c-0.492,0.853-1.314,1.539-2.312,1.94c-0.594,0.236-1.203,0.357-1.818,0.357l0,0
	c-0.941,0-1.799-0.29-2.435-0.811L9.681,96.376c-0.167,1.365-1.228,2.649-2.763,3.265C6.328,99.879,5.714,100,5.099,100z"/>
<path fill="#010101" d="M43.524,0C24.313,0,8.684,15.629,8.684,34.841c0,5.109,4.804,9.243,9.448,13.241
	c3.724,3.204,7.239,6.23,8.119,9.473c0.536,1.978,0.878,3.637,1.152,4.969c0.994,4.832,1.575,6.399,6.172,6.91v-9.244h2.57v9.42
	c1.688,0.063,3.754,0.072,6.287,0.072v-9.492h2.569v9.492c0.019,0,0.041,0,0.041,0c2.519,0,4.562-0.002,6.246-0.062v-9.431h2.57
	v9.254c4.398-0.514,5.191-2.129,6.172-7.219c0.263-1.357,0.59-3.053,1.095-5.059c0.809-3.2,4.454-6.341,7.982-9.376
	c4.553-3.916,9.258-7.964,9.258-12.95C78.369,15.63,62.738,0,43.524,0z M29.684,40.948c-4.398,0-7.964-3.565-7.964-7.964
	s3.565-7.965,7.964-7.965c0,0,1.354,3.221,2.796,4.662c1.442,1.441,5.168,3.302,5.168,3.302
	C37.649,37.383,34.082,40.948,29.684,40.948z M40.063,49.719l3.656-9.96l3.653,9.96H40.063z M57.263,40.948
	c-4.399,0-7.965-3.565-7.965-7.964c0,0,3.729-1.861,5.169-3.302c1.438-1.441,2.796-4.662,2.796-4.662
	c4.398,0,7.965,3.566,7.965,7.965C65.228,37.383,61.662,40.948,57.263,40.948z"/>
<path fill="#010101" d="M2.79,68.688c0.594,0.239,1.205,0.358,1.818,0.358c0.944,0,1.799-0.288,2.436-0.81l25.712,10.316
	l9.525-3.822L9.684,61.652c-0.167-1.363-1.228-2.648-2.762-3.267C6.328,58.15,5.714,58.029,5.1,58.029
	c-1.556,0-2.829,0.77-3.325,2.007c-0.288,0.717-0.273,1.519,0.021,2.274c-0.737,0.347-1.302,0.912-1.589,1.629
	c-0.353,0.881-0.252,1.901,0.272,2.811C0.973,67.6,1.793,68.288,2.79,68.688z"/>
<path fill="#010101" d="M84.071,89.341c-0.594-0.237-1.203-0.36-1.816-0.36c-0.943,0-1.801,0.291-2.437,0.812L54.106,79.477
	l-9.525,3.821l32.597,13.077c0.169,1.365,1.228,2.648,2.763,3.266c0.594,0.238,1.208,0.359,1.823,0.359
	c1.553,0,2.827-0.77,3.322-2.005c0.288-0.72,0.273-1.521-0.021-2.277c0.736-0.345,1.3-0.913,1.588-1.63
	C87.361,92.325,86.202,90.197,84.071,89.341z"/>
</svg>
