<svg xmlns="http://www.w3.org/2000/svg" xmlns:xlink="http://www.w3.org/1999/xlink" version="1.1" x="0px" y="0px" width="100px" height="100px" viewBox="-346 256 100 100" enable-background="new -346 256 100 100" xml:space="preserve">
<g id="Layer_1">
</g>
<g id="Layer_2">
</g>
<g id="Layer_3">
	<path d="M-267.149,314.029c0.238-1.409,0.364-2.853,0.364-4.323c0-6.096-2.141-11.722-5.749-16.309l7.792-7.987l9.412,1.936   l8.517-3.355l-1.705-4.328l-7.229,2.848l-5.135-1.056l7.129-7.307l-3.33-3.249l-9.212,9.442l-0.084-0.017l-9.323,9.642   c-2.543-2.331-5.531-4.25-8.84-5.637c2.672-2.956,4.313-6.861,4.313-11.16c0-9.206-7.466-16.669-16.67-16.669   c-9.207,0-16.67,7.464-16.67,16.669c0,4.245,1.6,8.107,4.212,11.05c-4.473,1.827-8.366,4.629-11.385,8.101l-5.688-2.52v-13.37   h-4.652v11.309l-7.647-3.388l-1.884,4.253l17.055,7.556c-2.43,4.01-3.82,8.627-3.82,13.546c0,2.584,0.39,5.083,1.105,7.458   c-6.145,6.34-9.864,14.564-9.864,23.559c0,5.457,1.375,10.633,3.825,15.277h74.619c2.448-4.645,3.825-9.82,3.825-15.277   C-253.868,330.163-258.986,320.66-267.149,314.029z M-299.565,262.978c1.514-0.421,3.08,0.462,3.501,1.973   c0.424,1.511-0.461,3.077-1.975,3.5c-1.512,0.421-3.077-0.46-3.5-1.973C-301.961,264.964-301.077,263.399-299.565,262.978z    M-295.44,275.199c-0.274,0.527-0.708,0.91-1.209,1.141l-6.987,3.815l3.622-7.28c0.005-0.01,0.007-0.021,0.012-0.031   c0.652-1.26,2.2-1.752,3.459-1.103C-295.283,272.393-294.793,273.94-295.44,275.199z M-292.53,269.409   c-0.421-1.513,0.462-3.079,1.973-3.5c1.515-0.421,3.081,0.462,3.503,1.973c0.421,1.512-0.463,3.077-1.976,3.5   C-290.542,271.803-292.109,270.922-292.53,269.409z M-285.01,319.108c-1.784,0-3.232-1.447-3.232-3.231s1.448-3.231,3.232-3.231   c1.783,0,3.231,1.447,3.231,3.231S-283.227,319.108-285.01,319.108z M-278.42,342.044c-1.784,0-3.231-1.447-3.231-3.231   s1.447-3.231,3.231-3.231s3.231,1.447,3.231,3.231S-276.636,342.044-278.42,342.044z M-276.353,329.51   c-1.784,0-3.232-1.447-3.232-3.231c0-1.783,1.448-3.231,3.232-3.231c1.783,0,3.231,1.448,3.231,3.231   C-273.121,328.062-274.569,329.51-276.353,329.51z"/>
</g>
</svg>