<svg xmlns="http://www.w3.org/2000/svg" xmlns:xlink="http://www.w3.org/1999/xlink" version="1.1" x="0px" y="0px" width="100px" height="100px" viewBox="0 0 100 100" enable-background="new 0 0 100 100" xml:space="preserve">
<g id="Captions">
</g>
<g id="Your_Icon">
	<g>
		<path d="M97.173,37.521c0-0.725-0.097-1.441-0.279-2.147c-0.463,2.032-1.793,3.963-3.976,5.759    c-2.44,2.009-5.891,3.794-10.249,5.31c-8.768,3.052-20.393,4.728-32.734,4.728S25.969,49.493,17.2,46.441    c-4.361-1.516-7.809-3.301-10.249-5.31c-2.515-2.065-3.698-3.372-3.889-5.579c-0.153,0.649-0.235,1.307-0.235,1.968v24.964    c0,1.986,0.709,3.902,2.027,5.71V58.72c0-0.533,0.19-0.967,0.422-0.967H9.61c0.237,0,0.428,0.434,0.428,0.967v14.206    c1.194,0.795,2.524,1.553,3.973,2.259v-9.893c0-0.444,0.19-0.806,0.428-0.806h4.334c0.235,0,0.426,0.361,0.426,0.806v12.073    c1.262,0.452,2.584,0.878,3.962,1.277V68.269c0-0.43,0.19-0.78,0.426-0.78h4.335c0.233,0,0.423,0.351,0.423,0.78v11.674    c1.557,0.336,3.164,0.639,4.813,0.896V70.827c0-0.441,0.19-0.796,0.424-0.796h4.335c0.237,0,0.426,0.354,0.426,0.796v10.702    c1.472,0.153,2.971,0.28,4.498,0.373V70.771c0-0.41,0.188-0.739,0.424-0.739h4.334c0.234,0,0.425,0.329,0.425,0.739v11.345    c0.657,0.012,1.315,0.015,1.979,0.015c0.801,0,1.599-0.007,2.388-0.021V71.391c0-0.497,0.192-0.9,0.426-0.9h4.334    c0.235,0,0.426,0.403,0.426,0.9V81.88c1.499-0.101,2.976-0.231,4.425-0.388V69.96c0-0.533,0.19-0.975,0.426-0.975h4.334    c0.235,0,0.424,0.441,0.424,0.975v10.83c1.632-0.27,3.221-0.568,4.759-0.911V68.463c0-0.541,0.19-0.975,0.424-0.975h4.336    c0.233,0,0.426,0.434,0.426,0.975v10.098c1.994-0.587,3.872-1.232,5.622-1.935h-0.863V64.18c0-0.407,0.19-0.739,0.428-0.739h4.334    c0.233,0,0.424,0.332,0.424,0.739v10.452c1.561-0.821,2.965-1.703,4.197-2.625V58.16c0-0.501,0.19-0.904,0.426-0.904h4.333    c0.233,0,0.424,0.403,0.424,0.904v7.756c0.475-1.112,0.721-2.263,0.721-3.432V37.521z"/>
		<path d="M8.97,38.679c2.117,1.743,5.325,3.387,9.274,4.761c3.475,1.21,7.428,2.192,11.709,2.936    c-6.39-1.886-10.429-4.829-10.429-8.638c0-7.014,13.644-12.697,30.478-12.697c16.83,0,30.476,5.684,30.476,12.697    c0,3.775-3.959,6.691-10.243,8.581c4.162-0.735,8.002-1.699,11.39-2.879c3.95-1.374,7.158-3.018,9.275-4.761    c1.99-1.636,3.892-5.695,3.892-7.335C88.573,23.517,70.869,17.87,50.002,17.87c-21.483,0-39.607,5.982-45.308,14.165    C4.985,33.812,7.117,37.158,8.97,38.679z"/>
	</g>
</g>
</svg>