<?xml version="1.0" encoding="UTF-8" standalone="no"?>
<svg
   xmlns:dc="http://purl.org/dc/elements/1.1/"
   xmlns:cc="http://creativecommons.org/ns#"
   xmlns:rdf="http://www.w3.org/1999/02/22-rdf-syntax-ns#"
   xmlns:svg="http://www.w3.org/2000/svg"
   xmlns="http://www.w3.org/2000/svg"
   xmlns:sodipodi="http://sodipodi.sourceforge.net/DTD/sodipodi-0.dtd"
   xmlns:inkscape="http://www.inkscape.org/namespaces/inkscape"
   version="1.1"
   id="Layer_1"
   x="0px"
   y="0px"
   width="63.158px"
   height="100px"
   viewBox="0 0 63.158 100"
   enable-background="new 0 0 63.158 100"
   xml:space="preserve"
   inkscape:version="0.48.3.1 r9886"
   sodipodi:docname="stump.svg"><metadata
     id="metadata252"><rdf:RDF><cc:Work
         rdf:about=""><dc:format>image/svg+xml</dc:format><dc:type
           rdf:resource="http://purl.org/dc/dcmitype/StillImage" /></cc:Work></rdf:RDF></metadata><defs
     id="defs250" /><sodipodi:namedview
     pagecolor="#ffffff"
     bordercolor="#666666"
     borderopacity="1"
     objecttolerance="10"
     gridtolerance="10"
     guidetolerance="10"
     inkscape:pageopacity="0"
     inkscape:pageshadow="2"
     inkscape:window-width="941"
     inkscape:window-height="655"
     id="namedview248"
     showgrid="false"
     inkscape:zoom="4.72"
     inkscape:cx="18.683573"
     inkscape:cy="79.66941"
     inkscape:window-x="65"
     inkscape:window-y="24"
     inkscape:window-maximized="0"
     inkscape:current-layer="Layer_1" /><path
     d="M31.579,0C14.139,0,0,4.713,0,10.526v11.653c0.363,0.66,0.953,1.335,1.812,2.014c1.542,1.218,3.871,2.373,6.785,3.342  c5.828,1.945,13.979,3.168,22.982,3.166c13.493,0.025,25.121-2.802,29.766-6.508c0.86-0.68,1.451-1.355,1.813-2.016V10.526  C63.158,4.713,49.02,0,31.579,0z M53.077,15.473c-5.704,1.901-13.338,2.948-21.498,2.948c-8.16,0-15.794-1.047-21.498-2.948  c-0.38-0.127-0.741-0.254-1.086-0.382c0.221-0.079,0.441-0.157,0.67-0.233c5.833-1.945,13.616-3.016,21.914-3.016  c8.297,0,16.08,1.071,21.913,3.016c0.229,0.076,0.449,0.155,0.67,0.233C53.817,15.219,53.457,15.346,53.077,15.473z M55.953,14.36  c-5.791-2.341-14.56-3.833-24.374-3.833c-9.814,0-18.583,1.492-24.374,3.833c-3.546-1.605-4.573-3.141-4.573-3.833  c0-0.852,1.557-2.982,7.45-4.947c5.703-1.901,13.338-2.948,21.498-2.948c8.16,0,15.794,1.047,21.498,2.948  c5.893,1.964,7.449,4.095,7.449,4.947C60.526,11.219,59.499,12.754,55.953,14.36z"
     id="path238" /><path
     d="m 0.92666031,13.187957 c -0.256,-0.235188 -0.497,-0.478566 -0.726,-0.727795 l 0,73.917035 c 0,6.801726 14.13899969,12.316354 31.57899969,12.316354 17.441,0 31.579,-5.514628 31.579,-12.316354 l 0,-49.918205 c -0.228,0.250399 0.106798,-23.432488 -0.150202,-23.19613 -13.684608,10.70473 -50.619319,9.965762 -62.28179769,-0.0749 z"
     id="path246-1"
     inkscape:connector-curvature="0"
     sodipodi:nodetypes="ccsssccc" /></svg>