<?xml version="1.0" encoding="utf-8"?>
<!-- Generator: Adobe Illustrator 16.0.0, SVG Export Plug-In . SVG Version: 6.00 Build 0)  -->
<!DOCTYPE svg PUBLIC "-//W3C//DTD SVG 1.1//EN" "http://www.w3.org/Graphics/SVG/1.1/DTD/svg11.dtd">
<svg version="1.1" id="Layer_1" xmlns="http://www.w3.org/2000/svg" xmlns:xlink="http://www.w3.org/1999/xlink" x="0px" y="0px"
	 width="94.344px" height="100px" viewBox="0 0 94.344 100" enable-background="new 0 0 94.344 100" xml:space="preserve">
<g id="Your_Icon">
	<g>
		<g>
			<path d="M54.062,44.653h-2.664l2.184-1.527c0.028-0.021,2.636-1.867,4.717-4.867H47.627
				c-3.975,0-7.208-3.231-7.208-7.203V7.202C40.419,3.23,43.653,0,47.627,0h38.766c3.976,0,7.211,3.23,7.211,7.202v23.853
				c0,3.972-3.235,7.203-7.211,7.203H66.805C63.93,42.445,59.536,44.653,54.062,44.653z M47.627,1.68
				c-3.049,0-5.53,2.477-5.53,5.522v23.853c0,3.045,2.48,5.523,5.53,5.523h13.644l-0.718,1.256c-1.214,2.12-2.754,3.812-3.971,4.96
				c3.889-0.574,6.932-2.528,9.066-5.833l0.248-0.383h20.495c3.05,0,5.53-2.478,5.53-5.523V7.202c0-3.045-2.48-5.522-5.53-5.522
				H47.627z"/>
		</g>
	</g>
	<g>
		<path  d="M25.289,60.608H22.61c-5.478,0-9.871-2.209-12.735-6.396H7.209C3.234,54.212,0,50.979,0,47.005V23.16
			c0-3.973,3.234-7.206,7.209-7.206h21.836c3.975,0,7.208,3.232,7.208,7.206v23.847c0,3.974-3.233,7.207-7.208,7.207H18.371
			c2.082,3.014,4.688,4.845,4.717,4.866L25.289,60.608z M7.208,17.633c-3.049,0-5.529,2.479-5.529,5.527v23.847
			c0,3.046,2.48,5.526,5.529,5.526h3.575l0.248,0.385c2.127,3.306,5.166,5.259,9.054,5.833c-1.217-1.149-2.754-2.84-3.962-4.963
			l-0.715-1.255h13.638c3.049,0,5.53-2.48,5.53-5.526V23.16c0-3.047-2.481-5.527-5.53-5.527H7.208z"/>
	</g>
	<g>
		<rect x="5.871" y="21.658"  width="24.512" height="1.343"/>
	</g>
	<g>
		<rect x="5.871" y="25.912"  width="24.512" height="1.342"/>
	</g>
	<g>
		<rect x="5.871" y="30.172"  width="24.512" height="1.343"/>
	</g>
	<g>
		<rect x="5.871" y="34.432"  width="24.512" height="1.343"/>
	</g>
	<g>
		<rect x="5.871" y="38.695"  width="24.512" height="1.343"/>
	</g>
	<g>
		<rect x="5.871" y="42.946"  width="24.512" height="1.342"/>
	</g>
	<g>
		<rect x="5.871" y="47.209"  width="24.512" height="1.343"/>
	</g>
	<g>
		<path  d="M71.734,80.536h-2.666l2.186-1.528c0.028-0.022,2.644-1.869,4.721-4.878H65.298
			c-3.975,0-7.208-3.233-7.208-7.206V54.937c0-3.975,3.234-7.208,7.208-7.208h21.836c3.976,0,7.21,3.233,7.21,7.208v11.986
			c0,3.974-3.234,7.206-7.21,7.206h-2.665C81.593,78.323,77.2,80.536,71.734,80.536z M65.298,49.408
			c-3.049,0-5.527,2.479-5.527,5.529v11.986c0,3.048,2.479,5.526,5.527,5.526h13.639l-0.715,1.256
			c-1.21,2.126-2.749,3.82-3.967,4.972c3.882-0.575,6.921-2.534,9.058-5.843l0.248-0.385h3.573c3.049,0,5.53-2.479,5.53-5.526
			V54.937c0-3.05-2.481-5.529-5.53-5.529H65.298z"/>
	</g>
	<g>
		<rect x="63.875" y="53.684"  width="24.514" height="1.344"/>
	</g>
	<g>
		<rect x="63.875" y="57.934"  width="24.514" height="1.344"/>
	</g>
	<g>
		<rect x="63.875" y="62.202"  width="24.514" height="1.345"/>
	</g>
	<g>
		<rect x="63.875" y="66.457"  width="24.514" height="1.344"/>
	</g>
	<path  d="M47.756,62.588c0,3.423-2.778,6.201-6.219,6.201c-3.42,0-6.209-2.778-6.209-6.201
		c0-3.444,2.789-6.219,6.209-6.219C44.978,56.37,47.756,59.144,47.756,62.588z"/>
	<path  d="M48.187,70.073L34.26,70.086c-4.818,0-7.242,4.029-7.242,8.152v18.957c-0.013,3.739,4.861,3.739,4.861,0
		V78.635h1.527l0.006,19.621h15.468V78.653h1.56v18.543c0,3.71,4.898,3.71,4.898,0V78.137
		C55.339,73.667,52.581,70.073,48.187,70.073z"/>
	<rect x="46.899" y="5.495"  width="3.089" height="1.784"/>
	<rect x="52.253" y="5.495"  width="3.09" height="1.784"/>
	<rect x="57.604" y="5.495"  width="3.092" height="1.784"/>
	<rect x="62.958" y="5.495"  width="3.089" height="1.784"/>
	<rect x="68.31" y="5.495"  width="3.09" height="1.784"/>
	<rect x="73.662" y="5.495"  width="3.091" height="1.784"/>
	<rect x="79.013" y="5.495"  width="3.084" height="1.784"/>
	<rect x="84.361" y="5.495"  width="3.092" height="1.784"/>
	<rect x="46.899" y="9.738"  width="3.089" height="1.784"/>
	<rect x="52.253" y="9.738"  width="3.09" height="1.784"/>
	<rect x="57.604" y="9.738"  width="3.092" height="1.784"/>
	<rect x="62.958" y="9.738"  width="3.089" height="1.784"/>
	<rect x="68.31" y="9.738"  width="3.09" height="1.784"/>
	<rect x="73.662" y="9.738"  width="3.091" height="1.784"/>
	<rect x="79.013" y="9.738"  width="3.084" height="1.784"/>
	<rect x="84.361" y="9.738"  width="3.092" height="1.784"/>
	<rect x="46.899" y="13.979"  width="3.089" height="1.783"/>
	<rect x="52.253" y="13.979"  width="3.09" height="1.783"/>
	<rect x="57.604" y="13.979"  width="3.092" height="1.783"/>
	<rect x="62.958" y="13.979"  width="3.089" height="1.783"/>
	<rect x="68.31" y="13.979"  width="3.09" height="1.783"/>
	<rect x="73.662" y="13.979"  width="3.091" height="1.783"/>
	<rect x="79.013" y="13.979"  width="3.084" height="1.783"/>
	<rect x="84.361" y="13.979"  width="3.092" height="1.783"/>
	<rect x="46.899" y="18.22"  width="3.089" height="1.785"/>
	<rect x="52.253" y="18.22"  width="3.09" height="1.785"/>
	<rect x="57.604" y="18.22"  width="3.092" height="1.785"/>
	<rect x="62.958" y="18.22"  width="3.089" height="1.785"/>
	<rect x="68.31" y="18.22"  width="3.09" height="1.785"/>
	<rect x="73.662" y="18.22"  width="3.091" height="1.785"/>
	<rect x="79.013" y="18.22"  width="3.084" height="1.785"/>
	<rect x="84.361" y="18.22"  width="3.092" height="1.785"/>
	<rect x="46.899" y="22.464"  width="3.089" height="1.784"/>
	<rect x="52.253" y="22.464"  width="3.09" height="1.784"/>
	<rect x="57.604" y="22.464"  width="3.092" height="1.784"/>
	<rect x="62.958" y="22.464"  width="3.089" height="1.784"/>
	<rect x="68.31" y="22.464"  width="3.09" height="1.784"/>
	<rect x="73.662" y="22.464"  width="3.091" height="1.784"/>
	<rect x="79.013" y="22.464"  width="3.084" height="1.784"/>
	<rect x="84.361" y="22.464"  width="3.092" height="1.784"/>
	<rect x="46.899" y="26.707"  width="3.089" height="1.785"/>
	<rect x="52.253" y="26.707"  width="3.09" height="1.785"/>
	<rect x="57.604" y="26.707"  width="3.092" height="1.785"/>
	<rect x="62.958" y="26.707"  width="3.089" height="1.785"/>
	<rect x="68.31" y="26.707"  width="3.09" height="1.785"/>
	<rect x="73.662" y="26.707"  width="3.091" height="1.785"/>
	<rect x="79.013" y="26.707"  width="3.084" height="1.785"/>
	<rect x="84.361" y="26.707"  width="3.092" height="1.785"/>
	<rect x="46.899" y="30.948"  width="3.089" height="1.784"/>
	<rect x="52.253" y="30.948"  width="3.09" height="1.784"/>
	<rect x="57.604" y="30.948"  width="3.092" height="1.784"/>
	<rect x="62.958" y="30.948"  width="3.089" height="1.784"/>
	<rect x="68.31" y="30.948"  width="3.09" height="1.784"/>
	<rect x="73.662" y="30.948"  width="3.091" height="1.784"/>
	<rect x="79.013" y="30.948"  width="3.084" height="1.784"/>
	<rect x="84.361" y="30.948"  width="3.092" height="1.784"/>
</g>
</svg>
