<svg xmlns:dc="http://purl.org/dc/elements/1.1/" xmlns:cc="http://creativecommons.org/ns#" xmlns:rdf="http://www.w3.org/1999/02/22-rdf-syntax-ns#" xmlns:svg="http://www.w3.org/2000/svg" xmlns="http://www.w3.org/2000/svg" xmlns:xlink="http://www.w3.org/1999/xlink" xmlns:sodipodi="http://sodipodi.sourceforge.net/DTD/sodipodi-0.dtd" xmlns:inkscape="http://www.inkscape.org/namespaces/inkscape" width="100" height="100" viewBox="0 0 80 80" version="1.1" id="svg2" inkscape:version="0.48.2 r9819" sodipodi:docname="horse.svg">
  <metadata id="metadata10">
    <rdf:RDF>
      <cc:Work rdf:about="">
        <dc:format>image/svg+xml</dc:format>
        <dc:type rdf:resource="http://purl.org/dc/dcmitype/StillImage"/>
        <dc:title/>
      </cc:Work>
    </rdf:RDF>
  </metadata>
  <defs id="defs8"/>
  <sodipodi:namedview pagecolor="#ffffff" bordercolor="#666666" borderopacity="1" objecttolerance="10" gridtolerance="10" guidetolerance="10" inkscape:pageopacity="0" inkscape:pageshadow="2" inkscape:window-width="1600" inkscape:window-height="853" id="namedview6" showgrid="false" inkscape:zoom="6.1051249" inkscape:cx="67.409036" inkscape:cy="50.006856" inkscape:window-x="-4" inkscape:window-y="-4" inkscape:window-maximized="1" inkscape:current-layer="g3066"/>
  <g inkscape:groupmode="layer" id="layer2" inkscape:label="Layer" style="display:none">
    <path style="fill:none;stroke:#000000;stroke-width:1px;stroke-linecap:butt;stroke-linejoin:miter;stroke-opacity:1" d="m 17.301549,39.547156 2.119953,-0.889012 0.205157,1.778025 1.84641,-1.025784" id="path4703" inkscape:connector-curvature="0" transform="scale(0.8,0.8)"/>
  </g>
  <g inkscape:groupmode="layer" id="layer1" inkscape:label="draw">
    <g id="g3066" transform="matrix(0.06816302,0,0,0.06816302,-1.4478425,4.6069918)">
      <path style="stroke:none" d="m 1179.2419,126.79839 c -0.2726,-0.0471 -0.4167,0.17055 -0.6691,0.33453 -42.8852,27.87709 -150.8605,101.04937 -164.5921,110.39723 -5.7469,-5.93843 -11.809,-11.44493 -16.72691,-18.065 -1.08038,-5.10693 -2.47989,-10.51812 -2.67627,-15.72325 0.19638,-5.10693 1.01887,-10.57639 -1.33815,-15.38871 -9.72277,7.36575 -18.06826,17.46046 -30.44286,20.40678 -9.82101,4.02659 -19.18547,8.50776 -29.10472,12.04332 -1.66965,-2.45526 -2.78071,-5.90505 -6.02168,-6.69073 -22.78468,-1.47318 -45.22448,5.25437 -67.91101,5.35259 -6.48185,0.19637 -10.77594,5.76694 -17.06137,6.35619 -6.28544,0.0986 -11.3652,4.2539 -17.0614,6.02167 -21.3116,5.00872 -40.4119,17.1262 -57.20583,30.77741 -7.85682,6.77649 -17.6478,9.92882 -26.09389,15.72322 -12.37445,14.3387 -28.97309,23.59902 -42.82073,36.46455 -7.56217,7.66039 -18.25859,10.69611 -27.09748,16.39231 -8.5443,4.51767 -16.4079,9.76921 -24.75577,14.3851 -8.64249,4.12482 -9.4624,16.43843 -18.39951,20.0722 -16.99036,8.24967 -36.20416,10.07602 -54.86409,10.37067 -47.63189,-0.8839 -95.09565,-5.26998 -141.84367,-13.71602 -36.33776,-6.38366 -75.47433,-12.01842 -110.73178,1.33815 -25.63282,9.91923 -48.49,25.04159 -70.58731,41.14804 -8.54426,7.26754 -20.69854,7.17585 -29.43923,14.05056 -11.4906,8.34787 -23.57128,16.27599 -32.11556,27.76657 -6.67829,8.05324 -10.10376,18.20029 -14.71965,27.43203 -4.81228,10.11566 -7.40283,20.78149 -9.36702,31.78101 -2.55349,15.51721 -8.19164,30.07806 -11.03973,45.49703 -1.66955,11.09777 -2.64263,22.6506 -5.68713,33.45371 -1.86599,7.85682 -5.06108,15.5608 -7.02528,23.41759 -4.12483,14.14228 -11.79485,26.67127 -15.72322,40.81352 -3.43738,11.68701 -11.94827,21.17742 -13.71604,33.45371 -2.55344,10.80311 -10.5948,19.46172 -14.719621,29.77378 -6.580085,13.06195 -11.411325,27.21753 -20.741293,38.80629 -14.338676,20.52594 -29.936535,42.27819 -32.784629,67.91101 -2.946302,12.47272 -7.537839,24.26811 -8.028888,37.13364 -2.357042,8.64248 2.234491,17.23034 8.028888,23.41758 2.160625,2.25885 4.867768,6.62623 8.697961,3.6799 5.499768,-1.47314 9.060234,-6.02788 13.381483,-9.36703 11.490577,-7.46397 23.945716,-13.95263 32.784626,-24.75573 7.660393,-10.31208 18.298493,-17.92409 27.432033,-26.76297 8.54429,-7.85682 14.40378,-18.47029 24.42122,-24.75574 9.32996,-6.67829 18.6084,-13.69478 25.09028,-23.41759 -2.16063,11.19596 -6.67546,22.02144 -9.03252,33.11917 -0.98212,14.92795 -2.95254,29.46727 -3.34538,44.49342 -2.83483,7.19304 -11.85287,11.4087 -14.71962,12.37787 -4.17747,2.03385 -11.46755,2.61645 -10.37063,6.69073 2.55345,10.60669 8.83919,19.97431 10.70518,30.77741 1.76777,7.46398 4.19868,14.83029 8.02888,21.41036 11.19595,-4.41943 17.44828,-15.95672 24.42119,-25.09025 5.86148,-11.96374 11.68536,-26.4041 18.73409,-35.79549 7.46396,-10.80311 13.36306,-23.30436 14.05056,-36.46451 1.08024,-17.3832 4.86465,-34.66648 7.02528,-51.85325 4.51764,-20.72233 11.87182,-41.17918 25.42479,-57.8749 14.82977,-19.34741 36.16738,-31.76603 56.20223,-44.82796 10.50848,-6.77648 20.229,-14.47735 30.44287,-21.7449 5.49976,11.78523 6.75216,25.03534 8.02888,37.80269 1.27672,25.92746 -4.24453,51.78331 -1.0036,77.61259 2.25883,5.69619 6.48213,10.06382 10.70517,14.38507 16.10647,15.12437 29.72201,32.57946 44.15889,49.17695 8.05324,9.42818 16.53976,18.95229 21.74492,30.44287 2.35703,4.9105 3.90093,10.47819 6.35619,15.38871 5.40156,9.03533 11.89615,17.25499 17.39591,26.09388 10.41029,-1.76778 23.37488,-6.87161 32.11556,1.67269 4.91053,2.65167 5.29429,8.90372 5.68713,13.71601 -1.08456,3.63015 -3.72664,8.1887 -3.34535,10.70518 20.91875,4.91051 42.97783,3.37592 63.89657,-1.33815 -0.90246,-12.76513 -11.82017,-21.35136 -16.39233,-28.77017 -6.8747,-9.91923 -18.61151,-14.44056 -26.76294,-23.08308 -10.21387,-10.70489 -20.66178,-21.64696 -30.77742,-32.45007 -7.95503,-8.54429 -14.08451,-17.92407 -21.74489,-26.76297 -11.88344,-12.17804 -21.41972,-26.75419 -26.42843,-43.15528 -3.14274,-14.24046 -6.61095,-28.8565 -6.02167,-43.48979 -0.39289,-17.67785 5.2575,-34.80459 7.02527,-52.18779 2.06242,-17.97244 1.69137,-37.14323 11.70878,-52.85686 2.06242,-2.16062 3.29331,-7.31988 7.02528,-7.02527 11.68702,0.88389 23.16319,3.01707 34.45734,6.35622 22.78473,6.67826 45.91504,13.3478 69.58368,16.3923 40.06973,6.18725 80.83624,1.09871 121.1024,-0.66908 5.20514,-0.0986 10.18358,0.13815 15.38871,0.33454 2.9463,8.93711 6.50055,17.68774 10.03612,26.42843 3.53556,11.39237 5.10099,23.43939 7.35979,35.12639 3.33917,18.26708 9.68316,35.8696 10.37066,54.52955 -0.29463,8.24963 2.73148,16.26975 0.66906,24.42119 -2.45523,6.97291 -6.72159,13.31099 -12.71238,17.73045 -14.63335,11.78523 -26.65286,26.2139 -41.48261,37.80269 -2.8481,3.33915 -7.07141,1.16011 -10.70518,0.66906 -0.78903,-3.15922 -4.33728,-4.77481 -6.69074,-7.02528 -5.75298,-1.44283 -12.12846,-1.62913 -16.39231,3.34538 -7.46397,8.05324 -14.10601,16.30657 -22.74853,23.08305 -4.22301,4.22304 -9.19212,8.5324 -10.37063,14.71964 8.56941,3.31717 17.23839,5.48934 26.09388,7.69434 -0.0656,0.14336 -0.26894,0.19109 -0.33454,0.33455 0.48726,-0.0375 0.85248,-0.2839 1.33815,-0.33455 0.24977,0.0622 0.75409,0.2721 1.0036,0.33455 0.0466,-0.0963 -0.0464,-0.23846 0,-0.33455 12.18364,-1.42812 23.36843,-6.55822 35.79548,-5.35259 5.10693,0.29464 9.94724,3.3853 15.05417,3.6799 7.95502,-0.88387 15.16483,-5.71486 21.74489,-10.03609 7.7586,-5.00874 12.74326,-12.9612 18.73409,-19.73769 7.75857,-8.8389 15.69889,-17.11686 23.7521,-25.75937 4.81232,-5.79437 12.20921,-8.96513 16.72685,-15.05416 10.80314,-12.27625 9.48987,-29.60534 12.04336,-44.82794 -1.0804,-32.40934 5.89598,-64.48668 12.37786,-96.01213 14.43688,18.4635 27.84977,37.76023 40.8135,57.20584 6.67831,10.70491 14.31462,21.1375 18.73409,33.11916 1.76778,6.08903 7.56244,9.98715 10.70518,15.38871 4.61588,8.15142 10.63783,15.24462 16.72685,22.41395 12.69674,15.38197 33.93236,33.68597 60.88573,82.29612 5.59797,1.66957 9.55132,5.91128 13.3815,10.03611 -1.37495,4.41948 -3.95301,9.67101 -2.67632,14.38511 1.54197,3.34483 2.08613,5.43398 3.01084,7.69434 16.99037,2.45526 34.68487,1.46692 51.18416,-3.34539 3.53565,-1.57135 9.52361,-3.21657 9.03251,-8.02888 -4.12489,-7.36576 -9.65257,-13.49214 -15.05416,-20.0722 -0.13535,0.0895 -0.53373,0.24467 -0.66909,0.33451 -6.7962,-11.72946 -21.35246,-15.41046 -28.43563,-26.76294 -7.85684,-11.78522 -15.85851,-23.31966 -25.09028,-34.12279 -11.78526,-16.49929 -21.62234,-34.53145 -29.77381,-53.19137 -8.64248,-19.93667 -21.91694,-37.5454 -29.77377,-57.87493 -4.41948,-11.29416 -9.6096,-21.76668 -13.04696,-33.45367 -7.75861,-22.09729 -13.63336,-44.77023 -22.07944,-66.57287 -0.88387,-2.65168 -2.34175,-5.18079 -2.34175,-8.02891 0.78563,-10.60668 5.82835,-20.70166 7.69434,-31.11192 1.96421,-9.03533 1.22154,-17.96399 2.00723,-27.09752 0.88387,-12.07983 6.77678,-23.16314 10.70518,-34.45731 10.70491,-29.16839 28.06766,-55.17171 41.81713,-82.96517 9.52639,-19.3474 16.85932,-41.13305 35.1264,-54.195 11.3924,10.01744 24.6641,16.87431 38.80629,22.07944 15.0262,10.11565 30.92511,19.45861 46.8352,28.10112 7.6603,3.63378 8.3145,12.70335 13.7159,18.39954 2.6515,2.9463 5.675,5.94495 9.7016,7.02528 8.0534,4.32124 17.2152,1.59287 25.7596,1.0036 6.8745,-1.66956 13.1512,-6.85971 16.3922,-13.04695 3.4375,-6.67828 8.1515,-12.33203 10.7051,-19.40315 2.1606,-7.46397 -1.599,-14.73208 -4.3489,-21.41035 -7.7587,-24.0615 -27.2943,-41.21004 -37.8026,-63.89657 -4.0267,-6.08903 -2.6764,-13.86659 -2.6764,-20.7413 0.94,-14.47675 -0.6506,-29.66483 -7.6943,-42.48622 21.3869,-17.92716 111.3067,-93.41524 150.2069,-126.78951 1.5986,-1.37139 -0.433,-6.36082 -2.3417,-6.69074 z M 249.89813,555.67483 c 4.81231,15.02615 8.0074,30.78703 7.02528,46.50066 -5.00871,12.47267 -13.91272,23.05871 -24.42119,31.11192 1.08024,-10.99952 5.59201,-21.21422 7.35979,-32.11552 2.7499,-15.22259 6.40234,-30.47091 10.03612,-45.49706 z" id="path3032" inkscape:connector-curvature="0"/>
    </g>
  </g>
</svg>
