<?xml version="1.0" encoding="utf-8"?>
<!-- Generator: Adobe Illustrator 16.0.0, SVG Export Plug-In . SVG Version: 6.00 Build 0)  -->
<!DOCTYPE svg PUBLIC "-//W3C//DTD SVG 1.1//EN" "http://www.w3.org/Graphics/SVG/1.1/DTD/svg11.dtd">
<svg version="1.1" id="Layer_1" xmlns="http://www.w3.org/2000/svg" xmlns:xlink="http://www.w3.org/1999/xlink" x="0px" y="0px"
	 width="100px" height="63.434px" viewBox="0 0 100 63.434" enable-background="new 0 0 100 63.434" xml:space="preserve">
<g>
	<path d="M75.742,27.046l1.444-0.04c-0.477-0.018-0.953-0.042-1.434-0.071C75.75,26.975,75.744,27.009,75.742,27.046
		z"/>
	<path d="M100,15.156c0-0.667,0-2.22-19.364-12.087c0-0.03,0-0.061,0-0.09c0-1.811-0.68-2.979-1.731-2.979
		s-1.733,1.169-1.733,2.979c0,0.029,0,0.06,0,0.089c-19.363,9.868-19.363,11.42-19.363,12.087c0,0.428,0.004,1.682,3.974,3.069
		c-0.146,5.421,0.017,6.34,0.071,6.646l0.089,0.489l1.508,0.806l0.239,0.092c2.005,0.493,7.037,1.391,12.002,1.7l0.992,0.062
		l0.093-0.989c0.001-0.016,0.004-0.028,0.007-0.044c0.123,0.005,0.248,0.014,0.371,0.019l-0.006,1.026
		c0.621,0.023,1.238,0.041,1.842,0.041c1.247,0,2.689-0.076,4.191-0.202l0.012-0.001c5.562-0.467,11.965-1.62,12.515-2.172
		c0.394-0.388,0.431-0.446,0.356-7.486C99.994,16.831,100,15.582,100,15.156z M74.856,25.846c-4.405-0.339-8.68-1.098-10.557-1.547
		l-0.479-0.257c-0.045-0.668-0.081-2.106-0.007-5.194c0.07,0.019,0.146,0.034,0.218,0.053c0.17,0.044,0.347,0.085,0.521,0.127
		c0.379,0.093,0.764,0.182,1.16,0.267c0.198,0.042,0.398,0.083,0.602,0.124c0.4,0.08,0.811,0.155,1.228,0.228
		c0.2,0.035,0.397,0.069,0.603,0.103c0.484,0.078,0.979,0.149,1.48,0.216c0.143,0.02,0.281,0.041,0.424,0.059
		c0.649,0.082,1.312,0.154,1.984,0.219c0.154,0.014,0.312,0.025,0.467,0.039c0.52,0.045,1.043,0.087,1.573,0.122
		c0.247,0.016,0.497,0.028,0.747,0.042c0.447,0.023,0.898,0.045,1.354,0.062c0.272,0.011,0.547,0.02,0.82,0.025
		c0.172,0.004,0.343,0.013,0.516,0.016C76.233,21.354,75.259,23.268,74.856,25.846z M94.017,24.176
		c-1.627,0.377-6.314,1.286-11.051,1.67c-0.404-2.578-1.382-4.492-2.658-5.299c0.178-0.003,0.352-0.012,0.528-0.016
		c0.269-0.007,0.534-0.016,0.802-0.025c0.461-0.017,0.918-0.039,1.375-0.062c0.248-0.015,0.498-0.026,0.744-0.042
		c0.528-0.035,1.051-0.076,1.567-0.122c0.161-0.014,0.323-0.025,0.481-0.04c0.67-0.063,1.328-0.137,1.974-0.219
		c0.168-0.021,0.329-0.046,0.493-0.068c0.479-0.065,0.951-0.132,1.41-0.207c0.221-0.036,0.435-0.074,0.648-0.111
		c0.4-0.069,0.792-0.142,1.178-0.219c0.217-0.043,0.432-0.087,0.644-0.132c0.384-0.083,0.753-0.169,1.118-0.259
		c0.187-0.046,0.373-0.089,0.556-0.137c0.062-0.017,0.129-0.03,0.19-0.047C94.044,21.991,94.034,23.479,94.017,24.176z"/>
	<path d="M17.936,27.091l1.445-0.04c-0.476-0.018-0.954-0.043-1.432-0.071C17.944,27.02,17.939,27.054,17.936,27.091
		z"/>
	<path d="M42.195,15.201c0-0.667-0.001-2.221-19.367-12.087c0-0.03,0.001-0.059,0.001-0.089
		c0-1.811-0.68-2.98-1.731-2.98c-1.053,0-1.733,1.17-1.733,2.98c0,0.03,0,0.06,0.001,0.089C0.001,12.981,0,14.534,0,15.201
		c0,0.427,0.005,1.681,3.973,3.069c-0.188,6.947,0.061,7.164,0.541,7.538c0.782,0.611,7.828,1.851,13.37,2.195l0.992,0.062
		l0.092-0.989c0.001-0.016,0.004-0.029,0.006-0.044c0.124,0.006,0.249,0.014,0.373,0.019l-0.005,1.025
		c0.62,0.023,1.237,0.041,1.841,0.041c1.246,0,2.687-0.076,4.19-0.202l0.014-0.001c5.554-0.466,11.956-1.617,12.52-2.176
		c0.384-0.384,0.427-0.449,0.353-7.482C42.189,16.876,42.195,15.627,42.195,15.201z M17.051,25.892
		c-5.002-0.385-9.619-1.284-11.028-1.664c-0.046-0.574-0.095-1.975-0.015-5.334c0.073,0.02,0.154,0.037,0.229,0.056
		c0.157,0.041,0.321,0.078,0.482,0.118c0.393,0.097,0.793,0.189,1.207,0.277c0.185,0.039,0.371,0.077,0.559,0.115
		c0.421,0.084,0.851,0.163,1.289,0.238c0.18,0.031,0.358,0.062,0.541,0.092c0.523,0.084,1.057,0.162,1.601,0.233
		c0.103,0.014,0.202,0.028,0.305,0.042c0.666,0.084,1.344,0.159,2.035,0.224c0.096,0.009,0.194,0.015,0.289,0.024
		c0.582,0.052,1.17,0.098,1.767,0.137c0.204,0.013,0.408,0.023,0.613,0.035c0.5,0.027,1.003,0.051,1.51,0.068
		c0.229,0.009,0.458,0.017,0.689,0.022c0.194,0.005,0.385,0.014,0.58,0.018C18.428,21.4,17.454,23.312,17.051,25.892z
		 M36.213,24.223c-1.629,0.376-6.318,1.285-11.05,1.669c-0.404-2.578-1.382-4.491-2.657-5.299c0.199-0.004,0.396-0.013,0.594-0.019
		c0.221-0.006,0.44-0.013,0.661-0.021c0.522-0.018,1.039-0.042,1.553-0.07c0.196-0.012,0.392-0.021,0.587-0.033
		c0.617-0.04,1.227-0.087,1.828-0.143c0.079-0.008,0.159-0.013,0.236-0.02c0.697-0.066,1.38-0.142,2.05-0.227
		c0.104-0.015,0.204-0.029,0.306-0.043c0.545-0.072,1.08-0.149,1.604-0.234c0.182-0.029,0.36-0.062,0.54-0.092
		c0.44-0.076,0.871-0.156,1.292-0.241c0.188-0.038,0.373-0.075,0.556-0.114c0.42-0.09,0.827-0.185,1.226-0.284
		c0.153-0.037,0.311-0.073,0.46-0.112c0.071-0.02,0.147-0.035,0.216-0.054C36.243,22.05,36.231,23.53,36.213,24.223z"/>
	<path d="M62.953,24.956c0.082,0.065,0.435,0.174,0.979,0.309c-0.359-0.192-0.719-0.386-1.071-0.573
		C62.886,24.835,62.916,24.927,62.953,24.956z"/>
	<path d="M44.813,61.565l2.551-0.069c-0.839-0.031-1.684-0.074-2.53-0.128
		C44.828,61.436,44.818,61.498,44.813,61.565z"/>
	<path d="M89.08,39.867c0-1.53,0-3.267-24.264-16.251c-0.138-0.074-0.285-0.13-0.437-0.167
		c-0.056-0.014-0.107-0.027-0.158-0.04c-0.139-0.147-0.301-0.272-0.482-0.37c-4.4-2.344-8.2-4.305-9.998-5.227
		c0.001-0.056,0.001-0.11,0.001-0.166c0-3.304-1.239-5.438-3.157-5.438c-1.922,0-3.163,2.134-3.163,5.438
		c0,0.055,0,0.109,0.001,0.166c-2.659,1.363-9.694,5-16.657,8.828c-18.68,10.268-18.68,11.771-18.68,13.225
		c0,0.781,0.009,3.067,7.248,5.601c-0.346,12.716,0.111,13.073,0.985,13.753c1.428,1.121,14.288,3.388,24.4,4.016l1.81,0.113
		l0.168-1.807c0.002-0.026,0.006-0.052,0.009-0.08c0.199,0.01,0.399,0.023,0.598,0.031l-0.01,1.872
		c1.163,0.044,2.314,0.069,3.443,0.069c2.26,0,4.873-0.137,7.602-0.364l0.072-0.002l-0.001-0.004
		c10.134-0.852,21.813-2.949,22.842-3.968c0.702-0.697,0.78-0.778,0.648-13.654C89.069,42.922,89.08,40.646,89.08,39.867z
		 M43.196,59.379c-9.125-0.7-17.551-2.346-20.122-3.041c-0.085-1.048-0.175-3.602-0.027-9.733c0.075,0.021,0.157,0.036,0.232,0.057
		c0.744,0.195,1.507,0.384,2.295,0.562c0.136,0.03,0.277,0.06,0.415,0.09c0.767,0.17,1.551,0.332,2.354,0.483
		c0.091,0.019,0.179,0.035,0.27,0.053c0.863,0.161,1.749,0.311,2.649,0.45c0.167,0.026,0.333,0.053,0.5,0.077
		c0.911,0.141,1.837,0.27,2.781,0.388c0.095,0.013,0.191,0.021,0.285,0.033c0.949,0.116,1.913,0.223,2.89,0.317
		c0.066,0.007,0.131,0.014,0.197,0.021c1.011,0.098,2.038,0.181,3.074,0.254c0.128,0.01,0.257,0.019,0.386,0.026
		c1.056,0.071,2.12,0.134,3.195,0.182c0.011,0.001,0.021,0.001,0.032,0.001c1.111,0.049,2.231,0.083,3.358,0.104
		c0.026,0,0.052,0.001,0.079,0.002C45.711,51.175,43.931,54.667,43.196,59.379z M78.166,56.325
		c-2.976,0.688-11.532,2.347-20.167,3.047c-0.738-4.706-2.525-8.197-4.854-9.669c0.037-0.001,0.074-0.003,0.113-0.003
		c1.116-0.022,2.229-0.056,3.328-0.104c0.012,0,0.021,0,0.032-0.001c1.083-0.048,2.156-0.109,3.22-0.184
		c0.116-0.007,0.233-0.015,0.35-0.024c1.058-0.073,2.102-0.158,3.131-0.259c0.029-0.002,0.057-0.005,0.084-0.009
		c1.031-0.101,2.049-0.212,3.049-0.336c0.061-0.007,0.12-0.015,0.18-0.021c0.979-0.121,1.938-0.257,2.883-0.4
		c0.125-0.021,0.248-0.039,0.373-0.06c0.943-0.147,1.873-0.305,2.776-0.475c0.015-0.003,0.029-0.006,0.045-0.009
		c0.898-0.17,1.771-0.352,2.624-0.541c0.087-0.021,0.176-0.038,0.262-0.058c0.836-0.188,1.646-0.39,2.432-0.598
		c0.047-0.013,0.098-0.022,0.145-0.036C78.22,52.365,78.197,55.065,78.166,56.325z"/>
</g>
</svg>
