<svg xmlns="http://www.w3.org/2000/svg" xmlns:xlink="http://www.w3.org/1999/xlink" version="1.1" x="0px" y="0px" width="100px" height="100px" viewBox="0 0 100 100" enable-background="new 0 0 100 100" xml:space="preserve">
<g id="Captions">
</g>
<g id="Your_Icon">
	<path d="M23.128,5.509c1.169-1.168,1.169-3.063,0-4.231c-1.167-1.168-3.063-1.168-4.231,0c-17.15,17.15-17.15,45.055,0,62.205   c0.584,0.584,1.35,0.876,2.116,0.876c0.765,0,1.531-0.292,2.115-0.876c1.169-1.168,1.169-3.064,0-4.232   C8.312,44.435,8.312,20.327,23.128,5.509z"/>
	<path d="M81.104,1.278c-1.168-1.168-3.064-1.168-4.232,0s-1.168,3.063,0,4.231c14.815,14.817,14.815,38.925,0,53.741   c-1.168,1.168-1.168,3.064,0,4.232c0.584,0.584,1.35,0.876,2.116,0.876c0.764,0,1.532-0.292,2.116-0.876   C98.254,46.333,98.254,18.428,81.104,1.278z"/>
	<path d="M31.824,14.205c1.169-1.168,1.169-3.063,0-4.231c-1.167-1.169-3.063-1.169-4.231,0c-12.354,12.355-12.354,32.459,0,44.813   c0.584,0.584,1.35,0.876,2.116,0.876c0.765,0,1.531-0.292,2.115-0.876c1.169-1.168,1.169-3.062,0-4.23   C21.803,40.534,21.803,24.227,31.824,14.205z"/>
	<path d="M72.407,9.974c-1.168-1.169-3.064-1.169-4.232,0c-1.168,1.168-1.168,3.063,0,4.231c10.021,10.022,10.021,26.329,0,36.352   c-1.168,1.167-1.168,3.062,0,4.23c0.584,0.584,1.351,0.876,2.116,0.876c0.765,0,1.532-0.292,2.116-0.876   C84.761,42.433,84.761,22.329,72.407,9.974z"/>
	<path d="M36.313,46.067c0.584,0.584,1.35,0.876,2.116,0.876c0.765,0,1.531-0.292,2.115-0.876c1.169-1.168,1.169-3.062,0-4.23   c-5.212-5.214-5.212-13.697,0.001-18.911c1.168-1.168,1.168-3.063-0.001-4.231c-1.169-1.168-3.063-1.169-4.231,0   C28.766,26.241,28.766,38.52,36.313,46.067z"/>
	<path d="M59.454,46.067c0.584,0.584,1.351,0.876,2.116,0.876c0.765,0,1.532-0.292,2.116-0.876c7.545-7.547,7.545-19.826,0-27.373   c-1.168-1.169-3.064-1.169-4.232,0c-1.168,1.168-1.168,3.063,0,4.231c5.213,5.213,5.213,13.696,0,18.911   C58.286,43.004,58.286,44.898,59.454,46.067z"/>
	<path d="M63.15,93.613H52.991V38.782c0.727-0.34,1.41-0.8,2.011-1.4c2.761-2.762,2.761-7.241,0-10.003   c-2.765-2.761-7.241-2.761-10.003,0c-2.762,2.762-2.761,7.241,0,10.003c0.598,0.598,1.282,1.06,2.008,1.4v54.831h-10.16   c-1.652,0-2.992,1.34-2.992,2.992s1.34,2.992,2.992,2.992H63.15c1.654,0,2.992-1.34,2.992-2.992S64.805,93.613,63.15,93.613z"/>
</g>
</svg>